<?xml version="1.0" standalone="no"?>
<!DOCTYPE svg PUBLIC "-//W3C//DTD SVG 1.1//EN" "http://www.w3.org/Graphics/SVG/1.1/DTD/svg11.dtd" >
<svg>
<metadata>
Created by FontForge 20090914 at Sun Apr  3 11:21:40 2016
 By www-data
Copyright (c) chatnarong jingsuohatada 2009. All rights reserved.
</metadata>
<defs>
<font id="supermarket" horiz-adv-x="0" >
  <font-face 
    font-family="supermarket"
    font-weight="400"
    font-stretch="normal"
    units-per-em="2048"
    panose-1="2 0 0 0 0 0 0 0 0 0"
    ascent="1638"
    descent="-410"
    x-height="930"
    cap-height="1240"
    bbox="-1141 -942 1726.01 2019"
    underline-thickness="72"
    underline-position="-149"
    unicode-range="U+0020-U+25CC"
  />
<missing-glyph horiz-adv-x="1536" 
d="M256 0v1280h1024v-1280h-1024zM1238 32c6.66699 0 10 3.33301 10 10v1196c0 6.66699 -3.33301 10 -10 10h-940c-6.66699 0 -10 -3.33301 -10 -10v-1196c0 -6.66699 3.33301 -10 10 -10h940z" />
    <glyph glyph-name="quotedblleft" unicode="&#x91;&#x91;" horiz-adv-x="638" 
d="M308 1177c2.66699 -12.667 1.00195 -22.6641 -4.99805 -29.9971c-2.66699 -3.33301 -6 -6.33301 -10 -9c-27.333 -13.333 -49 -26.333 -65 -39s-28 -24 -36 -34s-13.167 -18.5 -15.5 -25.5s-3.5 -11.167 -3.5 -12.5c14.667 0 28.667 -2.83301 42 -8.5
s25 -13.334 35 -23.001s17.833 -21 23.5 -34s8.5 -26.833 8.5 -41.5s-2.83301 -28.5 -8.5 -41.5s-13.5 -24.333 -23.5 -34s-21.667 -17.334 -35 -23.001s-27.333 -8.5 -42 -8.5c-15.333 0 -29.5 2.83301 -42.5 8.5s-24.333 13.334 -34 23.001s-17.334 21 -23.001 34
s-8.83398 26.833 -9.50098 41.5c-1.33301 34.667 2.66699 65.5 12 92.5s21.333 50.667 36 71s31 37.5 49 51.5s35.167 25.667 51.5 35s30.666 16.166 42.999 20.499l24.5 8.5c6 1.33301 10.833 1.16602 14.5 -0.500977s6.5 -4.16699 8.5 -7.5
c2.66699 -3.33301 4.33398 -8 5.00098 -14zM564.002 1177c2.66699 -12.667 1.00195 -22.6641 -4.99805 -29.9971c-2.66699 -3.33301 -6 -6.33301 -10 -9c-27.333 -13.333 -49 -26.333 -65 -39s-28 -24 -36 -34s-13.167 -18.5 -15.5 -25.5s-3.5 -11.167 -3.5 -12.5
c14.667 0 28.667 -2.83301 42 -8.5s25 -13.334 35 -23.001s17.833 -21 23.5 -34s8.5 -26.833 8.5 -41.5s-2.83301 -28.5 -8.5 -41.5s-13.5 -24.333 -23.5 -34s-21.667 -17.334 -35 -23.001s-27.333 -8.5 -42 -8.5c-15.333 0 -29.5 2.83301 -42.5 8.5
s-24.333 13.334 -34 23.001s-17.334 21 -23.001 34s-8.83398 26.833 -9.50098 41.5c-1.33301 34.667 2.66699 65.5 12 92.5s21.333 50.667 36 71s31 37.5 49 51.5s35.167 25.667 51.5 35s30.666 16.166 42.999 20.499l24.5 8.5c6 1.33301 10.833 1.16602 14.5 -0.500977
s6.5 -4.16699 8.5 -7.5c2.66699 -3.33301 4.33398 -8 5.00098 -14z" />
    <glyph glyph-name="quotedblright" unicode="&#x92;&#x92;" horiz-adv-x="672" 
d="M348 851c-2 7.33301 -2.33496 13.3311 -1.00195 17.998s3.33301 8.66699 6 12s6 6.33301 10 9c27.333 13.333 49 26.333 65 39s28 24 36 34s13.167 18.5 15.5 25.5s3.5 11.167 3.5 12.5c-15.333 0 -29.5 2.83301 -42.5 8.5s-24.5 13.334 -34.5 23.001
s-17.833 21 -23.5 34s-8.5 26.833 -8.5 41.5s2.83301 28.5 8.5 41.5s13.5 24.333 23.5 34s21.5 17.334 34.5 23.001s27.167 8.5 42.5 8.5c14.667 0 28.667 -2.83301 42 -8.5s24.833 -13.334 34.5 -23.001s17.334 -21 23.001 -34s8.83398 -26.833 9.50098 -41.5
c1.33301 -34.667 -2.66699 -65.5 -12 -92.5s-21.333 -50.667 -36 -71s-31 -37.5 -49 -51.5s-35.167 -25.667 -51.5 -35s-30.666 -16.166 -42.999 -20.499l-24.5 -8.5c-6 -2 -10.833 -2 -14.5 0s-6.5 4.66699 -8.5 8c-2.66699 3.33301 -4.33398 8 -5.00098 14z
M91.998 850.998c-2 7.33301 -2.33496 13.3311 -1.00195 17.998s3.33301 8.66699 6 12s6 6.33301 10 9c27.333 13.333 49 26.333 65 39s28 24 36 34s13.167 18.5 15.5 25.5s3.5 11.167 3.5 12.5c-15.333 0 -29.5 2.83301 -42.5 8.5s-24.5 13.334 -34.5 23.001
s-17.833 21 -23.5 34s-8.5 26.833 -8.5 41.5s2.83301 28.5 8.5 41.5s13.5 24.333 23.5 34s21.5 17.334 34.5 23.001s27.167 8.5 42.5 8.5c14.667 0 28.667 -2.83301 42 -8.5s24.833 -13.334 34.5 -23.001s17.334 -21 23.001 -34s8.83398 -26.833 9.50098 -41.5
c0.666992 -34.667 -3.5 -65.5 -12.5 -92.5s-20.833 -50.667 -35.5 -71s-31 -37.5 -49 -51.5s-35.167 -25.667 -51.5 -35s-30.666 -16.166 -42.999 -20.499l-24.5 -8.5c-6 -2 -10.833 -2 -14.5 0s-6.5 4.66699 -8.5 8c-2.66699 3.33301 -4.33398 8 -5.00098 14z" />
    <glyph glyph-name="copyright2" unicode="&#x3b;&#x3b;For&#x20;Education&#x20;Used&#x20;Only&#x3b;&#x3b;" horiz-adv-x="1266" 
d="M767 499c-3.33301 -26.667 -12.333 -47.001 -27 -61.001s-30 -24.333 -46 -31c-19.333 -7.33301 -40.333 -11.666 -63 -12.999c-26 1.33301 -49 6.33301 -69 15c-8.66699 4 -17 8.83301 -25 14.5s-15.167 12.834 -21.5 21.501s-11.5 19 -15.5 31s-6 25.667 -6 41v95
c0 29.333 7 52.166 21 68.499s29.667 28.166 47 35.499c20 8.66699 43 13.667 69 15c23.333 -1.33301 44.333 -5.66602 63 -12.999c16 -6.66699 31.333 -16.834 46 -30.501s23.667 -33.167 27 -58.5h83c-2 12.667 -6.33301 29.5 -13 50.5s-18 41.5 -34 61.5
s-37.833 37.333 -65.5 52s-63.167 22 -106.5 22c-27.333 0 -51.166 -3 -71.499 -9s-38.333 -13.667 -54 -23s-28.834 -20.166 -39.501 -32.499s-19.334 -24.833 -26.001 -37.5c-16.667 -30 -26.667 -63.667 -30 -101v-95c3.33301 -38 13.333 -71.667 30 -101
c6.66699 -12.667 15.334 -25 26.001 -37s23.834 -22.833 39.501 -32.5s33.667 -17.334 54 -23.001s44.166 -8.5 71.499 -8.5c43.333 0 78.833 7.16699 106.5 21.5s49.5 31.5 65.5 51.5s27.333 40.333 34 61s11 37.334 13 50.001h-83zM630 29.999c-74 0 -143.333 14 -208 42
s-121.334 66.333 -170.001 115c-48 48 -86 104.333 -114 169s-42 134 -42 208c0 74.667 14 144.334 42 209.001s66 121.334 114 170.001c48.667 48.667 105.334 87 170.001 115s134 42 208 42c74.667 0 144.167 -14 208.5 -42s120.833 -66.333 169.5 -115
s87 -105.334 115 -170.001s42 -134.334 42 -209.001c0 -74 -14 -143.333 -42 -208s-66.333 -121 -115 -169c-48.667 -48.667 -105.167 -87 -169.5 -115s-133.833 -42 -208.5 -42zM325 869.999c-84 -82.667 -126 -184.667 -126 -306c0 -59.333 11 -115 33 -167
s53 -98 93 -138c39.333 -39.333 85 -70.166 137 -92.499s108 -33.5 168 -33.5c60.667 0 116.834 11.167 168.501 33.5s97.167 53.166 136.5 92.499c40 40 71.167 86 93.5 138s33.5 107.667 33.5 167c0 60.667 -11.167 117 -33.5 169s-53.5 97.667 -93.5 137
c-39.333 39.333 -84.833 70.333 -136.5 93s-107.834 34 -168.501 34c-60 0 -116 -11.333 -168 -34s-97.667 -53.667 -137 -93z" />
    <glyph glyph-name="registered2" unicode="&#x3b;&#x3b;Registered&#x3b;&#x3b;" horiz-adv-x="1296" 
d="M654 30c-74 0 -143.333 14 -208 42s-121.334 66.333 -170.001 115c-48 48 -86 104.333 -114 169s-42 134 -42 208c0 74.667 14 144.334 42 209.001s66 121.334 114 170.001c48.667 48.667 105.334 87 170.001 115s134 42 208 42c74.667 0 144.167 -14 208.5 -42
s120.833 -66.333 169.5 -115s87 -105.334 115 -170.001s42 -134.334 42 -209.001c0 -74 -14 -143.333 -42 -208s-66.333 -121 -115 -169c-48.667 -48.667 -105.167 -87 -169.5 -115s-133.833 -42 -208.5 -42zM349 870c-84 -82.667 -126 -184.667 -126 -306
c0 -59.333 11 -115 33 -167s53 -98 93 -138c39.333 -39.333 85 -70.166 137 -92.499s108 -33.5 168 -33.5c60.667 0 116.834 11.167 168.501 33.5s97.167 53.166 136.5 92.499c40 40 71.167 86 93.5 138s33.5 107.667 33.5 167c0 60.667 -11.167 117 -33.5 169
s-53.5 97.667 -93.5 137c-39.333 39.333 -84.833 70.333 -136.5 93s-107.834 34 -168.501 34c-60 0 -116 -11.333 -168 -34s-97.667 -53.667 -137 -93zM781 575c13.333 12 23.835 26.499 31.502 43.499s11.5 35.5 11.5 55.5s-3.83301 38.5 -11.5 55.5s-18 31.833 -31 44.5
s-28.167 22.5 -45.5 29.5s-36 10.5 -56 10.5h-194v-498h65v219h135c14 0 25.667 -2.5 35 -7.5s16.666 -11 21.999 -18s9.16602 -14.333 11.499 -22s3.83301 -13.834 4.5 -18.501v-153h65v153c0 28.667 -4.33301 51.334 -13 68.001s-18.667 29.334 -30 38.001z
M551.002 594.999v159h129c21.333 0 39.833 -7.66699 55.5 -23s23.5 -34.333 23.5 -57c0 -22 -7.83301 -40.667 -23.5 -56s-34.167 -23 -55.5 -23h-129z" />
    <glyph glyph-name="trademark2" unicode="&#x3b;&#x3b;Trademark&#x3b;&#x3b;" horiz-adv-x="1370" 
d="M1170 1201v-713h-97v444l-149 -343h-90l-152 343v-444h-97v620h-186v-619h-96v619h-188v93h561l205 -465l200 465h89z" />
    <glyph glyph-name="multiply2" unicode="&#x3b;&#x3b;Multiply&#x3b;&#x3b;" horiz-adv-x="982" 
d="M771 222l-270 270l-270 -270l-119 120l269 269l-269 270l119 119l270 -269l270 269l119 -119l-270 -270l270 -269z" />
    <glyph glyph-name="divide2" unicode="&#x3b;&#x3b;Divide&#x3b;&#x3b;" horiz-adv-x="1189" 
d="M1070 654v-160h-932v160h932zM604 784c-15.333 0 -29.5 2.83301 -42.5 8.5s-24.333 13.334 -34 23.001s-17.334 21.167 -23.001 34.5s-8.5 27.666 -8.5 42.999c0 14.667 2.83301 28.5 8.5 41.5s13.334 24.333 23.001 34s21 17.334 34 23.001s27.167 8.5 42.5 8.5
c14.667 0 28.667 -2.83301 42 -8.5s24.833 -13.334 34.5 -23.001s17.334 -21 23.001 -34s8.5 -26.833 8.5 -41.5c0 -15.333 -2.83301 -29.666 -8.5 -42.999s-13.334 -24.833 -23.001 -34.5s-21.167 -17.334 -34.5 -23.001s-27.333 -8.5 -42 -8.5zM604 170
c-15.333 0 -29.5 2.83301 -42.5 8.5s-24.333 13.5 -34 23.5s-17.334 21.5 -23.001 34.5s-8.5 26.833 -8.5 41.5s2.83301 28.667 8.5 42s13.334 24.833 23.001 34.5s21 17.334 34 23.001s27.167 8.5 42.5 8.5c14.667 0 28.667 -2.83301 42 -8.5s24.833 -13.334 34.5 -23.001
s17.334 -21.167 23.001 -34.5s8.5 -27.333 8.5 -42s-2.83301 -28.5 -8.5 -41.5s-13.334 -24.5 -23.001 -34.5s-21.167 -17.833 -34.5 -23.5s-27.333 -8.5 -42 -8.5z" />
    <glyph glyph-name="rulakkhangyao" unicode="&#xc4;&#xd2;" horiz-adv-x="1385" 
d="M1055 1081c4 0 13.833 -0.498047 29.5 -1.49805s34.167 -4.33301 55.5 -10s43.833 -14.834 67.5 -27.501s45.334 -30.667 65.001 -54s36 -53 49 -89s19.5 -80.333 19.5 -133v-765h-161v765c-1.33301 28.667 -6.66602 54.334 -15.999 77.001c-4 10 -9 19.667 -15 29
s-13.333 17.666 -22 24.999s-18.834 13.166 -30.501 17.499s-25.167 6.5 -40.5 6.5c-26.667 0 -49.167 -3.16699 -67.5 -9.5s-33.5 -13.5 -45.5 -21.5s-21.333 -15.833 -28 -23.5s-11.667 -13.167 -15 -16.5c10 -22 17.667 -43.333 23 -64s9.16602 -39.334 11.499 -56.001
s3.83301 -30.834 4.5 -42.501s1 -19.167 1 -22.5v-1135h-160v1135c0 42.667 -5.83301 78.5 -17.5 107.5s-26.5 53 -44.5 72s-37.833 33.5 -59.5 43.5s-42.167 17.5 -61.5 22.5s-36.166 7.83301 -50.499 8.5s-23.5 1 -27.5 1c-32.667 0 -61.334 -3.66699 -86.001 -11
s-46.167 -17 -64.5 -29s-33.666 -25.667 -45.999 -41s-22.5 -31 -30.5 -47c-18.667 -37.333 -29.334 -79.666 -32.001 -126.999v-515h99v-150h-259v822c22 40.667 46 75.334 72 104.001s52.833 52.5 80.5 71.5s55 34 82 45s52 19.333 75 25s43.167 9.16699 60.5 10.5
s30.333 2 39 2h10c66.667 -2 123 -12 169 -30s84.667 -41 116 -69c8 8 19 17.667 33 29s31.5 22.333 52.5 33s45.333 19.667 73 27s58.5 11 92.5 11z" />
    <glyph glyph-name="lulakkhangyao" unicode="&#xc6;&#xd2;" horiz-adv-x="1498" 
d="M1112 1082c4 0 13.834 -0.498047 29.501 -1.49805s34.167 -4.33301 55.5 -10s43.833 -14.834 67.5 -27.501s45.334 -30.667 65.001 -54s36 -53 49 -89s19.5 -80.333 19.5 -133v-765h-161v765c-1.33301 28.667 -6.66602 54.334 -15.999 77.001c-4 10 -9 19.667 -15 29
s-13.333 17.666 -22 24.999s-18.834 13.166 -30.501 17.499s-25.167 6.5 -40.5 6.5c-26.667 0 -49.167 -3.16699 -67.5 -9.5s-33.5 -13.5 -45.5 -21.5s-21.333 -15.833 -28 -23.5s-11.667 -13.167 -15 -16.5c10 -22 17.667 -43.333 23 -64s9.16602 -39.334 11.499 -56.001
s3.83301 -30.834 4.5 -42.501s1 -19.167 1 -22.5v-1135h-160v1135c0 42.667 -5.83301 78.5 -17.5 107.5s-26.5 53 -44.5 72s-37.833 33.5 -59.5 43.5s-42.167 17.5 -61.5 22.5s-36.166 7.83301 -50.499 8.5s-23.5 1 -27.5 1c-32.667 0 -61.334 -3.66699 -86.001 -11
s-46.167 -17 -64.5 -29s-33.666 -25.667 -45.999 -41s-22.5 -31 -30.5 -47c-18.667 -37.333 -29.334 -79.666 -32.001 -126.999v-665h-259v150h99v672c21.333 40.667 45.166 75.334 71.499 104.001s53.333 52.5 81 71.5s55 34 82 45s52 19.333 75 25
s43.167 9.16699 60.5 10.5s30.333 2 39 2h10c66.667 -2 123 -12 169 -30s84.667 -41 116 -69c8 8 19 17.667 33 29s31.5 22.333 52.5 33s45.333 19.667 73 27s58.5 11 92.5 11z" />
    <glyph glyph-name=".notdef" horiz-adv-x="1536" 
d="M256 0v1280h1024v-1280h-1024zM1238 32c6.66699 0 10 3.33301 10 10v1196c0 6.66699 -3.33301 10 -10 10h-940c-6.66699 0 -10 -3.33301 -10 -10v-1196c0 -6.66699 3.33301 -10 10 -10h940z" />
    <glyph glyph-name="space" unicode=" " horiz-adv-x="566" 
 />
    <glyph glyph-name="exclam" unicode="!" horiz-adv-x="504" 
d="M374 -205c0 -34.667 -11.334 -63.668 -34.001 -87.001c-23.333 -23.333 -51.666 -35 -84.999 -35c-34 0 -62.667 11.667 -86 35c-22.667 23.333 -34 52.333 -34 87c0 34 11.333 62.333 34 85c23.333 23.333 52 35 86 35c31.333 0 59.333 -11.667 84 -35
c23.333 -23.333 35 -51.666 35 -84.999zM323.999 -0.000976562h-135l-56 1261h247z" />
    <glyph glyph-name="quotedbl" unicode="&#x22;" horiz-adv-x="575" 
d="M259 1201l-23 -397h-113l-24 397h160zM473 1201l-23 -397h-113l-24 397h160z" />
    <glyph glyph-name="numbersign" unicode="#" horiz-adv-x="1105" 
d="M837 713l-50 -208h175v-150h-225l-63 -213h-169l63 213h-179l-63 -213h-169l63 213h-133v150h182l50 208h-175v149h225l63 212h169l-63 -212h179l63 212h169l-63 -212h133v-150zM668 713h-180l-50 -208h180z" />
    <glyph glyph-name="dollar" unicode="$" horiz-adv-x="994" 
d="M562 679c38 -17.333 75.8291 -35.832 113.496 -55.499s71.5 -43.334 101.5 -71.001s54.333 -60.834 73 -99.501s28 -85.667 28 -141v-9c0 -50 -8.16699 -93.833 -24.5 -131.5s-38.666 -69.5 -66.999 -95.5s-61.666 -46.5 -99.999 -61.5s-79.833 -24.833 -124.5 -29.5
v-166h-160v168c-56 7.33301 -103.833 19.333 -143.5 36s-72.5 33.667 -98.5 51c-30.667 20 -56 41.667 -76 65l106 104c20 -19.333 48.667 -38.666 86 -57.999s79.333 -33.666 126 -42.999v422c-33.333 15.333 -65.333 33 -96 53s-57.667 44.5 -81 73.5
s-42.166 63.5 -56.499 103.5s-21.5 88 -21.5 144c0 46.667 6.83301 87.834 20.5 123.501s32.167 66 55.5 91s50.5 45.167 81.5 60.5s63.5 26.666 97.5 33.999v171h160v-166c35.333 -4.66699 67.333 -11.834 96 -21.501s53.334 -19.5 74.001 -29.5
c24 -12 45.667 -24.667 65 -38l82 -56l-89 -134l-67 44c-22.667 15.333 -48.667 28.833 -78 40.5s-57 21.167 -83 28.5v-407zM308.996 938.001c0 -40 8.5 -73.499 25.5 -100.499s39.5 -51.167 67.5 -72.5v310c-28 -13.333 -50.5 -31.833 -67.5 -55.5
s-25.5 -50.834 -25.5 -81.501zM561.996 138.002c48 10 85.335 29.668 112.002 59.001s40 64.666 40 105.999c0 24.667 -3.83301 46.667 -11.5 66s-18.334 36.5 -32.001 51.5s-29.834 28.5 -48.501 40.5s-38.667 23 -60 33v-356z" />
    <glyph glyph-name="percent" unicode="%" horiz-adv-x="1263" 
d="M970 1330l-531 -1516h-159l530 1516h160zM309 1075c26 0 50.333 -5 73 -15s42.5 -23.5 59.5 -40.5s30.5 -36.833 40.5 -59.5s15 -47 15 -73s-5 -50.333 -15 -73s-23.5 -42.5 -40.5 -59.5s-36.833 -30.333 -59.5 -40s-47 -14.5 -73 -14.5s-50.333 4.83301 -73 14.5
s-42.5 23 -59.5 40s-30.333 36.833 -40 59.5s-14.5 47 -14.5 73s4.83301 50.333 14.5 73s23 42.5 40 59.5s36.833 30.5 59.5 40.5s47 15 73 15zM309 825c17.333 0 32.166 6 44.499 18s18.5 26.667 18.5 44c0 18 -6.16699 32.833 -18.5 44.5s-27.166 17.5 -44.499 17.5
s-32 -5.83301 -44 -17.5s-18 -26.5 -18 -44.5c0 -17.333 6 -32 18 -44s26.667 -18 44 -18zM940 444c26 0 50.333 -4.83301 73 -14.5s42.5 -23 59.5 -40s30.333 -36.833 40 -59.5s14.5 -47 14.5 -73s-4.83301 -50.333 -14.5 -73s-23 -42.5 -40 -59.5
s-36.833 -30.333 -59.5 -40s-47 -14.5 -73 -14.5s-50.333 4.83301 -73 14.5s-42.5 23 -59.5 40s-30.333 36.833 -40 59.5s-14.5 47 -14.5 73s4.83301 50.333 14.5 73s23 42.5 40 59.5s36.833 30.333 59.5 40s47 14.5 73 14.5zM940 195c17.333 0 32.166 6 44.499 18
s18.5 26.667 18.5 44s-6.16699 32 -18.5 44s-27.166 18 -44.499 18s-32 -6 -44 -18s-18 -26.667 -18 -44s6 -32 18 -44s26.667 -18 44 -18z" />
    <glyph glyph-name="ampersand" unicode="&#x26;" horiz-adv-x="1251" 
d="M1008 -1l-175.006 198.001c-14 -14 -28.833 -28 -44.5 -42l-46.5 -41c-15.333 -13.333 -31 -25.5 -47 -36.5l-48 -32.5c-16 -10 -32.333 -19 -49 -27s-34 -15.667 -52 -23c-17.333 -6.66699 -34.666 -11.834 -51.999 -15.501s-35 -6.16699 -53 -7.5
c-5.33301 -0.666992 -11 -1.16699 -17 -1.5s-11.667 -0.5 -17 -0.5c-31.333 0 -63.333 5.66699 -96 17c-20.667 7.33301 -40.5 16.166 -59.5 26.499s-36.5 22.5 -52.5 36.5s-30.833 29.333 -44.5 46s-25.167 34.667 -34.5 54c-20 38.667 -32.667 81 -38 127
c-0.666992 5.33301 -1 10.666 -1 15.999v16c0 18.667 1.33301 36.834 4 54.501s7.33398 34.834 14.001 51.501c7.33301 22 16.333 42.833 27 62.5s22.667 38.5 36 56.5s28 35.5 44 52.5s33 33.167 51 48.5c18 16.667 36.667 32.834 56 48.501l55 44.5
c-16.667 17.333 -32.167 34.666 -46.5 51.999s-27.166 35.666 -38.499 54.999c-11.333 17.333 -20.333 36.166 -27 56.499s-11 41.166 -13 62.499c-2.66699 34 2 67.333 14 100c11.333 34 27 63.333 47 88c11.333 12.667 23.5 24.334 36.5 35.001s26.5 19.667 40.5 27
c14.667 8 30.334 14.333 47.001 19s33.667 7.66699 51 9s34.5 0.833008 51.5 -1.5s33.167 -6.16602 48.5 -11.499s29.833 -12.333 43.5 -21s26.167 -17.667 37.5 -27c10.667 -10 21 -21.5 31 -34.5s18.333 -26.5 25 -40.5c14.667 -30 23.334 -60.667 26.001 -92
c3.33301 -33.333 1 -64.333 -7 -93c-4.66699 -14 -9.66699 -27.667 -15 -41s-12.333 -25.666 -21 -36.999c-15.333 -26 -33.666 -49 -54.999 -69l-34.5 -34l-34.5 -32l255 -289l131 151l118 -88l-150 -172l130.5 -150.5l130.5 -150.5h-182zM430.994 584.001l-45.998 -36
c-26.667 -20.667 -52.667 -44.667 -78 -72c-11.333 -12.667 -22 -26 -32 -40s-18.667 -28 -26 -42c-8 -15.333 -13.333 -31 -16 -47s-3.33398 -32.667 -2.00098 -50c6 -53.333 27.333 -99 64 -137c37.333 -35.333 81.666 -51 132.999 -47c25.333 2.66699 51 9.5 77 20.5
s51.333 25.5 76 43.5l76.5 62.5c27 23 51.833 45.833 74.5 68.5l-267 303zM593.996 992.001c-3.33301 28 -15.001 51.668 -35.001 71.001c-20.667 18 -44.667 26.333 -72 25c-26 -4 -48.667 -18 -68 -42c-20 -24.667 -28.333 -53.667 -25 -87
c1.33301 -12 4.83301 -24.667 10.5 -38s12.834 -26 21.501 -38c7.33301 -11.333 15.5 -22.833 24.5 -34.5s19.167 -23.834 30.5 -36.501l40.5 39l39.5 40c24.667 26.667 35.667 60 33 100v1z" />
    <glyph glyph-name="quotesingle" unicode="'" horiz-adv-x="304" 
d="M229 1201l-23 -397h-113l-24 397h160z" />
    <glyph glyph-name="parenleft" unicode="(" horiz-adv-x="667" 
d="M597 -309c-61.333 0 -120.499 10.332 -177.499 30.999s-107.333 49.5 -151 86.5s-78.667 81.5 -105 133.5s-39.5 110 -39.5 174v998c0 64.667 13.333 121.334 40 170.001s62.167 89.5 106.5 122.5s94.833 58 151.5 75s115 26.167 175 27.5v-150
c-36 0 -72.5 -4.83301 -109.5 -14.5s-70.5 -24.5 -100.5 -44.5s-54.667 -45.5 -74 -76.5s-29 -67.5 -29 -109.5v-998c0 -42 9.66699 -80 29 -114s44.166 -62.833 74.499 -86.5s64 -42 101 -55s73.167 -19.5 108.5 -19.5v-150z" />
    <glyph glyph-name="parenright" unicode=")" horiz-adv-x="708" 
d="M101 -159c35.333 0 71.501 6.50098 108.501 19.501s70.667 31.333 101 55s55.166 52.5 74.499 86.5s29 72 29 114v998c0 42 -9.66699 78.5 -29 109.5s-44 56.5 -74 76.5s-63.5 34.833 -100.5 44.5s-73.5 14.5 -109.5 14.5v150c60 -1.33301 118.333 -10.5 175 -27.5
s107.167 -42 151.5 -75s79.833 -73.833 106.5 -122.5s40 -105.334 40 -170.001v-998c0 -64 -13.167 -122 -39.5 -174s-61.333 -96.5 -105 -133.5s-94 -65.833 -151 -86.5s-116.167 -31 -177.5 -31v150z" />
    <glyph glyph-name="asterisk" unicode="*" horiz-adv-x="719" 
d="M631 1006h-126l89 -89l-86 -86l-89 90v-127h-121v127l-89 -90l-86 86l90 89h-127v121h127l-90 89l86 86l89 -89v126h121v-126l89 89l86 -86l-89 -89h126v-121z" />
    <glyph glyph-name="plus" unicode="+" horiz-adv-x="1196" 
d="M1052 460h-359v-359h-160v359h-359v160h359v359h160v-359h359v-160z" />
    <glyph glyph-name="comma" unicode="," horiz-adv-x="357" 
d="M157 134h144l-107 -401h-144z" />
    <glyph glyph-name="hyphen" unicode="-" horiz-adv-x="829" 
d="M742 620v-150h-675v150h675z" />
    <glyph glyph-name="period" unicode="." horiz-adv-x="436" 
d="M221 0c-15.333 0 -29.5 2.83301 -42.5 8.5s-24.333 13.334 -34 23.001s-17.334 21 -23.001 34s-8.5 27.167 -8.5 42.5c0 14.667 2.83301 28.5 8.5 41.5s13.334 24.5 23.001 34.5s21 17.833 34 23.5s27.167 8.5 42.5 8.5c14.667 0 28.5 -2.83301 41.5 -8.5
s24.5 -13.5 34.5 -23.5s17.833 -21.5 23.5 -34.5s8.5 -26.833 8.5 -41.5c0 -15.333 -2.83301 -29.5 -8.5 -42.5s-13.5 -24.333 -23.5 -34s-21.5 -17.334 -34.5 -23.001s-26.833 -8.5 -41.5 -8.5z" />
    <glyph glyph-name="slash" unicode="/" horiz-adv-x="1006" 
d="M90 -349l647 1849h160l-647 -1849h-160z" />
    <glyph glyph-name="zero" unicode="0" horiz-adv-x="998" 
d="M501 1260c50.667 0 95.5 -5.5 134.5 -16.5s73.167 -25.667 102.5 -44s54.333 -39 75 -62s37.667 -46.5 51 -70.5c32 -56 51 -120 57 -192v-505c-6 -72.667 -25 -137 -57 -193c-13.333 -24 -30.333 -47.5 -51 -70.5s-45.667 -43.5 -75 -61.5s-63.5 -32.5 -102.5 -43.5
s-83.833 -16.5 -134.5 -16.5c-51.333 0 -96.5 5.5 -135.5 16.5s-73.167 25.5 -102.5 43.5s-54.166 38.5 -74.499 61.5s-37.166 46.5 -50.499 70.5c-32 56 -51 120.333 -57 193v505c6 72 25 136 57 192c13.333 24 30.166 47.5 50.499 70.5s45.166 43.667 74.499 62
s63.5 33 102.5 44s84.167 16.5 135.5 16.5zM761 875c0 28 -3.66699 52.667 -11 74s-17.166 40 -29.499 56s-26.333 29.333 -42 40s-31.5 19.667 -47.5 27c-38 16.667 -81.333 26 -130 28c-48.667 -2 -92 -11.333 -130 -28c-16 -7.33301 -31.833 -16.333 -47.5 -27
s-29.667 -24 -42 -40s-22.166 -34.667 -29.499 -56s-11 -46 -11 -74v-505c0 -29.333 3.66699 -55.333 11 -78s17.166 -42.167 29.499 -58.5s26.333 -30.166 42 -41.499s31.5 -20.666 47.5 -27.999c38 -17.333 81.333 -27 130 -29c48.667 2 92 11.667 130 29
c16 7.33301 31.833 16.666 47.5 27.999s29.667 25.166 42 41.499s22.166 35.833 29.499 58.5s11 48.667 11 78v505z" />
    <glyph glyph-name="one" unicode="1" horiz-adv-x="613" 
d="M509 1249l0.000976562 -1249h-160v913c-30.667 -22 -67.167 -40.167 -109.5 -54.5s-92.833 -22.5 -151.5 -24.5v160c4 0 13.167 0.333008 27.5 1s31.166 3.5 50.499 8.5s39.833 12.5 61.5 22.5s41.5 24.5 59.5 43.5s32.833 43 44.5 72s17.5 64.833 17.5 107.5h160z" />
    <glyph glyph-name="two" unicode="2" horiz-adv-x="916" 
d="M745 703l-178 -240.999l-72.5 -95l-69.5 -90.5l-60.5 -75.5c-18.333 -22 -33.5 -39 -45.5 -51h485v-150h-717v150c104 106 196.667 207 278 303l102 125.5c33.333 43 63.166 84.333 89.499 124s47.5 76.834 63.5 111.501s24 64 24 88c0 27.333 -5.16699 53 -15.5 77
s-24.5 45 -42.5 63s-39 32.167 -63 42.5s-49.667 15.5 -77 15.5s-53 -5.16699 -77 -15.5s-45 -24.5 -63 -42.5s-32.167 -39 -42.5 -63s-15.5 -49.667 -15.5 -77h-161c0 49.333 9.33301 95.833 28 139.5s44.167 81.667 76.5 114s70.333 57.833 114 76.5s90.167 28 139.5 28
c50 0 96.667 -9.33301 140 -28s81.333 -44.167 114 -76.5s58.334 -70.333 77.001 -114s28 -90.167 28 -139.5c0 -36.667 -5.16699 -71.834 -15.5 -105.501s-24.833 -64.834 -43.5 -93.501z" />
    <glyph glyph-name="three" unicode="3" horiz-adv-x="939" 
d="M699 622c40.667 -32.667 73.002 -73.001 97.002 -121.001s36 -100.333 36 -157c0 -49.333 -9.5 -95.833 -28.5 -139.5s-44.667 -81.834 -77 -114.501s-70.333 -58.334 -114 -77.001s-90.167 -28 -139.5 -28s-95.833 9.33301 -139.5 28s-81.834 44.334 -114.501 77.001
s-58.334 70.834 -77.001 114.501s-28 90.167 -28 139.5h161c0 -27.333 5.16699 -53 15.5 -77s24.5 -45 42.5 -63s39 -32.167 63 -42.5s49.667 -15.5 77 -15.5s53 5.16699 77 15.5s45 24.5 63 42.5s32.167 39 42.5 63s15.5 49.667 15.5 77c0 26.667 -5 51.667 -15 75
s-23.833 43.833 -41.5 61.5s-38.667 31.834 -63 42.501s-50.5 17 -78.5 19v161c27.333 0 53 5.16699 77 15.5s45 24.5 63 42.5s32.167 39 42.5 63s15.5 49.667 15.5 77s-5.16699 53 -15.5 77s-24.5 45 -42.5 63s-39 32.167 -63 42.5s-49.667 15.5 -77 15.5
s-53 -5.16699 -77 -15.5s-45 -24.5 -63 -42.5s-32.167 -39 -42.5 -63s-15.5 -49.667 -15.5 -77h-161c0 49.333 9.33301 95.833 28 139.5s44.167 81.667 76.5 114s70.333 58 114 77s90.167 28.5 139.5 28.5c50 0 96.667 -9.5 140 -28.5s81.333 -44.667 114 -77
s58.334 -70.333 77.001 -114s28 -90.167 28 -139.5c0 -56.667 -11.833 -109 -35.5 -157s-55.834 -88.667 -96.501 -122z" />
    <glyph glyph-name="four" unicode="4" horiz-adv-x="1042" 
d="M807 308h146v-150h-146v-158h-160v158h-606v150l607 942h159v-942zM234 308h414v648z" />
    <glyph glyph-name="five" unicode="5" horiz-adv-x="989" 
d="M515 844c50.667 0 95.5 -5.5 134.5 -16.5s73.167 -25.667 102.5 -44s54.333 -39 75 -62s37.667 -46.5 51 -70.5c32 -56 51 -120 57 -192v-88c-6 -72.667 -25 -137 -57 -193c-13.333 -24 -30.333 -47.667 -51 -71s-45.667 -44 -75 -62s-63.5 -32.5 -102.5 -43.5
s-83.833 -16.5 -134.5 -16.5c-69.333 0 -127.666 9.83301 -174.999 29.5s-86.5 44.167 -117.5 73.5s-55.167 61 -72.5 95s-30 65.333 -38 94h162c15.333 -33.333 36.333 -58.833 63 -76.5s53.334 -30.5 80.001 -38.5c31.333 -9.33301 64 -14.666 98 -15.999
c48.667 2 92 11.333 130 28c16 6.66699 31.833 15.5 47.5 26.5s29.667 24.333 42 40s22.166 34.334 29.499 56.001s11 46.5 11 74.5v88c0 29.333 -3.66699 55.166 -11 77.499s-17.166 41.833 -29.499 58.5s-26.333 30.667 -42 42s-31.5 20.666 -47.5 27.999
c-38 17.333 -81.333 27 -130 29c-44.667 -2 -85.334 -10.667 -122.001 -26c-15.333 -6.66699 -30.666 -15 -45.999 -25s-29.333 -22.167 -42 -36.5s-23.334 -31.333 -32.001 -51s-14.334 -42.5 -17.001 -68.5h-161v764h750v-160h-590v-322c30.667 22 67.167 40 109.5 54
s92.5 21 150.5 21z" />
    <glyph glyph-name="six" unicode="6" horiz-adv-x="1002" 
d="M82 459c0.666992 12.667 2.33203 26.334 4.99902 41.001c2 12.667 5.16699 27.167 9.5 43.5s10.166 34.166 17.499 53.499c1.33301 2.66699 2.83301 6.16699 4.5 10.5s5.66699 13.333 12 27l28 60.5l51 111.5l82.5 179.5l122 264h158l-192 -420
c37.333 9.33301 78 14 122 14c50.667 0 95.667 -5.5 135 -16.5s73.666 -25.667 102.999 -44s54.166 -39 74.499 -62s37.166 -46.5 50.499 -70.5c32 -56 51.333 -120 58 -192v-88c-6.66699 -72.667 -26 -137 -58 -193c-13.333 -24 -30.166 -47.667 -50.499 -71
s-45.166 -44 -74.499 -62s-63.666 -32.5 -102.999 -43.5s-84.333 -16.5 -135 -16.5c-51.333 0 -96.5 5.5 -135.5 16.5s-73.167 25.5 -102.5 43.5s-54.166 38.667 -74.499 62s-37.166 47 -50.499 71c-32 56 -51 120.333 -57 193v88zM762.998 459
c0 29.333 -3.83301 55.166 -11.5 77.499s-17.667 41.833 -30 58.5s-26.333 30.667 -42 42s-31.5 20.666 -47.5 27.999c-38 17.333 -81.333 27 -130 29c-48.667 -2 -92 -11.667 -130 -29c-16 -7.33301 -31.833 -16.666 -47.5 -27.999s-29.667 -25.333 -42 -42
s-22.166 -36.167 -29.499 -58.5s-11 -48.166 -11 -77.499v-88c0 -28 3.66699 -52.667 11 -74s17.166 -39.833 29.499 -55.5s26.333 -29 42 -40s31.5 -19.833 47.5 -26.5c38 -16.667 81.333 -26 130 -28c48.667 2 92 11.333 130 28c16 6.66699 31.833 15.5 47.5 26.5
s29.667 24.333 42 40s22.333 34.167 30 55.5s11.5 46 11.5 74v88z" />
    <glyph glyph-name="seven" unicode="7" horiz-adv-x="881" 
d="M829 1251v-150l-429 -1101h-160l429 1101h-616v150h776z" />
    <glyph glyph-name="eight" unicode="8" horiz-adv-x="916" 
d="M688 622c40.667 -32.667 73.002 -73 97.002 -121s36 -100.333 36 -157c0 -49.333 -9.5 -95.833 -28.5 -139.5s-44.667 -81.834 -77 -114.501s-70.333 -58.334 -114 -77.001s-90.167 -28 -139.5 -28s-95.833 9.33301 -139.5 28s-81.834 44.334 -114.501 77.001
s-58.334 70.834 -77.001 114.501s-28 90.167 -28 139.5c0 56.667 12 109 36 157s56 88.333 96 121c-40 33.333 -72 74 -96 122s-36 100.333 -36 157c0 49.333 9.33301 95.833 28 139.5s44.334 81.667 77.001 114s70.667 58 114 77s90 28.5 140 28.5
c49.333 0 95.833 -9.5 139.5 -28.5s81.667 -44.667 114 -77s57.833 -70.333 76.5 -114s28 -90.167 28 -139.5c0 -56.667 -11.833 -109 -35.5 -157s-55.834 -88.667 -96.501 -122zM264.002 901c0 -27.333 5.16699 -53 15.5 -77s24.5 -45 42.5 -63s39 -32.167 63 -42.5
s49.667 -15.5 77 -15.5s53 5.16699 77 15.5s45 24.5 63 42.5s32.167 39 42.5 63s15.5 49.667 15.5 77s-5.16699 53 -15.5 77s-24.5 45 -42.5 63s-39 32.167 -63 42.5s-49.667 15.5 -77 15.5s-53 -5.16699 -77 -15.5s-45 -24.5 -63 -42.5s-32.167 -39 -42.5 -63
s-15.5 -49.667 -15.5 -77zM462.002 146c27.333 0 53.166 5.16699 77.499 15.5s45.5 24.5 63.5 42.5s32.167 39 42.5 63s15.5 49.667 15.5 77s-5.16699 53 -15.5 77s-24.5 45 -42.5 63s-39.167 32.167 -63.5 42.5s-50.166 15.5 -77.499 15.5s-53 -5.16699 -77 -15.5
s-45 -24.5 -63 -42.5s-32.167 -39 -42.5 -63s-15.5 -49.667 -15.5 -77s5.16699 -53 15.5 -77s24.5 -45 42.5 -63s39 -32.167 63 -42.5s49.667 -15.5 77 -15.5z" />
    <glyph glyph-name="nine" unicode="9" horiz-adv-x="1032" 
d="M941 786c-0.666992 -12.667 -2.33105 -26.3311 -4.99805 -40.998c-2 -12.667 -5 -27.334 -9 -44.001s-9.66699 -34.334 -17 -53.001c-1.33301 -2.66699 -2.83301 -6 -4.5 -10s-5.66699 -12.667 -12 -26l-28 -59.5l-51.5 -110.5l-82.5 -178.5l-121.5 -263.5h-158l192 415
c-37.333 -9.33301 -78 -14 -122 -14c-51.333 0 -96.5 5.5 -135.5 16.5s-73.167 25.5 -102.5 43.5s-54.333 38.5 -75 61.5s-37.667 46.5 -51 70.5c-32 56 -51 120.333 -57 193v88c6 72 25 136.333 57 193c13.333 24 30.333 47.5 51 70.5s45.667 43.667 75 62
s63.5 33 102.5 44s84.167 16.5 135.5 16.5c50.667 0 95.5 -5.5 134.5 -16.5s73.167 -25.667 102.5 -44s54.166 -39 74.499 -62s37.166 -46.5 50.499 -70.5c32 -56.667 51 -121 57 -193v-88zM261.003 786.003c0 -29.333 3.66699 -55.333 11 -78s17.166 -42.167 29.499 -58.5
s26.333 -30.166 42 -41.499s31.5 -20.666 47.5 -27.999c38 -17.333 81.667 -27 131 -29c48.667 2 92 11.667 130 29c16 7.33301 31.833 16.666 47.5 27.999s29.667 25.166 42 41.499s22.166 35.833 29.499 58.5s11 48.667 11 78v88c0 28 -3.66699 52.667 -11 74
s-17.166 40 -29.499 56s-26.333 29.333 -42 40s-31.5 19.667 -47.5 27c-38 16.667 -81.333 26 -130 28c-49.333 -2 -93 -11.333 -131 -28c-16 -7.33301 -31.833 -16.333 -47.5 -27s-29.667 -24 -42 -40s-22.166 -34.667 -29.499 -56s-11 -46 -11 -74v-88z" />
    <glyph glyph-name="colon" unicode=":" horiz-adv-x="367" 
d="M188 784c-15.333 0 -29.5 2.83301 -42.5 8.5s-24.333 13.5 -34 23.5s-17.334 21.5 -23.001 34.5s-8.5 26.833 -8.5 41.5s2.83301 28.667 8.5 42s13.334 24.833 23.001 34.5s21 17.334 34 23.001s27.167 8.5 42.5 8.5c14.667 0 28.5 -2.83301 41.5 -8.5
s24.5 -13.334 34.5 -23.001s17.833 -21.167 23.5 -34.5s8.5 -27.333 8.5 -42s-2.83301 -28.5 -8.5 -41.5s-13.5 -24.5 -23.5 -34.5s-21.5 -17.833 -34.5 -23.5s-26.833 -8.5 -41.5 -8.5zM183 352c14.667 0 28.667 -2.83301 42 -8.5s24.833 -13.334 34.5 -23.001
s17.334 -21.167 23.001 -34.5s8.5 -27.333 8.5 -42s-2.83301 -28.5 -8.5 -41.5s-13.334 -24.5 -23.001 -34.5s-21.167 -17.833 -34.5 -23.5s-27.333 -8.5 -42 -8.5c-15.333 0 -29.5 2.83301 -42.5 8.5s-24.333 13.5 -34 23.5s-17.334 21.5 -23.001 34.5
s-8.5 26.833 -8.5 41.5s2.83301 28.667 8.5 42s13.334 24.833 23.001 34.5s21 17.334 34 23.001s27.167 8.5 42.5 8.5z" />
    <glyph glyph-name="semicolon" unicode=";" horiz-adv-x="375" 
d="M199 784c-14.667 0 -28.5 2.83301 -41.5 8.5s-24.5 13.334 -34.5 23.001s-17.833 21 -23.5 34s-8.5 27.167 -8.5 42.5c0 14.667 2.83301 28.5 8.5 41.5s13.5 24.5 23.5 34.5s21.5 17.833 34.5 23.5s26.833 8.5 41.5 8.5s28.667 -2.83301 42 -8.5s25 -13.5 35 -23.5
s17.833 -21.5 23.5 -34.5s8.5 -26.833 8.5 -41.5c0 -15.333 -2.83301 -29.5 -8.5 -42.5s-13.5 -24.333 -23.5 -34s-21.667 -17.334 -35 -23.001s-27.333 -8.5 -42 -8.5zM65 -12c-2 7.33301 -2.33496 13.3311 -1.00195 17.998s3.33301 8.66699 6 12s6 6.33301 10 9
c27.333 13.333 49 26.333 65 39s28 24 36 34s13.167 18.5 15.5 25.5s3.5 11.167 3.5 12.5c-15.333 0 -29.5 2.83301 -42.5 8.5s-24.5 13.334 -34.5 23.001s-17.833 21 -23.5 34s-8.5 26.833 -8.5 41.5s2.83301 28.5 8.5 41.5s13.5 24.333 23.5 34s21.5 17.334 34.5 23.001
s27.167 8.5 42.5 8.5c14.667 0 28.667 -2.83301 42 -8.5s24.833 -13.334 34.5 -23.001s17.334 -21 23.001 -34s8.83398 -26.833 9.50098 -41.5c0.666992 -34.667 -3.5 -65.5 -12.5 -92.5s-20.833 -50.667 -35.5 -71s-31 -37.5 -49 -51.5s-35.167 -25.667 -51.5 -35
s-30.666 -16.166 -42.999 -20.499l-24.5 -8.5c-6 -2 -10.833 -2 -14.5 0s-6.5 4.66699 -8.5 8c-2.66699 3.33301 -4.33398 8 -5.00098 14z" />
    <glyph glyph-name="less" unicode="&#x3c;" horiz-adv-x="1166" 
d="M1054 117l-941 325v285l941 326v-175l-820 -292l820 -296v-173z" />
    <glyph glyph-name="equal" unicode="=" horiz-adv-x="912" 
d="M93 462h716v-150h-716v150zM93 782h716v-150h-716v150z" />
    <glyph glyph-name="greater" unicode="&#x3e;" horiz-adv-x="1116" 
d="M98 290l820 296l-820 292v175l941 -326v-285l-941 -325v173z" />
    <glyph glyph-name="question" unicode="?" horiz-adv-x="812" 
d="M574 121c0 -34.667 -11.667 -63.668 -35 -87.001c-22.667 -22.667 -50.667 -34 -84 -34c-34 0 -62.667 11.667 -86 35c-22.667 22.667 -34 51.334 -34 86.001s11.333 63 34 85c24 24 52.667 36 86 36c30.667 0 58.667 -12 84 -36c23.333 -22 35 -50.333 35 -85z
M373 320.999v267.002c0 25.333 2.83301 48.833 8.5 70.5s13.667 42 24 61s22.666 37.167 36.999 54.5s29.833 34.333 46.5 51s30 31.667 40 45s17.667 25.666 23 36.999s8.83301 22.333 10.5 33s2.5 21.667 2.5 33c0 27.333 -4.5 51.166 -13.5 71.499s-21.333 37.333 -37 51
s-33.834 23.834 -54.501 30.501s-42.334 10 -65.001 10c-42.667 0 -75.5 -4 -98.5 -12s-39.833 -16.667 -50.5 -26c-12 -11.333 -19 -23.666 -21 -36.999h-136c-0.666992 0.666992 -1 1.66699 -1 3c-0.666992 1.33301 -1 4.33301 -1 9c0 7.33301 1 17.833 3 31.5
s6.33301 28.334 13 44.001s16.667 31.667 30 48s31.5 31.166 54.5 44.499s51.333 24.166 85 32.499s74.5 12.5 122.5 12.5c50 0 92.5 -5.5 127.5 -16.5s64.167 -25.333 87.5 -43s41.833 -37.5 55.5 -59.5s23.834 -44 30.501 -66s10.834 -42.667 12.501 -62
s2.5 -35.333 2.5 -48v-19c0 -14.667 -1.33301 -29.834 -4 -45.501s-7.66699 -32.5 -15 -50.5s-17.666 -37.5 -30.999 -58.5s-30.333 -44.167 -51 -69.5c-19.333 -23.333 -34 -44.833 -44 -64.5s-17.667 -36.5 -23 -50.5c-6 -16.667 -9.33301 -31.667 -10 -45v-267h-160z" />
    <glyph glyph-name="at" unicode="@" horiz-adv-x="1437" 
d="M936 428c-2 -6.66699 -3.66895 -13.1709 -5.00195 -19.5039s-2 -12.166 -2 -17.499c0 -19.333 12.333 -29 37 -29c22 0 44.333 8.33301 67 25s43.167 39 61.5 67s33.5 60.833 45.5 98.5s18 77.5 18 119.5c0 62.667 -11.333 118.334 -34 167.001s-53.167 89.667 -91.5 123
s-83 58.666 -134 75.999s-104.5 26 -160.5 26c-68 0 -130.667 -12.667 -188 -38s-106.833 -60.166 -148.5 -104.499s-74.167 -96.666 -97.5 -156.999s-35 -125.166 -35 -194.499c0 -70 12.333 -134.833 37 -194.5s58.5 -111 101.5 -154s93.5 -76.667 151.5 -101
s120.667 -36.5 188 -36.5c38 0 75.333 3.66699 112 11s71.167 18 103.5 32s62.333 31.167 90 51.5s51.5 43.5 71.5 69.5h150c-24.667 -44 -56.167 -84 -94.5 -120s-81 -66.667 -128 -92s-96.833 -45 -149.5 -59s-105.667 -21 -159 -21c-88 0 -169.833 16 -245.5 48
s-141.334 76 -197.001 132s-99.5 121.667 -131.5 197s-48 156.333 -48 243c0 85.333 16.333 165.333 49 240s77 139.834 133 195.501s121.333 99.667 196 132s154.334 48.5 239.001 48.5c76.667 0 149.5 -12.667 218.5 -38s129.167 -60.5 180.5 -105.5
s92.166 -98.5 122.499 -160.5s45.5 -129.667 45.5 -203c0 -47.333 -6 -91.833 -18 -133.5s-28.333 -80 -49 -115s-44.334 -66.333 -71.001 -94s-54.5 -51 -83.5 -70s-58.5 -33.667 -88.5 -44s-58 -15.5 -84 -15.5c-28.667 0 -53.667 8.66699 -75 26
s-33.666 41.666 -36.999 72.999c-12.667 -12 -26.5 -24 -41.5 -36s-31 -22.667 -48 -32s-34.667 -16.833 -53 -22.5s-37.166 -8.5 -56.499 -8.5c-36 0 -68.5 7 -97.5 21s-53.667 33 -74 57s-36 52.333 -47 85s-16.5 67.667 -16.5 105c0 54.667 8.83301 108.5 26.5 161.5
s42.834 100.5 75.501 142.5s72 75.833 118 101.5s97.667 38.5 155 38.5c36.667 0 70.834 -8.5 102.501 -25.5s56.167 -44.833 73.5 -83.5l21 78h141zM521.998 481.996c0 -37.333 8.33398 -66.665 25.001 -87.998s43.667 -32 81 -32c32 0 61 9 87 27s48.5 40.833 67.5 68.5
s33.667 58 44 91s15.5 64.833 15.5 95.5c0 18 -2 35 -6 51s-9.83301 30.167 -17.5 42.5s-17.334 22.166 -29.001 29.499s-25.5 11 -41.5 11c-36.667 0 -69 -8.16699 -97 -24.5s-51.5 -38.333 -70.5 -66s-33.5 -59.334 -43.5 -95.001s-15 -72.5 -15 -110.5z" />
    <glyph glyph-name="A" unicode="A" horiz-adv-x="1031" 
d="M511 1260c50.667 0 95.502 -5.5 134.502 -16.5s73.167 -25.667 102.5 -44s54.333 -39 75 -62s37.667 -46.5 51 -70.5c32 -56 51 -120 57 -192v-875h-160v531h-520v-531h-160v875c6 72 25 136 57 192c13.333 24 30.166 47.5 50.499 70.5s45.166 43.667 74.499 62
s63.5 33 102.5 44s84.167 16.5 135.5 16.5zM771.002 681l-0.00195312 194c0 28 -3.66699 52.667 -11 74s-17.166 40 -29.499 56s-26.333 29.333 -42 40s-31.5 19.667 -47.5 27c-38 16.667 -81.333 26 -130 28c-48.667 -2 -92 -11.333 -130 -28
c-16 -7.33301 -31.833 -16.333 -47.5 -27s-29.667 -24 -42 -40s-22.166 -34.667 -29.499 -56s-11 -46 -11 -74v-194h520z" />
    <glyph glyph-name="B" unicode="B" horiz-adv-x="993" 
d="M793 618c40.667 -32.667 73.001 -69.8301 97.001 -111.497s36 -90.834 36 -147.501c0 -49.333 -9.5 -95.833 -28.5 -139.5s-45 -81.834 -78 -114.501s-71.333 -58.334 -115 -77.001s-89.834 -28 -138.501 -28h-481v1240h481c50 0 96.667 -8.83301 140 -26.5
s81.333 -42 114 -73s58.334 -67.833 77.001 -110.5s28 -88.667 28 -138c0 -56 -11.833 -107.167 -35.5 -153.5s-55.834 -86.5 -96.501 -120.5zM567.001 150.004c27.333 0 53 5.83203 77 17.499s45 27.167 63 46.5s32.167 41.5 42.5 66.5s15.5 51.167 15.5 78.5
c0 26.667 -5 51.334 -15 74.001s-23.833 42.5 -41.5 59.5s-38.667 30.5 -63 40.5s-50.5 16 -78.5 18h-322v-401h322zM567.001 696.003c27.333 0 53 5 77 15s45 23.833 63 41.5s32.167 38.5 42.5 62.5s15.5 49.667 15.5 77s-5.33301 53 -16 77s-25 45 -43 63
s-39 32.167 -63 42.5s-49.667 15.5 -77 15.5h-321v-394h322z" />
    <glyph glyph-name="C" unicode="C" horiz-adv-x="1024" 
d="M934 397v-28c-6 -72 -25 -136 -57 -192c-13.333 -24 -30.333 -47.5 -51 -70.5s-45.667 -43.5 -75 -61.5s-63.5 -32.5 -102.5 -43.5s-83.833 -16.5 -134.5 -16.5c-51.333 0 -96.5 5.5 -135.5 16.5s-73.167 25.5 -102.5 43.5s-54.166 38.5 -74.499 61.5
s-37.166 46.5 -50.499 70.5c-32 56 -51 120 -57 192v505c6 72 25 136.333 57 193c13.333 24 30.166 47.5 50.499 70.5s45.166 43.667 74.499 62s63.5 33 102.5 44s84.167 16.5 135.5 16.5c50.667 0 95.5 -5.5 134.5 -16.5s73.167 -25.667 102.5 -44s54.333 -39 75 -62
s37.667 -46.5 51 -70.5c32 -56.667 51 -121 57 -193v-27h-160v27c0 28 -3.66699 52.833 -11 74.5s-17.166 40.5 -29.499 56.5s-26.333 29.333 -42 40s-31.5 19.667 -47.5 27c-38 16.667 -81.333 26 -130 28c-48.667 -2 -92 -11.333 -130 -28
c-16 -7.33301 -31.833 -16.333 -47.5 -27s-29.667 -24 -42 -40s-22.166 -34.833 -29.499 -56.5s-11 -46.5 -11 -74.5v-505c0 -29.333 3.66699 -55.166 11 -77.499s17.166 -41.666 29.499 -57.999s26.333 -30.166 42 -41.499s31.5 -20.666 47.5 -27.999
c38 -17.333 81.333 -27 130 -29c48.667 2 92 11.667 130 29c16 7.33301 31.833 16.666 47.5 27.999s29.667 25.166 42 41.499s22.166 35.666 29.499 57.999s11 48.166 11 77.499v28h160z" />
    <glyph glyph-name="D" unicode="D" horiz-adv-x="966" 
d="M96 0v1240h418c50.667 0 95.5 -5.5 134.5 -16.5s73.167 -25.5 102.5 -43.5s54.333 -38.5 75 -61.5s37.667 -46.5 51 -70.5c32 -56 51 -120 57 -192v-472c-6 -72 -25 -136 -57 -192c-13.333 -24 -30.333 -47.5 -51 -70.5s-45.667 -43.5 -75 -61.5
s-63.5 -32.5 -102.5 -43.5s-83.833 -16.5 -134.5 -16.5h-418zM256 1090v-939.992h258c48.667 2 92 11.667 130 29c16 7.33301 31.833 16.666 47.5 27.999s29.667 25.166 42 41.499s22.166 35.666 29.499 57.999s11 48.166 11 77.499v472
c0 29.333 -3.66699 55.166 -11 77.499s-17.166 41.666 -29.499 57.999s-26.333 30.166 -42 41.499s-31.5 20.666 -47.5 27.999c-38 17.333 -81.333 27 -130 29h-258z" />
    <glyph glyph-name="E" unicode="E" horiz-adv-x="939" 
d="M259 1090v-431h492v-150h-492v-359h661v-150h-821v1240h821v-150h-661z" />
    <glyph glyph-name="F" unicode="F" horiz-adv-x="927" 
d="M249 0h-160v1240h821v-150h-661v-431h492v-150h-492v-509z" />
    <glyph glyph-name="G" unicode="G" horiz-adv-x="1093" 
d="M824 847v27c0 28 -3.66699 52.667 -11 74s-17.166 40 -29.499 56s-26.333 29.333 -42 40s-31.5 19.667 -47.5 27c-38 16.667 -81.333 26 -130 28c-48.667 -2 -92 -11.333 -130 -28c-16 -7.33301 -31.833 -16.333 -47.5 -27s-29.667 -24 -42 -40
s-22.166 -34.667 -29.499 -56s-11 -46 -11 -74v-505c0 -29.333 3.66699 -55.166 11 -77.499s17.166 -41.666 29.499 -57.999s26.333 -30.166 42 -41.499s31.5 -20.666 47.5 -27.999c38 -17.333 81.333 -27 130 -29c48.667 2 92 11.667 130 29
c16 7.33301 31.833 16.666 47.5 27.999s29.667 25.166 42 41.499s22.166 35.666 29.499 57.999s11 48.166 11 77.499v161h-335v150h495v-311c-6 -72 -25 -136 -57 -192c-13.333 -24 -30.333 -47.5 -51 -70.5s-45.667 -43.5 -75 -61.5s-63.5 -32.5 -102.5 -43.5
s-83.833 -16.5 -134.5 -16.5c-51.333 0 -96.5 5.5 -135.5 16.5s-73.167 25.5 -102.5 43.5s-54.166 38.5 -74.499 61.5s-37.166 46.5 -50.499 70.5c-32 56 -51 120 -57 192v505c6 72 25 136.333 57 193c13.333 24 30.166 47.5 50.499 70.5s45.166 43.667 74.499 62
s63.5 33 102.5 44s84.167 16.5 135.5 16.5c50.667 0 95.5 -5.5 134.5 -16.5s73.167 -25.667 102.5 -44s54.333 -39 75 -62s37.667 -46.5 51 -70.5c32 -56.667 51 -121 57 -193v-27h-160z" />
    <glyph glyph-name="H" unicode="H" horiz-adv-x="1081" 
d="M994 1240v-1240h-160v498h-585v-498h-160v1240h160v-592h585v592h160z" />
    <glyph glyph-name="I" unicode="I" horiz-adv-x="458" 
d="M314 1240v-1240h-160v1240h160z" />
    <glyph glyph-name="J" unicode="J" horiz-adv-x="531" 
d="M430 370c-6 -72.667 -24.999 -137.001 -56.999 -193.001c-13.333 -24 -30.333 -47.5 -51 -70.5s-45.667 -43.5 -75 -61.5s-63.5 -32.5 -102.5 -43.5s-83.833 -16.5 -134.5 -16.5v160c48.667 2 92 11.333 130 28c16 6.66699 31.833 15.5 47.5 26.5s29.667 24.333 42 40
s22.166 34.334 29.499 56.001s11 46.5 11 74.5v870h160v-870z" />
    <glyph glyph-name="K" unicode="K" horiz-adv-x="1008" 
d="M300 625l625 -625h-226l-448 448v-448h-162v1250h162v-448l448 448h226z" />
    <glyph glyph-name="L" unicode="L" horiz-adv-x="820" 
d="M814 0h-728v1261h160v-1111h568v-150z" />
    <glyph glyph-name="M" unicode="M" horiz-adv-x="1216" 
d="M226 0h-160v1240h160l380 -821l192 412l189 409h160v-1240h-160v858l-292 -630h-177l-292 631v-859z" />
    <glyph glyph-name="N" unicode="N" horiz-adv-x="1189" 
d="M1102 1240v-1240h-208l-648 1029v-1029h-159v1240h232l623 -1030v1030h160z" />
    <glyph glyph-name="O" unicode="O" horiz-adv-x="1028" 
d="M517 1260c50.667 0 95.5 -5.5 134.5 -16.5s73.167 -25.667 102.5 -44s54.333 -39 75 -62s37.667 -46.5 51 -70.5c32 -56 51 -120 57 -192v-505c-6 -72.667 -25 -137 -57 -193c-13.333 -24 -30.333 -47.5 -51 -70.5s-45.667 -43.5 -75 -61.5s-63.5 -32.5 -102.5 -43.5
s-83.833 -16.5 -134.5 -16.5c-51.333 0 -96.5 5.5 -135.5 16.5s-73.167 25.5 -102.5 43.5s-54.166 38.5 -74.499 61.5s-37.166 46.5 -50.499 70.5c-32 56 -51 120.333 -57 193v505c6 72 25 136 57 192c13.333 24 30.166 47.5 50.499 70.5s45.166 43.667 74.499 62
s63.5 33 102.5 44s84.167 16.5 135.5 16.5zM777 875c0 28 -3.66699 52.667 -11 74s-17.166 40 -29.499 56s-26.333 29.333 -42 40s-31.5 19.667 -47.5 27c-38 16.667 -81.333 26 -130 28c-48.667 -2 -92 -11.333 -130 -28c-16 -7.33301 -31.833 -16.333 -47.5 -27
s-29.667 -24 -42 -40s-22.166 -34.667 -29.499 -56s-11 -46 -11 -74v-505c0 -29.333 3.66699 -55.333 11 -78s17.166 -42.167 29.499 -58.5s26.333 -30.166 42 -41.499s31.5 -20.666 47.5 -27.999c38 -17.333 81.333 -27 130 -29c48.667 2 92 11.667 130 29
c16 7.33301 31.833 16.666 47.5 27.999s29.667 25.166 42 41.499s22.166 35.833 29.499 58.5s11 48.667 11 78v505z" />
    <glyph glyph-name="P" unicode="P" horiz-adv-x="959" 
d="M569 1240c50 0 96.667 -8.83496 140 -26.502s81.333 -42.167 114 -73.5s58.334 -68.166 77.001 -110.499s28 -88.5 28 -138.5c0 -49.333 -9.33301 -95.166 -28 -137.499s-44.334 -79 -77.001 -110s-70.667 -55.333 -114 -73s-90 -26.5 -140 -26.5h-321v-544h-160v1240
h481zM569 693.998c27.333 0 53 5.16699 77 15.5s45 24.333 63 42s32.333 38.5 43 62.5s16 49.667 16 77c0 28 -5.33301 54 -16 78s-25 45 -43 63s-39 32.167 -63 42.5s-49.667 15.5 -77 15.5h-321v-396h321z" />
    <glyph glyph-name="Q" unicode="Q" horiz-adv-x="1112" 
d="M922 -11l-74.999 97.998c-31.333 -29.333 -70.666 -53.666 -117.999 -72.999s-105.333 -29 -174 -29c-51.333 0 -96.5 5.5 -135.5 16.5s-73.167 25.5 -102.5 43.5s-54.166 38.5 -74.499 61.5s-37.166 46.5 -50.499 70.5c-32 56 -51 120.333 -57 193v505
c6 72 25 136 57 192c13.333 24 30.166 47.5 50.499 70.5s45.166 43.667 74.499 62s63.5 33 102.5 44s84.167 16.5 135.5 16.5c50.667 0 95.5 -5.5 134.5 -16.5s73.167 -25.667 102.5 -44s54.333 -39 75 -62s37.667 -46.5 51 -70.5c32 -56 51.333 -120 58 -192v-505
c-0.666992 -13.333 -2.33398 -27.666 -5.00098 -42.999c-2.66699 -13.333 -6.33398 -28.5 -11.001 -45.5s-10.667 -35.167 -18 -54.5l107 -141zM555.001 134.998c23.333 0.666992 46.666 3.66504 69.999 8.99805c20 4.66699 41.5 12 64.5 22s44.167 24.333 63.5 43l-143 184
l127 98l17 -22l23.5 -31l37.5 -48v485c0 28 -3.66699 52.667 -11 74s-17.166 40 -29.499 56s-26.333 29.333 -42 40s-31.5 19.667 -47.5 27c-38 16.667 -81.333 26 -130 28c-48.667 -2 -92 -11.333 -130 -28c-16 -7.33301 -31.833 -16.333 -47.5 -27s-29.5 -24 -41.5 -40
s-21.667 -34.667 -29 -56s-11 -46 -11 -74v-505c0 -29.333 3.66699 -55.333 11 -78s17 -42.167 29 -58.5s25.833 -30.166 41.5 -41.499s31.5 -20.666 47.5 -27.999c38 -17.333 81.333 -27 130 -29z" />
    <glyph glyph-name="R" unicode="R" horiz-adv-x="1025" 
d="M843 643c14 -10.667 27.334 -23.666 40.001 -38.999s23.834 -33.5 33.501 -54.5s17.5 -45.5 23.5 -73.5s9 -59.667 9 -95v-381h-161v381c-1.33301 12.667 -4.83301 28.167 -10.5 46.5s-15.334 36.166 -29.001 53.499s-31.834 32.166 -54.501 44.499
s-51.667 18.5 -87 18.5h-338v-544h-161v1240h482c49.333 0 95.833 -8.83301 139.5 -26.5s81.667 -42.167 114 -73.5s58 -68.166 77 -110.499s28.5 -88.5 28.5 -138.5s-9.5 -96 -28.5 -138s-44.833 -78.667 -77.5 -110zM590.001 694.001c27.333 0 53 5.16699 77 15.5
s45 24.333 63 42s32.167 38.5 42.5 62.5s15.5 49.667 15.5 77c0 28 -5.16699 54 -15.5 78s-24.5 45 -42.5 63s-39 32.167 -63 42.5s-49.667 15.5 -77 15.5h-321v-396h321z" />
    <glyph glyph-name="S" unicode="S" horiz-adv-x="958" 
d="M793 977l-68 44c-16.667 10.667 -35.334 20.834 -56.001 30.501s-41.5 18.167 -62.5 25.5s-40.833 13 -59.5 17s-34 6 -46 6c-25.333 0 -49.333 -3.83301 -72 -11.5s-42.667 -18.5 -60 -32.5s-31.166 -30.667 -41.499 -50s-15.5 -40.666 -15.5 -63.999
c0 -38.667 8.16699 -71.5 24.5 -98.5s37.833 -50.833 64.5 -71.5s57 -39 91 -55l104.5 -49c35.667 -16.667 70.5 -34.667 104.5 -54s64.333 -42.5 91 -69.5s48.167 -59 64.5 -96s24.5 -81.167 24.5 -132.5v-9c-0.666992 -55.333 -11 -103.333 -31 -144
s-47.167 -74.167 -81.5 -100.5s-74.5 -45.833 -120.5 -58.5s-95 -19 -147 -19c-73.333 0 -135.833 8.16699 -187.5 24.5s-94.5 34.5 -128.5 54.5c-39.333 22.667 -72 49 -98 79l106 104c12.667 -12.667 29.667 -25.667 51 -39s45.5 -25.333 72.5 -36s56 -19.334 87 -26.001
s62.833 -10 95.5 -10c33.333 0 63.5 4.16699 90.5 12.5s50 20.166 69 35.499s33.5 33.333 43.5 54s15 43.667 15 69c0 36.667 -8.16699 67.334 -24.5 92.001s-37.833 46 -64.5 64s-57 34 -91 48l-104 44c-35.333 15.333 -70 33 -104 53s-64.333 44.667 -91 74
s-48.167 65 -64.5 107s-24.5 93 -24.5 153c0 58 10.333 107.167 31 147.5s47.667 73.166 81 98.499s71 43.666 113 54.999s84.333 17 127 17c44 0 84.167 -5 120.5 -15s67.833 -20.667 94.5 -32c31.333 -13.333 59.333 -28.666 84 -45.999l82 -56z" />
    <glyph glyph-name="T" unicode="T" horiz-adv-x="897" 
d="M863 1090h-339v-1090h-160v1090h-333v150h832v-150z" />
    <glyph glyph-name="U" unicode="U" horiz-adv-x="1101" 
d="M971 1240l0.00195312 -865.002c-6 -72.667 -25 -137 -57 -193c-13.333 -24 -30.333 -47.5 -51 -70.5s-45.667 -43.5 -75 -61.5s-63.5 -32.5 -102.5 -43.5s-83.833 -16.5 -134.5 -16.5c-64.667 0 -119.834 8.66699 -165.501 26s-84.167 39.333 -115.5 66
s-56.166 55.834 -74.499 87.501s-32.333 61.834 -42 90.501s-16 53.5 -19 74.5s-4.5 34.5 -4.5 40.5v865h161v-865c0 -28 3.66699 -52.833 11 -74.5s17.166 -40.334 29.499 -56.001s26.333 -29 42 -40s31.5 -19.833 47.5 -26.5c38 -16.667 81.333 -26 130 -28
c48.667 2 92 11.333 130 28c16 6.66699 31.833 15.5 47.5 26.5s29.667 24.333 42 40s22.166 34.334 29.499 56.001s11 46.5 11 74.5v865h160z" />
    <glyph glyph-name="V" unicode="V" horiz-adv-x="1093" 
d="M1021 1240l-88.5 -279.5l-96.5 -305.5l-102 -323.5l-105 -331.5h-168l-391 1240h168l307 -1015l308 1015h168z" />
    <glyph glyph-name="W" unicode="W" horiz-adv-x="1520" 
d="M372 0l-87 353.5l-82 336.5l-73 301.5l-60 248.5h165l224 -1015l225 1015h165l225 -1015l225 1015h165l-302 -1240h-176l-219 901l-220 -901h-175z" />
    <glyph glyph-name="X" unicode="X" horiz-adv-x="1289" 
d="M740 624l482 -624h-203l-186.5 242.5l-193.5 250.5l-193.5 -250.5l-186.5 -242.5h-203l482 624l-482 626h202l381 -495l381 495h202z" />
    <glyph glyph-name="Y" unicode="Y" horiz-adv-x="1062" 
d="M1008 1250l-401 -820v-430h-160v430l-404 820h203l280 -657l281 657h201z" />
    <glyph glyph-name="Z" unicode="Z" horiz-adv-x="1066" 
d="M971 1089l-709 -939h736v-150h-936v150l716 939h-716v150h909v-150z" />
    <glyph glyph-name="bracketleft" unicode="[" horiz-adv-x="685" 
d="M597 1561v-150h-288v-1539h288v-150h-448v1839h448z" />
    <glyph glyph-name="backslash" unicode="\" horiz-adv-x="1016" 
d="M737 -349l-647 1849h160l647 -1849h-160z" />
    <glyph glyph-name="bracketright" unicode="]" horiz-adv-x="611" 
d="M517 1561v-1839h-448v150h288v1539h-288v150h448z" />
    <glyph glyph-name="asciicircum" unicode="^" horiz-adv-x="1088" 
d="M107 419l290 842h285l292 -842h-176l-257 721l-260 -721h-174z" />
    <glyph glyph-name="underscore" unicode="_" horiz-adv-x="1120" 
d="M1033 -38v-160h-932v160h932z" />
    <glyph glyph-name="grave" unicode="`" horiz-adv-x="387" 
d="M75 1201h139l127 -315h-140z" />
    <glyph glyph-name="a" unicode="a" horiz-adv-x="954" 
d="M872 0h-160v65c-30.667 -22 -67.167 -40 -109.5 -54s-92.5 -21 -150.5 -21c-51.333 0 -96.5 5.5 -135.5 16.5s-73.167 25.5 -102.5 43.5s-54.166 38.5 -74.499 61.5s-37.166 46.5 -50.499 70.5c-32 56 -51 120.333 -57 193v180c6 72 25 136 57 192
c13.333 24 30.166 47.5 50.499 70.5s45.166 43.667 74.499 62s63.5 33 102.5 44s84.167 16.5 135.5 16.5c58 0 108.167 -7 150.5 -21s78.833 -32 109.5 -54v65h160v-930zM452 140c48.667 2 92 11.667 130 29c16 7.33301 31.833 16.666 47.5 27.999s29.667 25.166 42 41.499
s22.166 35.833 29.499 58.5s11 48.667 11 78v180c0 28 -3.66699 52.667 -11 74s-17.166 40 -29.499 56s-26.333 29.333 -42 40s-31.5 19.667 -47.5 27c-38 16.667 -81.333 26 -130 28c-48.667 -2 -92 -11.333 -130 -28c-16 -7.33301 -31.833 -16.333 -47.5 -27
s-29.667 -24 -42 -40s-22.166 -34.667 -29.499 -56s-11 -46 -11 -74v-180c0 -29.333 3.66699 -55.333 11 -78s17.166 -42.167 29.499 -58.5s26.333 -30.166 42 -41.499s31.5 -20.666 47.5 -27.999c38 -17.333 81.333 -27 130 -29z" />
    <glyph glyph-name="b" unicode="b" horiz-adv-x="959" 
d="M68 1280h160v-415c30.667 22 67.167 40 109.5 54s92.5 21 150.5 21c50.667 0 95.5 -5.5 134.5 -16.5s73.167 -25.667 102.5 -44s54.333 -39 75 -62s37.667 -46.5 51 -70.5c32 -56 51 -120 57 -192v-180c-6 -72.667 -25 -137 -57 -193
c-13.333 -24 -30.333 -47.5 -51 -70.5s-45.667 -43.5 -75 -61.5s-63.5 -32.5 -102.5 -43.5s-83.833 -16.5 -134.5 -16.5c-58 0 -108.167 7 -150.5 21s-78.833 32 -109.5 54v-65h-160v1280zM228 375c0 -29.333 3.66699 -55.333 11 -78s17.166 -42.167 29.499 -58.5
s26.333 -30.166 42 -41.499s31.5 -20.666 47.5 -27.999c38 -17.333 81.333 -27 130 -29c48 2 91 11.667 129 29c16 7.33301 31.833 16.666 47.5 27.999s29.667 25.166 42 41.499s22.166 35.833 29.499 58.5s11 48.667 11 78v180c0 28 -3.66699 52.667 -11 74
s-17.166 40 -29.499 56s-26.333 29.333 -42 40s-31.5 19.667 -47.5 27c-38 16.667 -81 26 -129 28c-48.667 -2 -92 -11.333 -130 -28c-16 -7.33301 -31.833 -16.333 -47.5 -27s-29.667 -24 -42 -40s-22.166 -34.667 -29.499 -56s-11 -46 -11 -74v-180z" />
    <glyph glyph-name="c" unicode="c" horiz-adv-x="935" 
d="M881 340c-2 -15.333 -6.16797 -34.833 -12.501 -58.5s-15.666 -48.334 -27.999 -74.001s-28.5 -51.5 -48.5 -77.5s-45 -49.333 -75 -70s-65.667 -37.5 -107 -50.5s-89.666 -19.5 -144.999 -19.5c-51.333 0 -96.5 5.5 -135.5 16.5s-73.167 25.5 -102.5 43.5
s-54.166 38.5 -74.499 61.5s-37.166 46.5 -50.499 70.5c-32 56 -51 120.333 -57 193v180c6 72 25 136 57 192c13.333 24 30.166 47.5 50.499 70.5s45.166 43.667 74.499 62s63.5 33 102.5 44s84.167 16.5 135.5 16.5c55.333 0 103.666 -6.5 144.999 -19.5
s77 -29.833 107 -50.5s55 -44 75 -70s36.167 -52 48.5 -78s21.5 -50.667 27.5 -74s10.333 -43 13 -59h-158c-3.33301 24 -9.5 45 -18.5 63s-20 33.667 -33 47s-27 24.666 -42 33.999s-30.167 17 -45.5 23c-36 14 -75.667 22 -119 24c-48.667 -2 -92 -11.333 -130 -28
c-16 -7.33301 -31.833 -16.333 -47.5 -27s-29.667 -24 -42 -40s-22.166 -34.667 -29.499 -56s-11 -46 -11 -74v-180c0 -29.333 3.66699 -55.333 11 -78s17.166 -42.167 29.499 -58.5s26.333 -30.166 42 -41.499s31.5 -20.666 47.5 -27.999c38 -17.333 81.333 -27 130 -29
c43.333 2 83.333 10.333 120 25c15.333 6 30.5 13.833 45.5 23.5s28.833 21.5 41.5 35.5s23.5 30.5 32.5 49.5s15.167 41.167 18.5 66.5h158z" />
    <glyph glyph-name="d" unicode="d" horiz-adv-x="947" 
d="M888 0h-160v65c-30.667 -22 -67.167 -40 -109.5 -54s-92.5 -21 -150.5 -21c-51.333 0 -96.5 5.5 -135.5 16.5s-73.167 25.5 -102.5 43.5s-54.166 38.5 -74.499 61.5s-37.166 46.5 -50.499 70.5c-32 56 -51 120.333 -57 193v180c6 72 25 136 57 192
c13.333 24 30.166 47.5 50.499 70.5s45.166 43.667 74.499 62s63.5 33 102.5 44s84.167 16.5 135.5 16.5c58 0 108.167 -7 150.5 -21s78.833 -32 109.5 -54v415h160v-1280zM728 375v180c0 28 -3.66699 52.667 -11 74s-17.166 40 -29.499 56s-26.333 29.333 -42 40
s-31.5 19.667 -47.5 27c-38 16.667 -81.333 26 -130 28c-48.667 -2 -92 -11.333 -130 -28c-16 -7.33301 -31.833 -16.333 -47.5 -27s-29.5 -24 -41.5 -40s-21.667 -34.667 -29 -56s-11 -46 -11 -74v-180c0 -29.333 3.66699 -55.333 11 -78s17 -42.167 29 -58.5
s25.833 -30.166 41.5 -41.499s31.5 -20.666 47.5 -27.999c38 -17.333 81.333 -27 130 -29c48.667 2 92 11.667 130 29c16 7.33301 31.833 16.666 47.5 27.999s29.667 25.166 42 41.499s22.166 35.833 29.499 58.5s11 48.667 11 78z" />
    <glyph glyph-name="e" unicode="e" horiz-adv-x="927" 
d="M203 439l0.000976562 -64.001c0 -29.333 3.66699 -55.333 11 -78s17.166 -42.167 29.499 -58.5s26.333 -30.166 42 -41.499s31.5 -20.666 47.5 -27.999c38 -17.333 81.333 -27 130 -29c43.333 2 83.333 10.333 120 25c15.333 6 30.5 13.833 45.5 23.5
s28.833 21.5 41.5 35.5s23.5 30.5 32.5 49.5s15.167 41.167 18.5 66.5h159c-2.66699 -15.333 -7 -34.833 -13 -58.5s-15.167 -48.334 -27.5 -74.001s-28.5 -51.5 -48.5 -77.5s-45 -49.333 -75 -70s-65.833 -37.5 -107.5 -50.5s-90.167 -19.5 -145.5 -19.5
c-50.667 0 -95.5 5.5 -134.5 16.5s-73.167 25.5 -102.5 43.5s-54.166 38.5 -74.499 61.5s-37.166 46.5 -50.499 70.5c-32 56 -51 120.333 -57 193v180c6 72 25 136 57 192c13.333 24 30.166 47.5 50.499 70.5s45.166 43.667 74.499 62s63.5 33 102.5 44
s83.833 16.5 134.5 16.5c55.333 0 103.833 -6.5 145.5 -19.5s77.5 -29.833 107.5 -50.5s55 -44 75 -70s36.167 -52 48.5 -78s21.5 -50.667 27.5 -74s10.333 -43 13 -59v-150h-677zM463.001 779.999c-43.333 -2 -83 -10 -119 -24c-15.333 -6 -30.5 -13.667 -45.5 -23
s-28.833 -20.666 -41.5 -33.999s-23.667 -29 -33 -47s-15.333 -39 -18 -63h515c-3.33301 24 -9.5 45 -18.5 63s-19.833 33.667 -32.5 47s-26.5 24.666 -41.5 33.999s-30.167 17 -45.5 23c-36 14 -76 22 -120 24z" />
    <glyph glyph-name="f" unicode="f" horiz-adv-x="604" 
d="M629 1120c-44 -2 -83.999 -10.001 -119.999 -24.001c-15.333 -6 -30.5 -13.5 -45.5 -22.5s-28.833 -20.167 -41.5 -33.5s-23.667 -29 -33 -47s-15.333 -39 -18 -63h162v-150h-164v-780h-160v780h-165v150h168c2.66699 16 7 35.667 13 59s15.333 48 28 74
s29 51.833 49 77.5s45 48.834 75 69.501s65.667 37.5 107 50.5s89.666 19.5 144.999 19.5v-160v0z" />
    <glyph glyph-name="g" unicode="g" horiz-adv-x="989" 
d="M912 931l-0.00195312 -905.997c-6 -72.667 -25 -137 -57 -193c-13.333 -24 -30.333 -47.5 -51 -70.5s-45.667 -43.5 -75 -61.5s-63.5 -32.5 -102.5 -43.5s-83.833 -16.5 -134.5 -16.5c-68 0 -125.667 9.66699 -173 29s-86.666 43.333 -117.999 72
s-55.666 59.834 -72.999 93.501s-30 64.5 -38 92.5h161c15.333 -34 36.333 -60.167 63 -78.5s53.334 -31.833 80.001 -40.5c31.333 -10 64 -15.667 98 -17c48.667 2 92 11.667 130 29c16 7.33301 31.833 16.666 47.5 27.999s29.667 25.166 42 41.499
s22.166 35.666 29.499 57.999s11 48.166 11 77.499v40c-30.667 -21.333 -67.167 -39.166 -109.5 -53.499s-92.5 -21.5 -150.5 -21.5c-51.333 0 -96.5 5.5 -135.5 16.5s-73.167 25.5 -102.5 43.5s-54.166 38.5 -74.499 61.5s-37.166 46.5 -50.499 70.5
c-32 56 -51 120.333 -57 193v180c6 72 25 136 57 192c13.333 24 30.166 47.5 50.499 70.5s45.166 43.667 74.499 62s63.5 33 102.5 44s84.167 16.5 135.5 16.5c58 0 108.167 -6.83301 150.5 -20.5s78.833 -31.834 109.5 -54.501v66h160zM751.998 555.003
c0 28 -3.66699 52.833 -11 74.5s-17.166 40.5 -29.499 56.5s-26.333 29.333 -42 40s-31.5 19.667 -47.5 27c-38 16.667 -81.333 26 -130 28c-48.667 -2 -92 -11.333 -130 -28c-16 -7.33301 -31.833 -16.333 -47.5 -27s-29.667 -24 -42 -40s-22.166 -34.833 -29.499 -56.5
s-11 -46.5 -11 -74.5v-180c0 -29.333 3.66699 -55.333 11 -78s17.166 -42.167 29.499 -58.5s26.333 -30.166 42 -41.499s31.5 -20.666 47.5 -27.999c38 -17.333 81.333 -27 130 -29c48.667 2 92 11.667 130 29c16 7.33301 31.833 16.666 47.5 27.999
s29.667 25.166 42 41.499s22.166 35.833 29.499 58.5s11 48.667 11 78v180z" />
    <glyph glyph-name="h" unicode="h" horiz-adv-x="997" 
d="M497 940c50.667 0 95.498 -5.5 134.498 -16.5s73.167 -25.667 102.5 -44s54.333 -39 75 -62s37.667 -46.5 51 -70.5c32 -56 51 -120 57 -192v-555h-160v555c0 28 -3.66699 52.667 -11 74s-17.166 39.833 -29.499 55.5s-26.333 28.834 -42 39.501s-31.5 19.667 -47.5 27
c-38 16.667 -81.333 26 -130 28c-48.667 -2 -92 -11.333 -130 -28c-16 -7.33301 -31.833 -16.333 -47.5 -27s-29.667 -23.834 -42 -39.501s-22.166 -34.167 -29.499 -55.5s-11 -46 -11 -74v-555h-160v1280h160v-416c30 22 66.167 40.167 108.5 54.5s92.833 21.5 151.5 21.5z
" />
    <glyph glyph-name="i" unicode="i" horiz-adv-x="366" 
d="M182 1084c-14.667 0 -28.5 2.83301 -41.5 8.5s-24.5 13.334 -34.5 23.001s-17.833 21 -23.5 34s-8.5 26.833 -8.5 41.5c0 15.333 2.83301 29.5 8.5 42.5s13.5 24.333 23.5 34s21.5 17.334 34.5 23.001s26.833 8.5 41.5 8.5s28.667 -2.83301 42 -8.5
s25 -13.334 35 -23.001s17.833 -21 23.5 -34s8.5 -27.167 8.5 -42.5c0 -14.667 -2.83301 -28.5 -8.5 -41.5s-13.5 -24.333 -23.5 -34s-21.667 -17.334 -35 -23.001s-27.333 -8.5 -42 -8.5zM262 930v-930h-160v930h160z" />
    <glyph glyph-name="j" unicode="j" horiz-adv-x="531" 
d="M368 1082c-15.333 0 -29.5 2.83301 -42.5 8.5s-24.167 13.334 -33.5 23.001s-16.833 21 -22.5 34s-8.5 26.833 -8.5 41.5c0 15.333 2.83301 29.5 8.5 42.5s13.167 24.333 22.5 34s20.5 17.334 33.5 23.001s27.167 8.5 42.5 8.5c14.667 0 28.667 -2.83301 42 -8.5
s24.833 -13.334 34.5 -23.001s17.334 -21 23.001 -34s8.5 -27.167 8.5 -42.5c0 -14.667 -2.83301 -28.5 -8.5 -41.5s-13.334 -24.333 -23.001 -34s-21.167 -17.334 -34.5 -23.001s-27.333 -8.5 -42 -8.5zM455 25c-6 -72.667 -24.999 -137.001 -56.999 -193.001
c-13.333 -24 -30.333 -47.5 -51 -70.5s-45.667 -43.5 -75 -61.5s-63.5 -32.5 -102.5 -43.5s-83.833 -16.5 -134.5 -16.5v160c48.667 2 92 11.333 130 28c16 6.66699 31.833 15.5 47.5 26.5s29.667 24.333 42 40s22.166 34.334 29.499 56.001s11 46.5 11 74.5v905h160v-905z
" />
    <glyph glyph-name="k" unicode="k" horiz-adv-x="842" 
d="M287 492l533 -492h-226l-356 315v-315h-162v1280h162v-611l356 271h226z" />
    <glyph glyph-name="l" unicode="l" horiz-adv-x="369" 
d="M266 1280v-1280h-160v1280h160z" />
    <glyph glyph-name="m" unicode="m" horiz-adv-x="1371" 
d="M1256 0l-159.999 -0.000976562v555c0 28 -2.33301 52.667 -7 74s-10.834 40 -18.501 56s-16.334 29.333 -26.001 40s-19.5 19.667 -29.5 27c-24 16.667 -51 26 -81 28c-28.667 -2 -54 -11.333 -76 -28c-9.33301 -7.33301 -18.5 -16.333 -27.5 -27s-17 -24 -24 -40
s-12.667 -34.667 -17 -56s-6.5 -46 -6.5 -74v-555h-160v555c0 28 -2.16699 52.667 -6.5 74s-10 40 -17 56s-15.167 29.333 -24.5 40s-18.666 19.667 -27.999 27c-22 16.667 -47 26 -75 28c-30.667 -2 -57.667 -11.333 -81 -28c-10 -7.33301 -20 -16.333 -30 -27
s-18.667 -24 -26 -40s-13.333 -34.667 -18 -56s-7 -46 -7 -74v-555h-160v930h160v-65l22.5 24c8.33301 8.66699 18.666 16.834 30.999 24.501s27.166 14 44.499 19s38 7.5 62 7.5c56.667 0 103.834 -11.333 141.501 -34s68.167 -50.334 91.5 -83.001
c22.667 32.667 52.834 60.334 90.501 83.001s85.167 34 142.5 34c48 0 91.667 -8.5 131 -25.5s73 -41.833 101 -74.5s49.667 -73 65 -121s23 -102.667 23 -164v-555z" />
    <glyph glyph-name="n" unicode="n" horiz-adv-x="993" 
d="M497 940c50.667 0 95.498 -5.5 134.498 -16.5s73.167 -25.667 102.5 -44s54.333 -39 75 -62s37.667 -46.5 51 -70.5c32 -56 51 -120 57 -192v-555h-160v555c0 28 -3.66699 52.667 -11 74s-17.166 39.833 -29.499 55.5s-26.333 28.834 -42 39.501s-31.5 19.667 -47.5 27
c-38 16.667 -81.333 26 -130 28c-48.667 -2 -92 -11.333 -130 -28c-16 -7.33301 -31.833 -16.333 -47.5 -27s-29.667 -23.834 -42 -39.501s-22.166 -34.167 -29.499 -55.5s-11 -46 -11 -74v-555h-160v930h160v-66c30 22 66.167 40.167 108.5 54.5s92.833 21.5 151.5 21.5z
" />
    <glyph glyph-name="o" unicode="o" horiz-adv-x="927" 
d="M464 940c50.667 0 95.5 -5.5 134.5 -16.5s73.167 -25.667 102.5 -44s54.166 -39 74.499 -62s37.166 -46.5 50.499 -70.5c32 -56 51 -120 57 -192v-180c-6 -72.667 -25 -137 -57 -193c-13.333 -24 -30.166 -47.5 -50.499 -70.5s-45.166 -43.5 -74.499 -61.5
s-63.5 -32.5 -102.5 -43.5s-83.833 -16.5 -134.5 -16.5c-51.333 0 -96.5 5.5 -135.5 16.5s-73.167 25.5 -102.5 43.5s-54.166 38.5 -74.499 61.5s-37.166 46.5 -50.499 70.5c-32 56 -51 120.333 -57 193v180c6 72 25 136 57 192c13.333 24 30.166 47.5 50.499 70.5
s45.166 43.667 74.499 62s63.5 33 102.5 44s84.167 16.5 135.5 16.5zM724 555c0 28 -3.66699 52.667 -11 74s-17.166 40 -29.499 56s-26.333 29.333 -42 40s-31.5 19.667 -47.5 27c-38 16.667 -81.333 26 -130 28c-49.333 -2 -93 -11.333 -131 -28
c-16 -7.33301 -31.833 -16.333 -47.5 -27s-29.667 -24 -42 -40s-22.166 -34.667 -29.499 -56s-11 -46 -11 -74v-180c0 -29.333 3.66699 -55.333 11 -78s17.166 -42.167 29.499 -58.5s26.333 -30.166 42 -41.499s31.5 -20.666 47.5 -27.999c38 -17.333 81.667 -27 131 -29
c48.667 2 92 11.667 130 29c16 7.33301 31.833 16.666 47.5 27.999s29.667 25.166 42 41.499s22.166 35.833 29.499 58.5s11 48.667 11 78v180z" />
    <glyph glyph-name="p" unicode="p" horiz-adv-x="970" 
d="M71 930h160v-65c30.667 22 67.167 40 109.5 54s92.5 21 150.5 21c50.667 0 95.5 -5.5 134.5 -16.5s73.167 -25.667 102.5 -44s54.333 -39 75 -62s37.667 -46.5 51 -70.5c32 -56 51 -120 57 -192v-180c-6 -72.667 -25 -137 -57 -193c-13.333 -24 -30.333 -47.5 -51 -70.5
s-45.667 -43.5 -75 -61.5s-63.5 -32.5 -102.5 -43.5s-83.833 -16.5 -134.5 -16.5c-58 0 -108.167 7 -150.5 21s-78.833 32 -109.5 54v-425h-160v1290zM231 555v-180c0 -28 3.66699 -52.833 11 -74.5s17.166 -40.334 29.499 -56.001s26.333 -29 42 -40
s31.5 -19.833 47.5 -26.5c38 -16.667 81.333 -26 130 -28c48 2 91 11.333 129 28c16 6.66699 31.833 15.5 47.5 26.5s29.667 24.333 42 40s22.166 34.334 29.499 56.001s11 46.5 11 74.5v180c0 29.333 -3.66699 55.166 -11 77.499s-17.166 41.833 -29.499 58.5
s-26.333 30.667 -42 42s-31.5 20.666 -47.5 27.999c-38 17.333 -81 27 -129 29c-48.667 -2 -92 -11.667 -130 -29c-16 -7.33301 -31.833 -16.666 -47.5 -27.999s-29.667 -25.333 -42 -42s-22.166 -36.167 -29.499 -58.5s-11 -48.166 -11 -77.499z" />
    <glyph glyph-name="q" unicode="q" horiz-adv-x="985" 
d="M912 -360h-160v425c-30.667 -22 -67.167 -40 -109.5 -54s-92.5 -21 -150.5 -21c-51.333 0 -96.5 5.5 -135.5 16.5s-73.167 25.5 -102.5 43.5s-54.166 38.5 -74.499 61.5s-37.166 46.5 -50.499 70.5c-32 56 -51 120.333 -57 193v180c6 72 25 136 57 192
c13.333 24 30.166 47.5 50.499 70.5s45.166 43.667 74.499 62s63.5 33 102.5 44s84.167 16.5 135.5 16.5c58 0 108.167 -7 150.5 -21s78.833 -32 109.5 -54v65h160v-1290zM752 555c0 29.333 -3.66699 55.166 -11 77.499s-17.166 41.833 -29.499 58.5s-26.333 30.667 -42 42
s-31.5 20.666 -47.5 27.999c-38 17.333 -81.333 27 -130 29c-48.667 -2 -92 -11.667 -130 -29c-16 -7.33301 -31.833 -16.666 -47.5 -27.999s-29.5 -25.333 -41.5 -42s-21.667 -36.167 -29 -58.5s-11 -48.166 -11 -77.499v-180c0 -28 3.66699 -52.833 11 -74.5
s17 -40.334 29 -56.001s25.833 -29 41.5 -40s31.5 -19.833 47.5 -26.5c38 -16.667 81.333 -26 130 -28c48.667 2 92 11.333 130 28c16 6.66699 31.833 15.5 47.5 26.5s29.667 24.333 42 40s22.166 34.334 29.499 56.001s11 46.5 11 74.5v180z" />
    <glyph glyph-name="r" unicode="r" horiz-adv-x="508" 
d="M68 0l-0.000976562 929.998h160v-65c30.667 22 67.167 40 109.5 54s92.5 21 150.5 21v-150c-48.667 -2 -92 -11.667 -130 -29c-16 -7.33301 -31.833 -16.666 -47.5 -27.999s-29.667 -25.333 -42 -42s-22.166 -36.167 -29.499 -58.5s-11 -48.166 -11 -77.499v-555h-160z
" />
    <glyph glyph-name="s" unicode="s" horiz-adv-x="675" 
d="M555 703c-54 34 -99.166 58.334 -135.499 73.001s-62.833 22 -79.5 22c-15.333 0 -30.333 -2.5 -45 -7.5s-27.5 -11.833 -38.5 -20.5s-19.833 -19.334 -26.5 -32.001s-10 -26.334 -10 -41.001c0 -22.667 5 -42.667 15 -60s23 -32.666 39 -45.999s34.333 -25.5 55 -36.5
s42 -21.5 64 -31.5c26.667 -12 54 -25.833 82 -41.5s53.333 -34.5 76 -56.5s41.167 -48 55.5 -78s21.5 -65.333 21.5 -106v-5c0 -42.667 -7.66699 -79.5 -23 -110.5s-36 -56.5 -62 -76.5s-56.5 -34.833 -91.5 -44.5s-72.167 -14.5 -111.5 -14.5c-46 0 -87 5.33301 -123 16
s-67.167 23 -93.5 37s-47.666 28 -63.999 42s-27.833 24.667 -34.5 32l96 94c12 -10 26.5 -20 43.5 -30s35.167 -18.833 54.5 -26.5s39.166 -14 59.499 -19s40.5 -7.5 60.5 -7.5c44 0 78.667 10 104 30s38 46 38 78c0 19.333 -4.5 36.666 -13.5 51.999
s-20.833 29.333 -35.5 42s-31.334 23.834 -50.001 33.501s-38 18.834 -58 27.501c-28 12 -56.667 25.667 -86 41s-56 34.5 -80 57.5s-43.833 51.167 -59.5 84.5s-23.5 74.333 -23.5 123c0 44.667 7.83301 82.5 23.5 113.5s36 56 61 75s53.333 32.833 85 41.5
s63.5 13 95.5 13c30 0 57.667 -3.16699 83 -9.5s49.5 -14.833 72.5 -25.5s45.833 -22.834 68.5 -36.501l71 -42.5z" />
    <glyph glyph-name="t" unicode="t" horiz-adv-x="558" 
d="M525 930v-150h-165v-780h-160v780h-164v150h164v350h162v-350h163z" />
    <glyph glyph-name="u" unicode="u" horiz-adv-x="958" 
d="M883 930v-555c-6 -72.667 -25 -137 -57 -193c-13.333 -24 -30.333 -47.5 -51 -70.5s-45.667 -43.5 -75 -61.5s-63.5 -32.5 -102.5 -43.5s-83.833 -16.5 -134.5 -16.5c-51.333 0 -96.5 5.5 -135.5 16.5s-73.167 25.5 -102.5 43.5s-54.166 38.5 -74.499 61.5
s-37.166 46.5 -50.499 70.5c-32 56 -51 120.333 -57 193v555h160v-555c0 -28 3.66699 -52.833 11 -74.5s17.166 -40.334 29.499 -56.001s26.333 -29 42 -40s31.5 -19.833 47.5 -26.5c38 -16.667 81.333 -26 130 -28c48.667 2 92 11.333 130 28
c16 6.66699 31.833 15.5 47.5 26.5s29.667 24.333 42 40s22.166 34.334 29.499 56.001s11 46.5 11 74.5v555h160z" />
    <glyph glyph-name="v" unicode="v" horiz-adv-x="1008" 
d="M983 940l-325 -940h-285l-326 940h175l292 -820l296 820h173z" />
    <glyph glyph-name="w" unicode="w" horiz-adv-x="1462" 
d="M1422 940l-300 -940h-187l-207 660l-206 -660h-186l-300 940h182l212 -750l211 750h175l212 -749l211 749h183z" />
    <glyph glyph-name="x" unicode="x" horiz-adv-x="1054" 
d="M427 472l-137 177l-98 126l-71 91.5l-57 73.5h203l262 -337l258 337h203l-361 -468l181 -236l181 -236h-199l-263 340l-132.5 -168.5l-131.5 -171.5h-202z" />
    <glyph glyph-name="y" unicode="y" horiz-adv-x="931" 
d="M893 940l-455 -1295h-187l129 355l-328 940h184l237 -683l237 683h183z" />
    <glyph glyph-name="z" unicode="z" horiz-adv-x="920" 
d="M847 790l-545 -640h545v-150h-783v150l549 640h-549v150h783v-150z" />
    <glyph glyph-name="braceleft" unicode="{" horiz-adv-x="827" 
d="M428 830c0 -56.667 -11.833 -109.004 -35.5 -157.004s-55.5 -88.333 -95.5 -121c40 -32.667 71.833 -73 95.5 -121s35.5 -100.333 35.5 -157v-236c0 -42 9.66699 -78.5 29 -109.5s44 -56.5 74 -76.5s63.667 -34.833 101 -44.5s74 -14.5 110 -14.5v-150
c-60 1.33301 -118.5 10.5 -175.5 27.5s-107.5 42 -151.5 75s-79.5 73.833 -106.5 122.5s-40.5 105.334 -40.5 170.001v236c0 26.667 -5 51.667 -15 75s-23.833 43.833 -41.5 61.5s-38.5 31.834 -62.5 42.501s-50 17 -78 19v160c28 2 54 8.33301 78 19
s44.833 24.834 62.5 42.501s31.5 38.167 41.5 61.5s15 48.333 15 75v235c0 64.667 13.5 121.334 40.5 170.001s62.5 89.5 106.5 122.5s94.5 58 151.5 75s115.5 26.167 175.5 27.5v-150c-36 0 -72.667 -4.83301 -110 -14.5s-71 -24.5 -101 -44.5s-54.667 -45.5 -74 -76.5
s-29 -67.5 -29 -109.5v-235v0z" />
    <glyph glyph-name="bar" unicode="|" horiz-adv-x="410" 
d="M285 -350h-160v1849h160v-1849z" />
    <glyph glyph-name="braceright" unicode="}" horiz-adv-x="883" 
d="M418 830v235.004c0 42 -9.66699 78.5 -29 109.5s-44 56.5 -74 76.5s-63.667 34.833 -101 44.5s-74 14.5 -110 14.5v150c60 -1.33301 118.5 -10.5 175.5 -27.5s107.5 -42 151.5 -75s79.5 -73.833 106.5 -122.5s40.5 -105.334 40.5 -170.001v-235
c0 -26.667 5 -51.667 15 -75s23.833 -43.833 41.5 -61.5s38.5 -31.834 62.5 -42.501s50 -17 78 -19v-160c-28 -2 -54 -8.33301 -78 -19s-44.833 -24.834 -62.5 -42.501s-31.5 -38.167 -41.5 -61.5s-15 -48.333 -15 -75v-236c0 -64.667 -13.5 -121.334 -40.5 -170.001
s-62.5 -89.5 -106.5 -122.5s-94.5 -58 -151.5 -75s-115.5 -26.167 -175.5 -27.5v150c36 0 72.667 4.83301 110 14.5s71 24.5 101 44.5s54.667 45.5 74 76.5s29 67.5 29 109.5v236c0 56.667 11.833 109 35.5 157s55.5 88.333 95.5 121c-40 32.667 -71.833 73 -95.5 121
s-35.5 100.333 -35.5 157z" />
    <glyph glyph-name="asciitilde" unicode="~" horiz-adv-x="964" 
d="M911 721c-15.333 -39.333 -33.1689 -72.166 -53.502 -98.499s-42.166 -47.333 -65.499 -63s-47.5 -26.834 -72.5 -33.501s-50.167 -10 -75.5 -10c-32 0 -60.667 4.33301 -86 13s-49.333 18.334 -72 29.001s-45.167 20.334 -67.5 29.001s-46.5 13 -72.5 13
c-27.333 0 -50.833 -5.83301 -70.5 -17.5s-36.167 -24.167 -49.5 -37.5c-15.333 -16 -28.333 -34 -39 -54l-145 69c0.666992 2 1.66699 4.33301 3 7c1.33301 2 2.5 4 3.5 6l3.5 7c19.333 40.667 40 73.667 62 99s44.333 45.166 67 59.499s45 24.166 67 29.499s42.667 8 62 8
c14 0 26.833 -1 38.5 -3s21.834 -4.33301 30.501 -7c10 -2.66699 19.333 -5.66699 28 -9l116 -55c15.333 -7.33301 30 -12.666 44 -15.999s27.333 -5 40 -5c26.667 0 50 5.66699 70 17s36.667 23.666 50 36.999c16 16 29.333 34.333 40 55z" />
    <glyph glyph-name="thothannobasethai" horiz-adv-x="1110" 
d="M974 1088c0 -5.33301 -5.33301 -14.5 -16 -27.5s-23.667 -26.833 -39 -41.5s-31 -28.667 -47 -42s-29.333 -22.666 -40 -27.999c26.667 -31.333 48.667 -69.833 66 -115.5s26 -101.834 26 -168.501v-665h-161v297c-7.33301 21.333 -17.166 41 -29.499 59
s-28.166 33 -47.499 45c-18.667 11.333 -38.5 20.166 -59.5 26.499s-44.167 9.5 -69.5 9.5c-38 0 -70.333 -7 -97 -21v172c28.667 8 61 12 97 12c75.333 0 144 -18.333 206 -55v109c-4.66699 45.333 -17 86.333 -37 123c-8.66699 15.333 -19.334 30.333 -32.001 45
s-28 27.834 -46 39.501s-39 21 -63 28s-51.333 10.5 -82 10.5c-48.667 -3.33301 -92 -14 -130 -32c-16 -8 -31.833 -17.833 -47.5 -29.5s-29.667 -26.167 -42 -43.5s-22.166 -37.666 -29.499 -60.999s-11 -50 -11 -80h-160v11c0 10.667 1 28.167 3 52.5s7.5 52 16.5 83
s22.333 63 40 96s42 63 73 90s69.833 49.333 116.5 67s103.667 26.5 171 26.5h9c22 0 44.333 -1.5 67 -4.5s47 -8.16699 73 -15.5c28 4 55 11.667 81 23c22 9.33301 44.667 23.333 68 42s42.666 43.667 57.999 75l53 -52l20 -20l18.5 -18.5
c5.66699 -5.66699 10.667 -10.334 15 -14.001s7.16602 -6.16699 8.49902 -7.5z" />
    <glyph glyph-name="thothannobasethai" unicode="&#xf700;" horiz-adv-x="1110" 
d="M974 1088c0 -5.33301 -5.33301 -14.5 -16 -27.5s-23.667 -26.833 -39 -41.5s-31 -28.667 -47 -42s-29.333 -22.666 -40 -27.999c26.667 -31.333 48.667 -69.833 66 -115.5s26 -101.834 26 -168.501v-665h-161v297c-7.33301 21.333 -17.166 41 -29.499 59
s-28.166 33 -47.499 45c-18.667 11.333 -38.5 20.166 -59.5 26.499s-44.167 9.5 -69.5 9.5c-38 0 -70.333 -7 -97 -21v172c28.667 8 61 12 97 12c75.333 0 144 -18.333 206 -55v109c-4.66699 45.333 -17 86.333 -37 123c-8.66699 15.333 -19.334 30.333 -32.001 45
s-28 27.834 -46 39.501s-39 21 -63 28s-51.333 10.5 -82 10.5c-48.667 -3.33301 -92 -14 -130 -32c-16 -8 -31.833 -17.833 -47.5 -29.5s-29.667 -26.167 -42 -43.5s-22.166 -37.666 -29.499 -60.999s-11 -50 -11 -80h-160v11c0 10.667 1 28.167 3 52.5s7.5 52 16.5 83
s22.333 63 40 96s42 63 73 90s69.833 49.333 116.5 67s103.667 26.5 171 26.5h9c22 0 44.333 -1.5 67 -4.5s47 -8.16699 73 -15.5c28 4 55 11.667 81 23c22 9.33301 44.667 23.333 68 42s42.666 43.667 57.999 75l53 -52l20 -20l18.5 -18.5
c5.66699 -5.66699 10.667 -10.334 15 -14.001s7.16602 -6.16699 8.49902 -7.5z" />
    <glyph glyph-name="thothannobasethai" unicode="&#x20ac;" horiz-adv-x="1110" 
d="M974 1088c0 -5.33301 -5.33301 -14.5 -16 -27.5s-23.667 -26.833 -39 -41.5s-31 -28.667 -47 -42s-29.333 -22.666 -40 -27.999c26.667 -31.333 48.667 -69.833 66 -115.5s26 -101.834 26 -168.501v-665h-161v297c-7.33301 21.333 -17.166 41 -29.499 59
s-28.166 33 -47.499 45c-18.667 11.333 -38.5 20.166 -59.5 26.499s-44.167 9.5 -69.5 9.5c-38 0 -70.333 -7 -97 -21v172c28.667 8 61 12 97 12c75.333 0 144 -18.333 206 -55v109c-4.66699 45.333 -17 86.333 -37 123c-8.66699 15.333 -19.334 30.333 -32.001 45
s-28 27.834 -46 39.501s-39 21 -63 28s-51.333 10.5 -82 10.5c-48.667 -3.33301 -92 -14 -130 -32c-16 -8 -31.833 -17.833 -47.5 -29.5s-29.667 -26.167 -42 -43.5s-22.166 -37.666 -29.499 -60.999s-11 -50 -11 -80h-160v11c0 10.667 1 28.167 3 52.5s7.5 52 16.5 83
s22.333 63 40 96s42 63 73 90s69.833 49.333 116.5 67s103.667 26.5 171 26.5h9c22 0 44.333 -1.5 67 -4.5s47 -8.16699 73 -15.5c28 4 55 11.667 81 23c22 9.33301 44.667 23.333 68 42s42.666 43.667 57.999 75l53 -52l20 -20l18.5 -18.5
c5.66699 -5.66699 10.667 -10.334 15 -14.001s7.16602 -6.16699 8.49902 -7.5z" />
    <glyph glyph-name="saraileftthai" 
d="M-360 1345v-153h-598v153h598z" />
    <glyph glyph-name="saraileftthai" unicode="&#xf701;" 
d="M-360 1345v-153h-598v153h598z" />
    <glyph glyph-name="saraiileftthai" 
d="M-506 1440v-246h-598v150h448v96h150z" />
    <glyph glyph-name="saraiileftthai" unicode="&#xf702;" 
d="M-506 1440v-246h-598v150h448v96h150z" />
    <glyph glyph-name="saraiileftthai" unicode="&#x201a;" 
d="M-506 1440v-246h-598v150h448v96h150z" />
    <glyph glyph-name="saraueleftthai" 
d="M-521 1575c26 0 50.333 -5 73 -15s42.5 -23.5 59.5 -40.5s30.333 -36.833 40 -59.5s14.5 -46.667 14.5 -72c0 -26 -5 -50.5 -15 -73.5s-23.5 -43 -40.5 -60s-36.833 -30.333 -59.5 -40s-46.667 -14.5 -72 -14.5h-620v152h436c-1.33301 6 -2.33301 12 -3 18s-1 12 -1 18
c0 25.333 4.83301 49.333 14.5 72s23 42.5 40 59.5s37 30.5 60 40.5s47.5 15 73.5 15zM-521 1326c17.333 0 32 6 44 18s18 26.667 18 44s-6 31.833 -18 43.5s-26.667 17.5 -44 17.5s-32.166 -5.83301 -44.499 -17.5s-18.5 -26.167 -18.5 -43.5s6.16699 -32 18.5 -44
s27.166 -18 44.499 -18z" />
    <glyph glyph-name="saraueleftthai" unicode="&#xf703;" 
d="M-521 1575c26 0 50.333 -5 73 -15s42.5 -23.5 59.5 -40.5s30.333 -36.833 40 -59.5s14.5 -46.667 14.5 -72c0 -26 -5 -50.5 -15 -73.5s-23.5 -43 -40.5 -60s-36.833 -30.333 -59.5 -40s-46.667 -14.5 -72 -14.5h-620v152h436c-1.33301 6 -2.33301 12 -3 18s-1 12 -1 18
c0 25.333 4.83301 49.333 14.5 72s23 42.5 40 59.5s37 30.5 60 40.5s47.5 15 73.5 15zM-521 1326c17.333 0 32 6 44 18s18 26.667 18 44s-6 31.833 -18 43.5s-26.667 17.5 -44 17.5s-32.166 -5.83301 -44.499 -17.5s-18.5 -26.167 -18.5 -43.5s6.16699 -32 18.5 -44
s27.166 -18 44.499 -18z" />
    <glyph glyph-name="saraueleftthai" unicode="&#x192;" 
d="M-521 1575c26 0 50.333 -5 73 -15s42.5 -23.5 59.5 -40.5s30.333 -36.833 40 -59.5s14.5 -46.667 14.5 -72c0 -26 -5 -50.5 -15 -73.5s-23.5 -43 -40.5 -60s-36.833 -30.333 -59.5 -40s-46.667 -14.5 -72 -14.5h-620v152h436c-1.33301 6 -2.33301 12 -3 18s-1 12 -1 18
c0 25.333 4.83301 49.333 14.5 72s23 42.5 40 59.5s37 30.5 60 40.5s47.5 15 73.5 15zM-521 1326c17.333 0 32 6 44 18s18 26.667 18 44s-6 31.833 -18 43.5s-26.667 17.5 -44 17.5s-32.166 -5.83301 -44.499 -17.5s-18.5 -26.167 -18.5 -43.5s6.16699 -32 18.5 -44
s27.166 -18 44.499 -18z" />
    <glyph glyph-name="saraueeleftthai" 
d="M-300 1527v-261h-658v150h269v111h150v-111h89v111h150z" />
    <glyph glyph-name="saraueeleftthai" unicode="&#xf704;" 
d="M-300 1527v-261h-658v150h269v111h150v-111h89v111h150z" />
    <glyph glyph-name="saraueeleftthai" unicode="&#x201e;" 
d="M-300 1527v-261h-658v150h269v111h150v-111h89v111h150z" />
    <glyph glyph-name="ellipsis" unicode="&#x85;" horiz-adv-x="1079" 
d="M150 104c15.333 0 28.333 -5.33301 39 -16s16 -23.667 16 -39c0 -13.333 -5.33301 -25.5 -16 -36.5s-23.667 -16.5 -39 -16.5c-14.667 0 -27.667 5.5 -39 16.5s-17 23.167 -17 36.5c0 15.333 5.66699 28.333 17 39s24.333 16 39 16zM541 104
c13.333 0 25.833 -5.33301 37.5 -16s17.5 -23.667 17.5 -39c0 -13.333 -5.33301 -25.5 -16 -36.5s-23.667 -16.5 -39 -16.5s-28.5 5.5 -39.5 16.5s-16.5 23.167 -16.5 36.5c0 15.333 5.5 28.333 16.5 39s24.167 16 39.5 16zM930 104c15.333 0 28.333 -5.33301 39 -16
s16 -23.667 16 -39c0 -13.333 -5.33301 -25.5 -16 -36.5s-23.667 -16.5 -39 -16.5c-14.667 0 -27.667 5.5 -39 16.5s-17 23.167 -17 36.5c0 15.333 5.66699 28.333 17 39s24.333 16 39 16z" />
    <glyph glyph-name="ellipsis" unicode="&#x2026;" horiz-adv-x="1079" 
d="M150 104c15.333 0 28.333 -5.33301 39 -16s16 -23.667 16 -39c0 -13.333 -5.33301 -25.5 -16 -36.5s-23.667 -16.5 -39 -16.5c-14.667 0 -27.667 5.5 -39 16.5s-17 23.167 -17 36.5c0 15.333 5.66699 28.333 17 39s24.333 16 39 16zM541 104
c13.333 0 25.833 -5.33301 37.5 -16s17.5 -23.667 17.5 -39c0 -13.333 -5.33301 -25.5 -16 -36.5s-23.667 -16.5 -39 -16.5s-28.5 5.5 -39.5 16.5s-16.5 23.167 -16.5 36.5c0 15.333 5.5 28.333 16.5 39s24.167 16 39.5 16zM930 104c15.333 0 28.333 -5.33301 39 -16
s16 -23.667 16 -39c0 -13.333 -5.33301 -25.5 -16 -36.5s-23.667 -16.5 -39 -16.5c-14.667 0 -27.667 5.5 -39 16.5s-17 23.167 -17 36.5c0 15.333 5.66699 28.333 17 39s24.333 16 39 16z" />
    <glyph glyph-name="maieklowleftthai" 
d="M-419 1504v-304h-150v304h150z" />
    <glyph glyph-name="maieklowleftthai" unicode="&#xf705;" 
d="M-419 1504v-304h-150v304h150z" />
    <glyph glyph-name="maieklowleftthai" unicode="&#x2020;" 
d="M-419 1504v-304h-150v304h150z" />
    <glyph glyph-name="maitholowleftthai" 
d="M-400 1346v-149.999h-444v201h-80v150h159c12.667 -1.33301 24.334 -4.66602 35.001 -9.99902c9.33301 -4.66699 17.666 -11.834 24.999 -21.501s11 -22.834 11 -39.501v-130h294z" />
    <glyph glyph-name="maitholowleftthai" unicode="&#xf706;" 
d="M-400 1346v-149.999h-444v201h-80v150h159c12.667 -1.33301 24.334 -4.66602 35.001 -9.99902c9.33301 -4.66699 17.666 -11.834 24.999 -21.501s11 -22.834 11 -39.501v-130h294z" />
    <glyph glyph-name="maitholowleftthai" unicode="&#x2021;" 
d="M-400 1346v-149.999h-444v201h-80v150h159c12.667 -1.33301 24.334 -4.66602 35.001 -9.99902c9.33301 -4.66699 17.666 -11.834 24.999 -21.501s11 -22.834 11 -39.501v-130h294z" />
    <glyph glyph-name="maitrilowleftthai" 
d="M-100 1320l0.00292969 -150.002h-361c0 40 -2.33301 71.167 -7 93.5s-9.66699 39.166 -15 50.499c-6.66699 12.667 -14 21 -22 25l-126 -126l-126 126c-8 -4 -15.333 -12.333 -22 -25c-5.33301 -11.333 -10.333 -28.166 -15 -50.499s-7 -53.5 -7 -93.5h-150
c0 36.667 3.33301 74.334 10 113.001s18.667 74.167 36 106.5s41.166 59.833 71.499 82.5s69.166 36 116.499 40l86 -88l86 88c33.333 0 62.166 -5.66699 86.499 -17s45 -26.166 62 -44.499s31 -39 42 -62s19.5 -45.833 25.5 -68.5h229z" />
    <glyph glyph-name="maitrilowleftthai" unicode="&#xf707;" 
d="M-100 1320l0.00292969 -150.002h-361c0 40 -2.33301 71.167 -7 93.5s-9.66699 39.166 -15 50.499c-6.66699 12.667 -14 21 -22 25l-126 -126l-126 126c-8 -4 -15.333 -12.333 -22 -25c-5.33301 -11.333 -10.333 -28.166 -15 -50.499s-7 -53.5 -7 -93.5h-150
c0 36.667 3.33301 74.334 10 113.001s18.667 74.167 36 106.5s41.166 59.833 71.499 82.5s69.166 36 116.499 40l86 -88l86 88c33.333 0 62.166 -5.66699 86.499 -17s45 -26.166 62 -44.499s31 -39 42 -62s19.5 -45.833 25.5 -68.5h229z" />
    <glyph glyph-name="maitrilowleftthai" unicode="&#x2c6;" 
d="M-100 1320l0.00292969 -150.002h-361c0 40 -2.33301 71.167 -7 93.5s-9.66699 39.166 -15 50.499c-6.66699 12.667 -14 21 -22 25l-126 -126l-126 126c-8 -4 -15.333 -12.333 -22 -25c-5.33301 -11.333 -10.333 -28.166 -15 -50.499s-7 -53.5 -7 -93.5h-150
c0 36.667 3.33301 74.334 10 113.001s18.667 74.167 36 106.5s41.166 59.833 71.499 82.5s69.166 36 116.499 40l86 -88l86 88c33.333 0 62.166 -5.66699 86.499 -17s45 -26.166 62 -44.499s31 -39 42 -62s19.5 -45.833 25.5 -68.5h229z" />
    <glyph glyph-name="maichattawalowleftthai" 
d="M-329 1303h-103v-102h-150v102h-102v150h102v103h150v-103h103v-150z" />
    <glyph glyph-name="maichattawalowleftthai" unicode="&#xf708;" 
d="M-329 1303h-103v-102h-150v102h-102v150h102v103h150v-103h103v-150z" />
    <glyph glyph-name="maichattawalowleftthai" unicode="&#x2030;" 
d="M-329 1303h-103v-102h-150v102h-102v150h102v103h150v-103h103v-150z" />
    <glyph glyph-name="thanthakhatlowleftthai" 
d="M-726 1201l-0.000976562 159c0.666992 12.667 4 24.334 10 35.001c4.66699 9.33301 11.834 17.666 21.501 24.999s23.167 11 40.5 11h352v-150h-274v-80h-150z" />
    <glyph glyph-name="thanthakhatlowleftthai" unicode="&#xf709;" 
d="M-726 1201l-0.000976562 159c0.666992 12.667 4 24.334 10 35.001c4.66699 9.33301 11.834 17.666 21.501 24.999s23.167 11 40.5 11h352v-150h-274v-80h-150z" />
    <glyph glyph-name="thanthakhatlowleftthai" unicode="&#x160;" 
d="M-726 1201l-0.000976562 159c0.666992 12.667 4 24.334 10 35.001c4.66699 9.33301 11.834 17.666 21.501 24.999s23.167 11 40.5 11h352v-150h-274v-80h-150z" />
    <glyph glyph-name="maieklowrightthai" 
d="M-213 1505v-304h-150v304h150z" />
    <glyph glyph-name="maieklowrightthai" unicode="&#xf70a;" 
d="M-213 1505v-304h-150v304h150z" />
    <glyph glyph-name="maieklowrightthai" unicode="&#x2039;" 
d="M-213 1505v-304h-150v304h150z" />
    <glyph glyph-name="maitholowrightthai" 
d="M-100 1350v-149.999h-444v201h-80v150h159c12.667 -1.33301 24.334 -4.66602 35.001 -9.99902c9.33301 -4.66699 17.666 -11.834 24.999 -21.501s11 -22.834 11 -39.501v-130h294z" />
    <glyph glyph-name="maitholowrightthai" unicode="&#xf70b;" 
d="M-100 1350v-149.999h-444v201h-80v150h159c12.667 -1.33301 24.334 -4.66602 35.001 -9.99902c9.33301 -4.66699 17.666 -11.834 24.999 -21.501s11 -22.834 11 -39.501v-130h294z" />
    <glyph glyph-name="maitholowrightthai" unicode="&#x152;" 
d="M-100 1350v-149.999h-444v201h-80v150h159c12.667 -1.33301 24.334 -4.66602 35.001 -9.99902c9.33301 -4.66699 17.666 -11.834 24.999 -21.501s11 -22.834 11 -39.501v-130h294z" />
    <glyph glyph-name="maitrilowrightthai" 
d="M-46 1351l0.00292969 -150.002h-361c0 40 -2.33301 71.167 -7 93.5s-9.66699 39.166 -15 50.499c-6.66699 12.667 -14 21 -22 25l-126 -126l-126 126c-8 -4 -15.333 -12.333 -22 -25c-5.33301 -11.333 -10.333 -28.166 -15 -50.499s-7 -53.5 -7 -93.5h-150
c0 36.667 3.33301 74.334 10 113.001s18.667 74.167 36 106.5s41.166 59.833 71.499 82.5s69.166 36 116.499 40l86 -88l86 88c33.333 0 62.166 -5.66699 86.499 -17s45 -26.166 62 -44.499s31 -39 42 -62s19.5 -45.833 25.5 -68.5h229z" />
    <glyph glyph-name="maitrilowrightthai" unicode="&#xf70c;" 
d="M-46 1351l0.00292969 -150.002h-361c0 40 -2.33301 71.167 -7 93.5s-9.66699 39.166 -15 50.499c-6.66699 12.667 -14 21 -22 25l-126 -126l-126 126c-8 -4 -15.333 -12.333 -22 -25c-5.33301 -11.333 -10.333 -28.166 -15 -50.499s-7 -53.5 -7 -93.5h-150
c0 36.667 3.33301 74.334 10 113.001s18.667 74.167 36 106.5s41.166 59.833 71.499 82.5s69.166 36 116.499 40l86 -88l86 88c33.333 0 62.166 -5.66699 86.499 -17s45 -26.166 62 -44.499s31 -39 42 -62s19.5 -45.833 25.5 -68.5h229z" />
    <glyph glyph-name="maichattawalowrightthai" 
d="M-98 1303h-103v-102h-150v102h-102v150h102v103h150v-103h103v-150z" />
    <glyph glyph-name="maichattawalowrightthai" unicode="&#xf70d;" 
d="M-98 1303h-103v-102h-150v102h-102v150h102v103h150v-103h103v-150z" />
    <glyph glyph-name="maichattawalowrightthai" unicode="&#x17d;" 
d="M-98 1303h-103v-102h-150v102h-102v150h102v103h150v-103h103v-150z" />
    <glyph glyph-name="thanthakhatlowrightthai" 
d="M-522 1205l-0.000976562 159c0.666992 12.667 4 24.334 10 35.001c4.66699 9.33301 11.834 17.666 21.501 24.999s23.167 11 40.5 11h352v-150h-274v-80h-150z" />
    <glyph glyph-name="thanthakhatlowrightthai" unicode="&#xf70e;" 
d="M-522 1205l-0.000976562 159c0.666992 12.667 4 24.334 10 35.001c4.66699 9.33301 11.834 17.666 21.501 24.999s23.167 11 40.5 11h352v-150h-274v-80h-150z" />
    <glyph glyph-name="quoteleft" horiz-adv-x="403" 
d="M315 1177c2.66699 -12.667 1.00195 -22.6641 -4.99805 -29.9971c-2.66699 -3.33301 -6 -6.33301 -10 -9c-27.333 -13.333 -49 -26.333 -65 -39s-28 -24 -36 -34s-13.167 -18.5 -15.5 -25.5s-3.5 -11.167 -3.5 -12.5c14.667 0 28.667 -2.83301 42 -8.5
s25 -13.334 35 -23.001s17.833 -21 23.5 -34s8.5 -26.833 8.5 -41.5s-2.83301 -28.5 -8.5 -41.5s-13.5 -24.333 -23.5 -34s-21.667 -17.334 -35 -23.001s-27.333 -8.5 -42 -8.5c-15.333 0 -29.5 2.83301 -42.5 8.5s-24.333 13.334 -34 23.001s-17.334 21 -23.001 34
s-8.83398 26.833 -9.50098 41.5c-1.33301 34.667 2.66699 65.5 12 92.5s21.333 50.667 36 71s31 37.5 49 51.5s35.167 25.667 51.5 35s30.666 16.166 42.999 20.499l24.5 8.5c6 1.33301 10.833 1.16602 14.5 -0.500977s6.5 -4.16699 8.5 -7.5
c2.66699 -3.33301 4.33398 -8 5.00098 -14z" />
    <glyph glyph-name="quoteleft" unicode="&#x2018;" horiz-adv-x="403" 
d="M315 1177c2.66699 -12.667 1.00195 -22.6641 -4.99805 -29.9971c-2.66699 -3.33301 -6 -6.33301 -10 -9c-27.333 -13.333 -49 -26.333 -65 -39s-28 -24 -36 -34s-13.167 -18.5 -15.5 -25.5s-3.5 -11.167 -3.5 -12.5c14.667 0 28.667 -2.83301 42 -8.5
s25 -13.334 35 -23.001s17.833 -21 23.5 -34s8.5 -26.833 8.5 -41.5s-2.83301 -28.5 -8.5 -41.5s-13.5 -24.333 -23.5 -34s-21.667 -17.334 -35 -23.001s-27.333 -8.5 -42 -8.5c-15.333 0 -29.5 2.83301 -42.5 8.5s-24.333 13.334 -34 23.001s-17.334 21 -23.001 34
s-8.83398 26.833 -9.50098 41.5c-1.33301 34.667 2.66699 65.5 12 92.5s21.333 50.667 36 71s31 37.5 49 51.5s35.167 25.667 51.5 35s30.666 16.166 42.999 20.499l24.5 8.5c6 1.33301 10.833 1.16602 14.5 -0.500977s6.5 -4.16699 8.5 -7.5
c2.66699 -3.33301 4.33398 -8 5.00098 -14z" />
    <glyph glyph-name="quoteright" horiz-adv-x="395" 
d="M92 851c-2 7.33301 -2.33496 13.3311 -1.00195 17.998s3.33301 8.66699 6 12s6 6.33301 10 9c27.333 13.333 49 26.333 65 39s28 24 36 34s13.167 18.5 15.5 25.5s3.5 11.167 3.5 12.5c-15.333 0 -29.5 2.83301 -42.5 8.5s-24.5 13.334 -34.5 23.001s-17.833 21 -23.5 34
s-8.5 26.833 -8.5 41.5s2.83301 28.5 8.5 41.5s13.5 24.333 23.5 34s21.5 17.334 34.5 23.001s27.167 8.5 42.5 8.5c14.667 0 28.667 -2.83301 42 -8.5s24.833 -13.334 34.5 -23.001s17.334 -21 23.001 -34s8.83398 -26.833 9.50098 -41.5
c0.666992 -34.667 -3.5 -65.5 -12.5 -92.5s-20.833 -50.667 -35.5 -71s-31 -37.5 -49 -51.5s-35.167 -25.667 -51.5 -35s-30.666 -16.166 -42.999 -20.499l-24.5 -8.5c-6 -2 -10.833 -2 -14.5 0s-6.5 4.66699 -8.5 8c-2.66699 3.33301 -4.33398 8 -5.00098 14z" />
    <glyph glyph-name="quoteright" unicode="&#x2019;" horiz-adv-x="395" 
d="M92 851c-2 7.33301 -2.33496 13.3311 -1.00195 17.998s3.33301 8.66699 6 12s6 6.33301 10 9c27.333 13.333 49 26.333 65 39s28 24 36 34s13.167 18.5 15.5 25.5s3.5 11.167 3.5 12.5c-15.333 0 -29.5 2.83301 -42.5 8.5s-24.5 13.334 -34.5 23.001s-17.833 21 -23.5 34
s-8.5 26.833 -8.5 41.5s2.83301 28.5 8.5 41.5s13.5 24.333 23.5 34s21.5 17.334 34.5 23.001s27.167 8.5 42.5 8.5c14.667 0 28.667 -2.83301 42 -8.5s24.833 -13.334 34.5 -23.001s17.334 -21 23.001 -34s8.83398 -26.833 9.50098 -41.5
c0.666992 -34.667 -3.5 -65.5 -12.5 -92.5s-20.833 -50.667 -35.5 -71s-31 -37.5 -49 -51.5s-35.167 -25.667 -51.5 -35s-30.666 -16.166 -42.999 -20.499l-24.5 -8.5c-6 -2 -10.833 -2 -14.5 0s-6.5 4.66699 -8.5 8c-2.66699 3.33301 -4.33398 8 -5.00098 14z" />
    <glyph glyph-name="bullet" horiz-adv-x="702" 
d="M350 133c-34.667 0 -67.501 6.83398 -98.501 20.501s-58.167 32 -81.5 55s-41.833 50 -55.5 81s-20.5 64.167 -20.5 99.5c0 34.667 6.83301 67.667 20.5 99s32.334 58.5 56.001 81.5s51 41.333 82 55s63.5 20.5 97.5 20.5c34.667 0 67.667 -6.83301 99 -20.5
s58.5 -32 81.5 -55s41.333 -50.167 55 -81.5s20.5 -64.333 20.5 -99c0 -34 -6.83301 -66.5 -20.5 -97.5s-32 -58.333 -55 -82s-50.167 -42.334 -81.5 -56.001s-64.333 -20.5 -99 -20.5z" />
    <glyph glyph-name="bullet" unicode="&#x2022;" horiz-adv-x="702" 
d="M350 133c-34.667 0 -67.501 6.83398 -98.501 20.501s-58.167 32 -81.5 55s-41.833 50 -55.5 81s-20.5 64.167 -20.5 99.5c0 34.667 6.83301 67.667 20.5 99s32.334 58.5 56.001 81.5s51 41.333 82 55s63.5 20.5 97.5 20.5c34.667 0 67.667 -6.83301 99 -20.5
s58.5 -32 81.5 -55s41.333 -50.167 55 -81.5s20.5 -64.333 20.5 -99c0 -34 -6.83301 -66.5 -20.5 -97.5s-32 -58.333 -55 -82s-50.167 -42.334 -81.5 -56.001s-64.333 -20.5 -99 -20.5z" />
    <glyph glyph-name="endash" horiz-adv-x="857" 
d="M67 603h716v-150h-716v150z" />
    <glyph glyph-name="endash" unicode="&#x2013;" horiz-adv-x="857" 
d="M67 603h716v-150h-716v150z" />
    <glyph glyph-name="emdash" horiz-adv-x="854" 
d="M67 603h716v-150h-716v150z" />
    <glyph glyph-name="emdash" unicode="&#x2014;" horiz-adv-x="854" 
d="M67 603h716v-150h-716v150z" />
    <glyph glyph-name="maihanakatleftthai" 
d="M-735 1496l-0.00195312 -80h402v-150h-481c-17.333 0 -30.666 3.5 -39.999 10.5s-16.333 15.167 -21 24.5c-5.33301 10.667 -8.66602 22.667 -9.99902 36v159h150z" />
    <glyph glyph-name="maihanakatleftthai" unicode="&#xf710;" 
d="M-735 1496l-0.00195312 -80h402v-150h-481c-17.333 0 -30.666 3.5 -39.999 10.5s-16.333 15.167 -21 24.5c-5.33301 10.667 -8.66602 22.667 -9.99902 36v159h150z" />
    <glyph glyph-name="maihanakatleftthai" unicode="&#x2dc;" 
d="M-735 1496l-0.00195312 -80h402v-150h-481c-17.333 0 -30.666 3.5 -39.999 10.5s-16.333 15.167 -21 24.5c-5.33301 10.667 -8.66602 22.667 -9.99902 36v159h150z" />
    <glyph glyph-name="nikhahitleftthai" 
d="M-517 1533c26 0 50.333 -4.83301 73 -14.5s42.5 -23 59.5 -40s30.5 -36.833 40.5 -59.5s15 -47 15 -73s-5 -50.333 -15 -73s-23.5 -42.5 -40.5 -59.5s-36.833 -30.333 -59.5 -40s-47 -14.5 -73 -14.5s-50.333 4.83301 -73 14.5s-42.5 23 -59.5 40
s-30.333 36.833 -40 59.5s-14.5 47 -14.5 73s4.83301 50.333 14.5 73s23 42.5 40 59.5s36.833 30.333 59.5 40s47 14.5 73 14.5zM-517 1284c17.333 0 32.166 6 44.499 18s18.5 26.667 18.5 44s-6.16699 32 -18.5 44s-27.166 18 -44.499 18s-32 -6 -44 -18
s-18 -26.667 -18 -44s6 -32 18 -44s26.667 -18 44 -18z" />
    <glyph glyph-name="nikhahitleftthai" unicode="&#xf711;" 
d="M-517 1533c26 0 50.333 -4.83301 73 -14.5s42.5 -23 59.5 -40s30.5 -36.833 40.5 -59.5s15 -47 15 -73s-5 -50.333 -15 -73s-23.5 -42.5 -40.5 -59.5s-36.833 -30.333 -59.5 -40s-47 -14.5 -73 -14.5s-50.333 4.83301 -73 14.5s-42.5 23 -59.5 40
s-30.333 36.833 -40 59.5s-14.5 47 -14.5 73s4.83301 50.333 14.5 73s23 42.5 40 59.5s36.833 30.333 59.5 40s47 14.5 73 14.5zM-517 1284c17.333 0 32.166 6 44.499 18s18.5 26.667 18.5 44s-6.16699 32 -18.5 44s-27.166 18 -44.499 18s-32 -6 -44 -18
s-18 -26.667 -18 -44s6 -32 18 -44s26.667 -18 44 -18z" />
    <glyph glyph-name="nikhahitleftthai" unicode="&#x2122;" 
d="M-517 1533c26 0 50.333 -4.83301 73 -14.5s42.5 -23 59.5 -40s30.5 -36.833 40.5 -59.5s15 -47 15 -73s-5 -50.333 -15 -73s-23.5 -42.5 -40.5 -59.5s-36.833 -30.333 -59.5 -40s-47 -14.5 -73 -14.5s-50.333 4.83301 -73 14.5s-42.5 23 -59.5 40
s-30.333 36.833 -40 59.5s-14.5 47 -14.5 73s4.83301 50.333 14.5 73s23 42.5 40 59.5s36.833 30.333 59.5 40s47 14.5 73 14.5zM-517 1284c17.333 0 32.166 6 44.499 18s18.5 26.667 18.5 44s-6.16699 32 -18.5 44s-27.166 18 -44.499 18s-32 -6 -44 -18
s-18 -26.667 -18 -44s6 -32 18 -44s26.667 -18 44 -18z" />
    <glyph glyph-name="maitaikhuleftthai" 
d="M-295 1485l-454.996 0.00195312c-9.33301 0 -17.166 -2.33301 -23.499 -7s-11.5 -10.834 -15.5 -18.501s-7 -16 -9 -25s-3 -17.5 -3 -25.5c0 -9.33301 1.16699 -18.833 3.5 -28.5s5.66602 -18.334 9.99902 -26.001s9.5 -14 15.5 -19s12.667 -7.5 20 -7.5
c10.667 0 19.167 2.66699 25.5 8s11.166 11.666 14.499 18.999s5.5 15 6.5 23s1.5 15 1.5 21v12h123v-8c0 -5.33301 0.5 -12.166 1.5 -20.499s3.16699 -16.5 6.5 -24.5s8.33301 -15 15 -21s15.667 -9 27 -9s20.166 2.83301 26.499 8.5s11.166 12.334 14.499 20.001
s5.5 15.667 6.5 24s1.5 15.166 1.5 20.499v10h128c0 -42 -5.83301 -76.5 -17.5 -103.5s-26.334 -48.5 -44.001 -64.5s-36.667 -27.167 -57 -33.5s-39.166 -9.5 -56.499 -9.5s-32.833 2 -46.5 6s-25.5 8.66699 -35.5 14c-12 6 -22.333 13 -31 21
c-3.33301 -2.66699 -8.83301 -6.33398 -16.5 -11.001s-16.667 -9.16699 -27 -13.5s-21.333 -8.16602 -33 -11.499s-22.834 -5 -33.501 -5c-7.33301 0 -16.666 0.666992 -27.999 2s-23.5 4.33301 -36.5 9s-26.167 11.5 -39.5 20.5s-25.333 21.167 -36 36.5
s-19.334 34.333 -26.001 57s-10 50.334 -10 83.001c0 45.333 8.16699 82.666 24.5 111.999s34.833 52.5 55.5 69.5s40.667 28.833 60 35.5s32 10 38 10h455v-150z" />
    <glyph glyph-name="maitaikhuleftthai" unicode="&#xf712;" 
d="M-295 1485l-454.996 0.00195312c-9.33301 0 -17.166 -2.33301 -23.499 -7s-11.5 -10.834 -15.5 -18.501s-7 -16 -9 -25s-3 -17.5 -3 -25.5c0 -9.33301 1.16699 -18.833 3.5 -28.5s5.66602 -18.334 9.99902 -26.001s9.5 -14 15.5 -19s12.667 -7.5 20 -7.5
c10.667 0 19.167 2.66699 25.5 8s11.166 11.666 14.499 18.999s5.5 15 6.5 23s1.5 15 1.5 21v12h123v-8c0 -5.33301 0.5 -12.166 1.5 -20.499s3.16699 -16.5 6.5 -24.5s8.33301 -15 15 -21s15.667 -9 27 -9s20.166 2.83301 26.499 8.5s11.166 12.334 14.499 20.001
s5.5 15.667 6.5 24s1.5 15.166 1.5 20.499v10h128c0 -42 -5.83301 -76.5 -17.5 -103.5s-26.334 -48.5 -44.001 -64.5s-36.667 -27.167 -57 -33.5s-39.166 -9.5 -56.499 -9.5s-32.833 2 -46.5 6s-25.5 8.66699 -35.5 14c-12 6 -22.333 13 -31 21
c-3.33301 -2.66699 -8.83301 -6.33398 -16.5 -11.001s-16.667 -9.16699 -27 -13.5s-21.333 -8.16602 -33 -11.499s-22.834 -5 -33.501 -5c-7.33301 0 -16.666 0.666992 -27.999 2s-23.5 4.33301 -36.5 9s-26.167 11.5 -39.5 20.5s-25.333 21.167 -36 36.5
s-19.334 34.333 -26.001 57s-10 50.334 -10 83.001c0 45.333 8.16699 82.666 24.5 111.999s34.833 52.5 55.5 69.5s40.667 28.833 60 35.5s32 10 38 10h455v-150z" />
    <glyph glyph-name="maitaikhuleftthai" unicode="&#x161;" 
d="M-295 1485l-454.996 0.00195312c-9.33301 0 -17.166 -2.33301 -23.499 -7s-11.5 -10.834 -15.5 -18.501s-7 -16 -9 -25s-3 -17.5 -3 -25.5c0 -9.33301 1.16699 -18.833 3.5 -28.5s5.66602 -18.334 9.99902 -26.001s9.5 -14 15.5 -19s12.667 -7.5 20 -7.5
c10.667 0 19.167 2.66699 25.5 8s11.166 11.666 14.499 18.999s5.5 15 6.5 23s1.5 15 1.5 21v12h123v-8c0 -5.33301 0.5 -12.166 1.5 -20.499s3.16699 -16.5 6.5 -24.5s8.33301 -15 15 -21s15.667 -9 27 -9s20.166 2.83301 26.499 8.5s11.166 12.334 14.499 20.001
s5.5 15.667 6.5 24s1.5 15.166 1.5 20.499v10h128c0 -42 -5.83301 -76.5 -17.5 -103.5s-26.334 -48.5 -44.001 -64.5s-36.667 -27.167 -57 -33.5s-39.166 -9.5 -56.499 -9.5s-32.833 2 -46.5 6s-25.5 8.66699 -35.5 14c-12 6 -22.333 13 -31 21
c-3.33301 -2.66699 -8.83301 -6.33398 -16.5 -11.001s-16.667 -9.16699 -27 -13.5s-21.333 -8.16602 -33 -11.499s-22.834 -5 -33.501 -5c-7.33301 0 -16.666 0.666992 -27.999 2s-23.5 4.33301 -36.5 9s-26.167 11.5 -39.5 20.5s-25.333 21.167 -36 36.5
s-19.334 34.333 -26.001 57s-10 50.334 -10 83.001c0 45.333 8.16699 82.666 24.5 111.999s34.833 52.5 55.5 69.5s40.667 28.833 60 35.5s32 10 38 10h455v-150z" />
    <glyph glyph-name="maiekupperleftthai" 
d="M-445 1974v-304h-150v304h150z" />
    <glyph glyph-name="maiekupperleftthai" unicode="&#xf713;" 
d="M-445 1974v-304h-150v304h150z" />
    <glyph glyph-name="maiekupperleftthai" unicode="&#x203a;" 
d="M-445 1974v-304h-150v304h150z" />
    <glyph glyph-name="maithoupperleftthai" 
d="M-150 1818v-149.999h-444v201h-80v150h159c12.667 -1.33301 24.334 -4.66602 35.001 -9.99902c9.33301 -4.66699 17.666 -11.834 24.999 -21.501s11 -22.834 11 -39.501v-130h294z" />
    <glyph glyph-name="maithoupperleftthai" unicode="&#xf714;" 
d="M-150 1818v-149.999h-444v201h-80v150h159c12.667 -1.33301 24.334 -4.66602 35.001 -9.99902c9.33301 -4.66699 17.666 -11.834 24.999 -21.501s11 -22.834 11 -39.501v-130h294z" />
    <glyph glyph-name="maithoupperleftthai" unicode="&#x153;" 
d="M-150 1818v-149.999h-444v201h-80v150h159c12.667 -1.33301 24.334 -4.66602 35.001 -9.99902c9.33301 -4.66699 17.666 -11.834 24.999 -21.501s11 -22.834 11 -39.501v-130h294z" />
    <glyph glyph-name="maitriupperleftthai" 
d="M-316 1769l0.00292969 -150.002h-244c0 40 -2.33301 71.167 -7 93.5s-9.66699 39.166 -15 50.499c-6.66699 12.667 -14 21 -22 25l-126 -126l-126 126c-8 -4 -15.333 -12.333 -22 -25c-5.33301 -11.333 -10.333 -28.166 -15 -50.499s-7 -53.5 -7 -93.5h-150
c0 36.667 3.33301 74.334 10 113.001s18.667 74.167 36 106.5s41.166 59.833 71.499 82.5s69.166 36 116.499 40l86 -88l86 88c33.333 0 62.166 -5.66699 86.499 -17s45 -26.166 62 -44.499s31 -39 42 -62s19.5 -45.833 25.5 -68.5h112z" />
    <glyph glyph-name="maitriupperleftthai" unicode="&#xf715;" 
d="M-316 1769l0.00292969 -150.002h-244c0 40 -2.33301 71.167 -7 93.5s-9.66699 39.166 -15 50.499c-6.66699 12.667 -14 21 -22 25l-126 -126l-126 126c-8 -4 -15.333 -12.333 -22 -25c-5.33301 -11.333 -10.333 -28.166 -15 -50.499s-7 -53.5 -7 -93.5h-150
c0 36.667 3.33301 74.334 10 113.001s18.667 74.167 36 106.5s41.166 59.833 71.499 82.5s69.166 36 116.499 40l86 -88l86 88c33.333 0 62.166 -5.66699 86.499 -17s45 -26.166 62 -44.499s31 -39 42 -62s19.5 -45.833 25.5 -68.5h112z" />
    <glyph glyph-name="maichattawaupperleftthai" 
d="M-201 1765h-103v-102h-150v102h-102v150h102v103h150v-103h103v-150z" />
    <glyph glyph-name="maichattawaupperleftthai" unicode="&#xf716;" 
d="M-201 1765h-103v-102h-150v102h-102v150h102v103h150v-103h103v-150z" />
    <glyph glyph-name="maichattawaupperleftthai" unicode="&#x17e;" 
d="M-201 1765h-103v-102h-150v102h-102v150h102v103h150v-103h103v-150z" />
    <glyph glyph-name="thanthakhatupperleftthai" 
d="M-727 1661l-0.000976562 159c0.666992 12.667 4 24.334 10 35.001c4.66699 9.33301 11.834 17.666 21.501 24.999s23.167 11 40.5 11h352v-150h-274v-80h-150z" />
    <glyph glyph-name="thanthakhatupperleftthai" unicode="&#xf717;" 
d="M-727 1661l-0.000976562 159c0.666992 12.667 4 24.334 10 35.001c4.66699 9.33301 11.834 17.666 21.501 24.999s23.167 11 40.5 11h352v-150h-274v-80h-150z" />
    <glyph glyph-name="thanthakhatupperleftthai" unicode="&#x178;" 
d="M-727 1661l-0.000976562 159c0.666992 12.667 4 24.334 10 35.001c4.66699 9.33301 11.834 17.666 21.501 24.999s23.167 11 40.5 11h352v-150h-274v-80h-150z" />
    <glyph glyph-name="uni00A0" unicode="&#xa0;" horiz-adv-x="925" 
 />
    <glyph glyph-name="uni00A0" unicode="&#xe00;" horiz-adv-x="925" 
 />
    <glyph glyph-name="kokaithai" unicode="&#xa1;" horiz-adv-x="1043" 
d="M100 0l0.000976562 821.998c22 40.667 46 75.334 72 104.001s52.833 52.5 80.5 71.5s55 34 82 45s52 19.333 75 25s43.167 9.16699 60.5 10.5s30.333 2 39 2h10c52 -1.33301 97.667 -8 137 -20s73.833 -27.167 103.5 -45.5s54.667 -39.166 75 -62.499
s37.166 -47.333 50.499 -72s23.666 -49 30.999 -73s12.833 -45.833 16.5 -65.5s5.83398 -36.334 6.50098 -50.001s1 -22.5 1 -26.5v-665h-160v665c0 42.667 -5.83301 78.5 -17.5 107.5s-26.5 53 -44.5 72s-37.833 33.5 -59.5 43.5s-42.167 17.5 -61.5 22.5
s-36.166 7.83301 -50.499 8.5s-23.5 1 -27.5 1c-32.667 0 -61.334 -3.66699 -86.001 -11s-46.167 -17 -64.5 -29s-33.666 -25.667 -45.999 -41s-22.5 -31 -30.5 -47c-18.667 -37.333 -29.334 -79.666 -32.001 -126.999v-665h-160z" />
    <glyph glyph-name="kokaithai" unicode="&#xe01;" horiz-adv-x="1043" 
d="M100 0l0.000976562 821.998c22 40.667 46 75.334 72 104.001s52.833 52.5 80.5 71.5s55 34 82 45s52 19.333 75 25s43.167 9.16699 60.5 10.5s30.333 2 39 2h10c52 -1.33301 97.667 -8 137 -20s73.833 -27.167 103.5 -45.5s54.667 -39.166 75 -62.499
s37.166 -47.333 50.499 -72s23.666 -49 30.999 -73s12.833 -45.833 16.5 -65.5s5.83398 -36.334 6.50098 -50.001s1 -22.5 1 -26.5v-665h-160v665c0 42.667 -5.83301 78.5 -17.5 107.5s-26.5 53 -44.5 72s-37.833 33.5 -59.5 43.5s-42.167 17.5 -61.5 22.5
s-36.166 7.83301 -50.499 8.5s-23.5 1 -27.5 1c-32.667 0 -61.334 -3.66699 -86.001 -11s-46.167 -17 -64.5 -29s-33.666 -25.667 -45.999 -41s-22.5 -31 -30.5 -47c-18.667 -37.333 -29.334 -79.666 -32.001 -126.999v-665h-160z" />
    <glyph glyph-name="khokhaithai" unicode="&#xa2;" horiz-adv-x="939" 
d="M836 1074l-0.00195312 -720.005c0 -60 -8.5 -110.833 -25.5 -152.5s-38.667 -76.167 -65 -103.5s-55 -48.666 -86 -63.999s-60.667 -26.5 -89 -33.5s-53.166 -11.333 -74.499 -13s-35 -2.5 -41 -2.5c-62.667 0 -115.667 8.33301 -159 25s-79.166 37.834 -107.499 63.501
s-50.5 54 -66.5 85s-27.667 60.333 -35 88s-11.833 52.167 -13.5 73.5s-2.5 35.333 -2.5 42c0 35.333 5 67 15 95s22.667 53.333 38 76s32 43.334 50 62.001l51 53.5c16 17 29.667 33.333 41 49s18 31.834 20 48.501c0.666992 4.66699 1 8.83398 1 12.501v11.5
c0 24 -4 44.5 -12 61.5s-18.5 31.167 -31.5 42.5s-27.333 20.333 -43 27s-31.167 11.667 -46.5 15s-29.5 5.5 -42.5 6.5s-23.167 1.5 -30.5 1.5h-11v150h95c43.333 0 80.333 -6 111 -18s56.334 -27.333 77.001 -46s37.167 -39.667 49.5 -63s21.666 -46.5 27.999 -69.5
s10.333 -44.333 12 -64s2.5 -35.5 2.5 -47.5c0 -3.33301 -0.166992 -6.33301 -0.5 -9s-0.5 -4.66699 -0.5 -6v-5c-2 -19.333 -7 -38.166 -15 -56.499s-16.667 -35.166 -26 -50.499c-10.667 -17.333 -22.334 -34.333 -35.001 -51c-30.667 -34.667 -54.5 -65.667 -71.5 -93
s-29.667 -50.833 -38 -70.5s-13.333 -35.334 -15 -47.001s-2.5 -19.5 -2.5 -23.5c0 -36.667 4.83301 -67.5 14.5 -92.5s21.834 -45.5 36.501 -61.5s30.667 -28.5 48 -37.5s34 -15.5 50 -19.5s29.833 -6.33301 41.5 -7s19.5 -1 23.5 -1c33.333 0 61.833 4.83301 85.5 14.5
s43.667 22 60 37s29.5 31.333 39.5 49s17.667 34.667 23 51s8.83301 30.666 10.5 42.999s2.5 20.5 2.5 24.5v720h160z" />
    <glyph glyph-name="khokhaithai" unicode="&#xe02;" horiz-adv-x="939" 
d="M836 1074l-0.00195312 -720.005c0 -60 -8.5 -110.833 -25.5 -152.5s-38.667 -76.167 -65 -103.5s-55 -48.666 -86 -63.999s-60.667 -26.5 -89 -33.5s-53.166 -11.333 -74.499 -13s-35 -2.5 -41 -2.5c-62.667 0 -115.667 8.33301 -159 25s-79.166 37.834 -107.499 63.501
s-50.5 54 -66.5 85s-27.667 60.333 -35 88s-11.833 52.167 -13.5 73.5s-2.5 35.333 -2.5 42c0 35.333 5 67 15 95s22.667 53.333 38 76s32 43.334 50 62.001l51 53.5c16 17 29.667 33.333 41 49s18 31.834 20 48.501c0.666992 4.66699 1 8.83398 1 12.501v11.5
c0 24 -4 44.5 -12 61.5s-18.5 31.167 -31.5 42.5s-27.333 20.333 -43 27s-31.167 11.667 -46.5 15s-29.5 5.5 -42.5 6.5s-23.167 1.5 -30.5 1.5h-11v150h95c43.333 0 80.333 -6 111 -18s56.334 -27.333 77.001 -46s37.167 -39.667 49.5 -63s21.666 -46.5 27.999 -69.5
s10.333 -44.333 12 -64s2.5 -35.5 2.5 -47.5c0 -3.33301 -0.166992 -6.33301 -0.5 -9s-0.5 -4.66699 -0.5 -6v-5c-2 -19.333 -7 -38.166 -15 -56.499s-16.667 -35.166 -26 -50.499c-10.667 -17.333 -22.334 -34.333 -35.001 -51c-30.667 -34.667 -54.5 -65.667 -71.5 -93
s-29.667 -50.833 -38 -70.5s-13.333 -35.334 -15 -47.001s-2.5 -19.5 -2.5 -23.5c0 -36.667 4.83301 -67.5 14.5 -92.5s21.834 -45.5 36.501 -61.5s30.667 -28.5 48 -37.5s34 -15.5 50 -19.5s29.833 -6.33301 41.5 -7s19.5 -1 23.5 -1c33.333 0 61.833 4.83301 85.5 14.5
s43.667 22 60 37s29.5 31.333 39.5 49s17.667 34.667 23 51s8.83301 30.666 10.5 42.999s2.5 20.5 2.5 24.5v720h160z" />
    <glyph glyph-name="khokhuatthai" unicode="&#xa3;" horiz-adv-x="1016" 
d="M445 966c12.667 -14 22.6631 -30.5039 29.9961 -49.5039s12.833 -38.167 16.5 -57.5s5.83398 -37.5 6.50098 -54.5s1 -30.5 1 -40.5v-19c-2.66699 -19.333 -8 -38.333 -16 -57s-16.667 -35.667 -26 -51c-10.667 -17.333 -22.334 -34 -35.001 -50
c-30.667 -34.667 -54.5 -65.667 -71.5 -93s-29.667 -50.833 -38 -70.5s-13.333 -35.334 -15 -47.001s-2.5 -19.5 -2.5 -23.5c0 -36 4.83301 -66.5 14.5 -91.5s21.834 -45.667 36.501 -62s30.834 -28.833 48.501 -37.5s34.334 -15 50.001 -19s29.5 -6.33301 41.5 -7
s20 -1 24 -1c32.667 0 61 4.83301 85 14.5s44 22 60 37s29 31.333 39 49s17.667 34.5 23 50.5s8.83301 30.167 10.5 42.5s2.5 20.5 2.5 24.5v720h160v-720c0 -60 -8.5 -110.833 -25.5 -152.5s-38.5 -76.167 -64.5 -103.5s-54.5 -48.5 -85.5 -63.5s-60.667 -26.167 -89 -33.5
s-53.166 -11.666 -74.499 -12.999s-35 -2 -41 -2c-62.667 0 -115.834 8.33301 -159.501 25s-79.667 37.834 -108 63.501s-50.5 53.834 -66.5 84.501s-27.667 60 -35 88s-11.833 52.667 -13.5 74s-2.5 35.333 -2.5 42c0 35.333 5 66.833 15 94.5s22.667 53 38 76
s32 43.833 50 62.5l51 53c16 16.667 29.667 32.834 41 48.501s18 31.834 20 48.501c1.33301 4 2 7.83301 2 11.5v11.5c0 15.333 -1.66699 29 -5 41s-7.66602 23 -12.999 33l-79 -72l-185 201l107 102l84 -94l93 94z" />
    <glyph glyph-name="khokhuatthai" unicode="&#xe03;" horiz-adv-x="1016" 
d="M445 966c12.667 -14 22.6631 -30.5039 29.9961 -49.5039s12.833 -38.167 16.5 -57.5s5.83398 -37.5 6.50098 -54.5s1 -30.5 1 -40.5v-19c-2.66699 -19.333 -8 -38.333 -16 -57s-16.667 -35.667 -26 -51c-10.667 -17.333 -22.334 -34 -35.001 -50
c-30.667 -34.667 -54.5 -65.667 -71.5 -93s-29.667 -50.833 -38 -70.5s-13.333 -35.334 -15 -47.001s-2.5 -19.5 -2.5 -23.5c0 -36 4.83301 -66.5 14.5 -91.5s21.834 -45.667 36.501 -62s30.834 -28.833 48.501 -37.5s34.334 -15 50.001 -19s29.5 -6.33301 41.5 -7
s20 -1 24 -1c32.667 0 61 4.83301 85 14.5s44 22 60 37s29 31.333 39 49s17.667 34.5 23 50.5s8.83301 30.167 10.5 42.5s2.5 20.5 2.5 24.5v720h160v-720c0 -60 -8.5 -110.833 -25.5 -152.5s-38.5 -76.167 -64.5 -103.5s-54.5 -48.5 -85.5 -63.5s-60.667 -26.167 -89 -33.5
s-53.166 -11.666 -74.499 -12.999s-35 -2 -41 -2c-62.667 0 -115.834 8.33301 -159.501 25s-79.667 37.834 -108 63.501s-50.5 53.834 -66.5 84.501s-27.667 60 -35 88s-11.833 52.667 -13.5 74s-2.5 35.333 -2.5 42c0 35.333 5 66.833 15 94.5s22.667 53 38 76
s32 43.833 50 62.5l51 53c16 16.667 29.667 32.834 41 48.501s18 31.834 20 48.501c1.33301 4 2 7.83301 2 11.5v11.5c0 15.333 -1.66699 29 -5 41s-7.66602 23 -12.999 33l-79 -72l-185 201l107 102l84 -94l93 94z" />
    <glyph glyph-name="khokhwaithai" unicode="&#xa4;" horiz-adv-x="1039" 
d="M520 1080c66.667 0 123.502 -8.83105 170.502 -26.498s86 -40.167 117 -67.5s55.333 -57.333 73 -90s31 -64.5 40 -95.5s14.5 -58.833 16.5 -83.5s3 -42.334 3 -53.001v-10v-654h-160v654c0 33.333 -3.66699 62.666 -11 87.999s-17.166 47.333 -29.499 66
s-26.333 34.5 -42 47.5s-31.5 23.5 -47.5 31.5c-38 19.333 -81.333 30.333 -130 33c-31.333 0 -58.833 -3.83301 -82.5 -11.5s-44.5 -17.834 -62.5 -30.501s-33.333 -26.834 -46 -42.501s-23.334 -31.834 -32.001 -48.501c-20 -39.333 -32.333 -83.666 -37 -132.999v-109
c62 36.667 130.667 55 206 55c35.333 0 67.666 -4 96.999 -12v-165c-13.333 6.66699 -28.166 10.5 -44.499 11.5s-33.833 1.5 -52.5 1.5c-49.333 0 -92.333 -12 -129 -36c-18.667 -12 -34.167 -26.833 -46.5 -44.5s-22.5 -37.5 -30.5 -59.5v-296h-160v665
c0 66 8.66699 122.167 26 168.5s39.5 84.833 66.5 115.5s56.667 54.834 89 72.501s63.666 30.834 93.999 39.501s57.666 14 81.999 16s41.833 3 52.5 3h10v0z" />
    <glyph glyph-name="khokhwaithai" unicode="&#xe04;" horiz-adv-x="1039" 
d="M520 1080c66.667 0 123.502 -8.83105 170.502 -26.498s86 -40.167 117 -67.5s55.333 -57.333 73 -90s31 -64.5 40 -95.5s14.5 -58.833 16.5 -83.5s3 -42.334 3 -53.001v-10v-654h-160v654c0 33.333 -3.66699 62.666 -11 87.999s-17.166 47.333 -29.499 66
s-26.333 34.5 -42 47.5s-31.5 23.5 -47.5 31.5c-38 19.333 -81.333 30.333 -130 33c-31.333 0 -58.833 -3.83301 -82.5 -11.5s-44.5 -17.834 -62.5 -30.501s-33.333 -26.834 -46 -42.501s-23.334 -31.834 -32.001 -48.501c-20 -39.333 -32.333 -83.666 -37 -132.999v-109
c62 36.667 130.667 55 206 55c35.333 0 67.666 -4 96.999 -12v-165c-13.333 6.66699 -28.166 10.5 -44.499 11.5s-33.833 1.5 -52.5 1.5c-49.333 0 -92.333 -12 -129 -36c-18.667 -12 -34.167 -26.833 -46.5 -44.5s-22.5 -37.5 -30.5 -59.5v-296h-160v665
c0 66 8.66699 122.167 26 168.5s39.5 84.833 66.5 115.5s56.667 54.834 89 72.501s63.666 30.834 93.999 39.501s57.666 14 81.999 16s41.833 3 52.5 3h10v0z" />
    <glyph glyph-name="khokhonthai" unicode="&#xa5;" horiz-adv-x="1035" 
d="M867 967c40.667 -51.333 64.999 -114.333 72.999 -189v-778h-160v718c0 44 -7.66699 82 -23 114c-16 32 -37.333 57 -64 75l-173 -112l-172 112c-28 -18.667 -49.667 -43.667 -65 -75c-15.333 -32 -23 -70 -23 -114v-173c62 36.667 131 55 207 55c34.667 0 67 -4 97 -12
v-165c-14 6.66699 -29.167 10.5 -45.5 11.5s-33.5 1.5 -51.5 1.5c-50 0 -93 -12 -129 -36c-19.333 -12 -35.166 -26.833 -47.499 -44.5s-22.5 -37.5 -30.5 -59.5v-296h-160v778c8 73.333 32.667 136.333 74 189s94 91 158 115l188 -116l188 116
c63.333 -24 116.333 -62.333 159 -115z" />
    <glyph glyph-name="khokhonthai" unicode="&#xe05;" horiz-adv-x="1035" 
d="M867 967c40.667 -51.333 64.999 -114.333 72.999 -189v-778h-160v718c0 44 -7.66699 82 -23 114c-16 32 -37.333 57 -64 75l-173 -112l-172 112c-28 -18.667 -49.667 -43.667 -65 -75c-15.333 -32 -23 -70 -23 -114v-173c62 36.667 131 55 207 55c34.667 0 67 -4 97 -12
v-165c-14 6.66699 -29.167 10.5 -45.5 11.5s-33.5 1.5 -51.5 1.5c-50 0 -93 -12 -129 -36c-19.333 -12 -35.166 -26.833 -47.499 -44.5s-22.5 -37.5 -30.5 -59.5v-296h-160v778c8 73.333 32.667 136.333 74 189s94 91 158 115l188 -116l188 116
c63.333 -24 116.333 -62.333 159 -115z" />
    <glyph glyph-name="khorakhangthai" unicode="&#xa6;" horiz-adv-x="1223" 
d="M1117 1073l-0.00292969 -665.999v-13c0 -12 -1 -30.333 -3 -55s-7.16699 -52.167 -15.5 -82.5s-20.5 -61.5 -36.5 -93.5s-38.167 -61.167 -66.5 -87.5s-63.666 -48 -105.999 -65s-93.833 -25.5 -154.5 -25.5h-38c-45.333 3.33301 -86.333 11.333 -123 24
c-15.333 5.33301 -30.666 12 -45.999 20s-29 17.667 -41 29s-22 24.5 -30 39.5s-12.333 32.5 -13 52.5v-150h-160v864l-99 -94l-185 202l108 101l84 -94l92 94h160v-666c0 -2.66699 0.5 -11.334 1.5 -26.001s4 -32 9 -52s12.667 -41.333 23 -64s24.833 -43.667 43.5 -63
s42.334 -35.333 71.001 -48s63.667 -19 105 -19c4 0 13.333 0.5 28 1.5s31.667 4 51 9s39.666 12.833 60.999 23.5s40.833 26.167 58.5 46.5s32.334 46 44.001 77s17.5 69.167 17.5 114.5v666h160z" />
    <glyph glyph-name="khorakhangthai" unicode="&#xe06;" horiz-adv-x="1223" 
d="M1117 1073l-0.00292969 -665.999v-13c0 -12 -1 -30.333 -3 -55s-7.16699 -52.167 -15.5 -82.5s-20.5 -61.5 -36.5 -93.5s-38.167 -61.167 -66.5 -87.5s-63.666 -48 -105.999 -65s-93.833 -25.5 -154.5 -25.5h-38c-45.333 3.33301 -86.333 11.333 -123 24
c-15.333 5.33301 -30.666 12 -45.999 20s-29 17.667 -41 29s-22 24.5 -30 39.5s-12.333 32.5 -13 52.5v-150h-160v864l-99 -94l-185 202l108 101l84 -94l92 94h160v-666c0 -2.66699 0.5 -11.334 1.5 -26.001s4 -32 9 -52s12.667 -41.333 23 -64s24.833 -43.667 43.5 -63
s42.334 -35.333 71.001 -48s63.667 -19 105 -19c4 0 13.333 0.5 28 1.5s31.667 4 51 9s39.666 12.833 60.999 23.5s40.833 26.167 58.5 46.5s32.334 46 44.001 77s17.5 69.167 17.5 114.5v666h160z" />
    <glyph glyph-name="ngonguthai" unicode="&#xa7;" horiz-adv-x="640" 
d="M241 1074h312.002v-774c0 -51.333 -6.5 -94.833 -19.5 -130.5s-29.333 -65.167 -49 -88.5s-41.334 -41.5 -65.001 -54.5s-46.167 -22.5 -67.5 -28.5s-39.833 -9.66699 -55.5 -11s-25.5 -2 -29.5 -2c-46 0 -85.333 6 -118 18s-60 25.333 -82 40
c-26 17.333 -47.667 36.666 -65 57.999l108 105l16.5 -16.5c7.66699 -7.66699 17.667 -15.5 30 -23.5s27.666 -15.167 45.999 -21.5s39.833 -9.5 64.5 -9.5c15.333 0 28.833 2.33301 40.5 7s22 10.834 31 18.501s16.5 16.5 22.5 26.5s11 20 15 30
c9.33301 24 15 51.667 17 83v624h-152v150z" />
    <glyph glyph-name="ngonguthai" unicode="&#xe07;" horiz-adv-x="640" 
d="M241 1074h312.002v-774c0 -51.333 -6.5 -94.833 -19.5 -130.5s-29.333 -65.167 -49 -88.5s-41.334 -41.5 -65.001 -54.5s-46.167 -22.5 -67.5 -28.5s-39.833 -9.66699 -55.5 -11s-25.5 -2 -29.5 -2c-46 0 -85.333 6 -118 18s-60 25.333 -82 40
c-26 17.333 -47.667 36.666 -65 57.999l108 105l16.5 -16.5c7.66699 -7.66699 17.667 -15.5 30 -23.5s27.666 -15.167 45.999 -21.5s39.833 -9.5 64.5 -9.5c15.333 0 28.833 2.33301 40.5 7s22 10.834 31 18.501s16.5 16.5 22.5 26.5s11 20 15 30
c9.33301 24 15 51.667 17 83v624h-152v150z" />
    <glyph glyph-name="chochanthai" unicode="&#xa8;" horiz-adv-x="954" 
d="M446 1080c10.667 0 28.165 -1.00195 52.498 -3.00195s51.666 -7.33301 81.999 -16s61.833 -21.667 94.5 -39s62.5 -41.5 89.5 -72.5s49.167 -69.667 66.5 -116s26 -102.5 26 -168.5v-665h-161v297c-7.33301 21.333 -17.166 41 -29.499 59s-28.166 33 -47.499 45
c-18.667 11.333 -38.5 20.166 -59.5 26.499s-44.167 9.5 -69.5 9.5c-18.667 0 -36.167 -0.666992 -52.5 -2s-31.166 -5.33301 -44.499 -12v165c28.667 8 61 12 97 12c75.333 0 144 -18.333 206 -55v109c-4.66699 49.333 -17 93.666 -37 132.999
c-8.66699 16.667 -19.334 32.834 -32.001 48.501s-28 29.834 -46 42.501s-39 22.834 -63 30.501s-51.333 11.5 -82 11.5c-48.667 -2.66699 -92 -13.667 -130 -33c-16 -8 -31.833 -18.5 -47.5 -31.5s-29.667 -28.833 -42 -47.5s-22.166 -40.667 -29.499 -66
s-11 -54.666 -11 -87.999h-160v11c0 10.667 1 28.167 3 52.5s7.5 52 16.5 83s22.333 63 40 96s42 63 73 90s69.833 49.333 116.5 67s103.667 26.5 171 26.5h10v0z" />
    <glyph glyph-name="chochanthai" unicode="&#xe08;" horiz-adv-x="954" 
d="M446 1080c10.667 0 28.165 -1.00195 52.498 -3.00195s51.666 -7.33301 81.999 -16s61.833 -21.667 94.5 -39s62.5 -41.5 89.5 -72.5s49.167 -69.667 66.5 -116s26 -102.5 26 -168.5v-665h-161v297c-7.33301 21.333 -17.166 41 -29.499 59s-28.166 33 -47.499 45
c-18.667 11.333 -38.5 20.166 -59.5 26.499s-44.167 9.5 -69.5 9.5c-18.667 0 -36.167 -0.666992 -52.5 -2s-31.166 -5.33301 -44.499 -12v165c28.667 8 61 12 97 12c75.333 0 144 -18.333 206 -55v109c-4.66699 49.333 -17 93.666 -37 132.999
c-8.66699 16.667 -19.334 32.834 -32.001 48.501s-28 29.834 -46 42.501s-39 22.834 -63 30.501s-51.333 11.5 -82 11.5c-48.667 -2.66699 -92 -13.667 -130 -33c-16 -8 -31.833 -18.5 -47.5 -31.5s-29.667 -28.833 -42 -47.5s-22.166 -40.667 -29.499 -66
s-11 -54.666 -11 -87.999h-160v11c0 10.667 1 28.167 3 52.5s7.5 52 16.5 83s22.333 63 40 96s42 63 73 90s69.833 49.333 116.5 67s103.667 26.5 171 26.5h10v0z" />
    <glyph glyph-name="chochingthai" unicode="&#xa9;" horiz-adv-x="1104" 
d="M560 1080c50.667 0 95.498 -5.50488 134.498 -16.5049s73.167 -25.667 102.5 -44s54.333 -39 75 -62s37.667 -46.5 51 -70.5c32 -56 51 -120 57 -192v-695h-160v150c-1.33301 -20 -6 -37.5 -14 -52.5s-18 -28.167 -30 -39.5s-25.5 -21 -40.5 -29
s-30.167 -14.667 -45.5 -20c-36.667 -12.667 -77.667 -20.667 -123 -24h-37c-60.667 0 -112.167 8.5 -154.5 25.5s-77.666 38.833 -105.999 65.5s-50.5 56.167 -66.5 88.5s-28.167 64.333 -36.5 96s-13.5 60.834 -15.5 87.501s-3 47.334 -3 62.001h-52v150h212v-154
c0 -45.333 5.83301 -83.5 17.5 -114.5s26.334 -56.5 44.001 -76.5s37.167 -35.333 58.5 -46s41.666 -18.5 60.999 -23.5s36.166 -8 50.499 -9s23.5 -1.5 27.5 -1.5c41.333 0 76.333 6.33301 105 19s52.334 28.5 71.001 47.5s33.167 39.833 43.5 62.5s18 44 23 64
s8 37.333 9 52s1.5 23.334 1.5 26.001v289c0 28 -3.66699 52.667 -11 74s-17.166 40 -29.499 56s-26.333 29.333 -42 40s-31.5 19.667 -47.5 27c-38 16.667 -81.333 26 -130 28h-13c-11.333 0 -28 -1.83301 -50 -5.5s-45.167 -11.167 -69.5 -22.5s-47.5 -27.5 -69.5 -48.5
s-38.333 -49.167 -49 -84.5h-160c4 18 10 38.5 18 61.5s19 46.5 33 70.5s31.167 47.333 51.5 70s45 42.834 74 60.501s62.833 31.834 101.5 42.501s83 16 133 16z" />
    <glyph glyph-name="chochingthai" unicode="&#xe09;" horiz-adv-x="1104" 
d="M560 1080c50.667 0 95.498 -5.50488 134.498 -16.5049s73.167 -25.667 102.5 -44s54.333 -39 75 -62s37.667 -46.5 51 -70.5c32 -56 51 -120 57 -192v-695h-160v150c-1.33301 -20 -6 -37.5 -14 -52.5s-18 -28.167 -30 -39.5s-25.5 -21 -40.5 -29
s-30.167 -14.667 -45.5 -20c-36.667 -12.667 -77.667 -20.667 -123 -24h-37c-60.667 0 -112.167 8.5 -154.5 25.5s-77.666 38.833 -105.999 65.5s-50.5 56.167 -66.5 88.5s-28.167 64.333 -36.5 96s-13.5 60.834 -15.5 87.501s-3 47.334 -3 62.001h-52v150h212v-154
c0 -45.333 5.83301 -83.5 17.5 -114.5s26.334 -56.5 44.001 -76.5s37.167 -35.333 58.5 -46s41.666 -18.5 60.999 -23.5s36.166 -8 50.499 -9s23.5 -1.5 27.5 -1.5c41.333 0 76.333 6.33301 105 19s52.334 28.5 71.001 47.5s33.167 39.833 43.5 62.5s18 44 23 64
s8 37.333 9 52s1.5 23.334 1.5 26.001v289c0 28 -3.66699 52.667 -11 74s-17.166 40 -29.499 56s-26.333 29.333 -42 40s-31.5 19.667 -47.5 27c-38 16.667 -81.333 26 -130 28h-13c-11.333 0 -28 -1.83301 -50 -5.5s-45.167 -11.167 -69.5 -22.5s-47.5 -27.5 -69.5 -48.5
s-38.333 -49.167 -49 -84.5h-160c4 18 10 38.5 18 61.5s19 46.5 33 70.5s31.167 47.333 51.5 70s45 42.834 74 60.501s62.833 31.834 101.5 42.501s83 16 133 16z" />
    <glyph glyph-name="chochangthai" unicode="&#xaa;" horiz-adv-x="959" 
d="M859 1011c0 -81.333 -39.001 -131.672 -117.001 -151.005c36 -9.33301 63.667 -25 83 -47s30.666 -49.333 33.999 -82v-377c0 -60 -8.5 -110.833 -25.5 -152.5s-38.667 -76.167 -65 -103.5s-55 -48.666 -86 -63.999s-60.667 -26.5 -89 -33.5s-53.166 -11.333 -74.499 -13
s-35 -2.5 -41 -2.5c-62.667 0 -115.667 8.33301 -159 25s-79.166 37.834 -107.499 63.501s-50.5 54 -66.5 85s-27.667 60.333 -35 88s-11.833 52.167 -13.5 73.5s-2.5 35.333 -2.5 42c0 35.333 5 66.833 15 94.5s22.667 53 38 76s32 43.833 50 62.5l51 53
c16 16.667 29.667 32.834 41 48.501s18 31.834 20 48.501c0.666992 4.66699 1 8.83398 1 12.501v11.5c0 24 -4 44.5 -12 61.5s-18.5 31.167 -31.5 42.5s-27.333 20.333 -43 27s-31.167 11.667 -46.5 15s-29.5 5.5 -42.5 6.5s-23.167 1.5 -30.5 1.5h-11v150h95
c43.333 0 80.333 -6 111 -18s56.334 -27.333 77.001 -46s37.167 -39.667 49.5 -63s21.666 -46.5 27.999 -69.5s10.333 -44.333 12 -64s2.5 -35.5 2.5 -47.5c0 -3.33301 -0.166992 -6.33301 -0.5 -9s-0.5 -4.66699 -0.5 -6v-5c-2 -19.333 -7 -38.166 -15 -56.499
s-16.667 -35.166 -26 -50.499c-10.667 -17.333 -22.334 -34.333 -35.001 -51c-30.667 -34.667 -54.5 -65.5 -71.5 -92.5s-29.667 -50.333 -38 -70s-13.333 -35.334 -15 -47.001s-2.5 -19.5 -2.5 -23.5c0 -36.667 4.83301 -67.5 14.5 -92.5s21.834 -45.5 36.501 -61.5
s30.667 -28.5 48 -37.5s34 -15.5 50 -19.5s30 -6.33301 42 -7s20 -1 24 -1c32.667 0 61 4.83301 85 14.5s44 22 60 37s29 31.333 39 49s17.667 34.667 23 51s8.83301 30.666 10.5 42.999s2.5 20.5 2.5 24.5v340c0 68 -47.333 102 -142 102h-53v124h53
c47.333 0 82.833 10.5 106.5 31.5s35.5 51.5 35.5 91.5v30h160v-62v0z" />
    <glyph glyph-name="chochangthai" unicode="&#xe0a;" horiz-adv-x="959" 
d="M859 1011c0 -81.333 -39.001 -131.672 -117.001 -151.005c36 -9.33301 63.667 -25 83 -47s30.666 -49.333 33.999 -82v-377c0 -60 -8.5 -110.833 -25.5 -152.5s-38.667 -76.167 -65 -103.5s-55 -48.666 -86 -63.999s-60.667 -26.5 -89 -33.5s-53.166 -11.333 -74.499 -13
s-35 -2.5 -41 -2.5c-62.667 0 -115.667 8.33301 -159 25s-79.166 37.834 -107.499 63.501s-50.5 54 -66.5 85s-27.667 60.333 -35 88s-11.833 52.167 -13.5 73.5s-2.5 35.333 -2.5 42c0 35.333 5 66.833 15 94.5s22.667 53 38 76s32 43.833 50 62.5l51 53
c16 16.667 29.667 32.834 41 48.501s18 31.834 20 48.501c0.666992 4.66699 1 8.83398 1 12.501v11.5c0 24 -4 44.5 -12 61.5s-18.5 31.167 -31.5 42.5s-27.333 20.333 -43 27s-31.167 11.667 -46.5 15s-29.5 5.5 -42.5 6.5s-23.167 1.5 -30.5 1.5h-11v150h95
c43.333 0 80.333 -6 111 -18s56.334 -27.333 77.001 -46s37.167 -39.667 49.5 -63s21.666 -46.5 27.999 -69.5s10.333 -44.333 12 -64s2.5 -35.5 2.5 -47.5c0 -3.33301 -0.166992 -6.33301 -0.5 -9s-0.5 -4.66699 -0.5 -6v-5c-2 -19.333 -7 -38.166 -15 -56.499
s-16.667 -35.166 -26 -50.499c-10.667 -17.333 -22.334 -34.333 -35.001 -51c-30.667 -34.667 -54.5 -65.5 -71.5 -92.5s-29.667 -50.333 -38 -70s-13.333 -35.334 -15 -47.001s-2.5 -19.5 -2.5 -23.5c0 -36.667 4.83301 -67.5 14.5 -92.5s21.834 -45.5 36.501 -61.5
s30.667 -28.5 48 -37.5s34 -15.5 50 -19.5s30 -6.33301 42 -7s20 -1 24 -1c32.667 0 61 4.83301 85 14.5s44 22 60 37s29 31.333 39 49s17.667 34.667 23 51s8.83301 30.666 10.5 42.999s2.5 20.5 2.5 24.5v340c0 68 -47.333 102 -142 102h-53v124h53
c47.333 0 82.833 10.5 106.5 31.5s35.5 51.5 35.5 91.5v30h160v-62v0z" />
    <glyph glyph-name="sosothai" unicode="&#xab;" horiz-adv-x="1005" 
d="M877 1010c0 -81.333 -39.0039 -132.006 -117.004 -152.006c72 -18.667 111 -61.667 117 -129v-377c0 -60 -8.5 -110.833 -25.5 -152.5s-38.5 -76.167 -64.5 -103.5s-54.5 -48.5 -85.5 -63.5s-60.667 -26.167 -89 -33.5s-53.166 -11.666 -74.499 -12.999s-35 -2 -41 -2
c-62.667 0 -115.834 8.33301 -159.501 25s-79.667 37.834 -108 63.501s-50.5 53.834 -66.5 84.501s-27.667 60 -35 88s-11.833 52.667 -13.5 74s-2.5 35.333 -2.5 42c0 35.333 5 66.833 15 94.5s22.667 53 38 76s32 43.833 50 62.5l51 53c16 16.667 29.667 32.834 41 48.501
s18 31.834 20 48.501c1.33301 4 2 7.83301 2 11.5v11.5c0 14.667 -1.66699 28.167 -5 40.5s-7.66602 23.5 -12.999 33.5l-79 -73l-185 202l107 103l84 -95l93 95l101 -108c12.667 -14 22.667 -30.5 30 -49.5s12.833 -38.167 16.5 -57.5s5.83398 -37.5 6.50098 -54.5
s1 -30.5 1 -40.5v-19c-2.66699 -19.333 -8 -38.333 -16 -57s-16.667 -35.667 -26 -51c-10.667 -17.333 -22.334 -34.333 -35.001 -51c-30.667 -34.667 -54.5 -65.5 -71.5 -92.5s-29.667 -50.333 -38 -70s-13.333 -35.334 -15 -47.001s-2.5 -19.5 -2.5 -23.5
c0 -36 4.83301 -66.5 14.5 -91.5s21.834 -45.5 36.501 -61.5s30.834 -28.333 48.501 -37s34.334 -15 50.001 -19s29.5 -6.33301 41.5 -7s20 -1 24 -1c32.667 0 61 4.83301 85 14.5s44 21.834 60 36.501s29 30.834 39 48.501s17.667 34.667 23 51s8.83301 30.5 10.5 42.5
s2.5 20 2.5 24v341c0 68 -47.333 102 -142 102h-53v123h53c47.333 0 82.833 10.5 106.5 31.5s35.5 51.5 35.5 91.5v32h160v-63v0z" />
    <glyph glyph-name="sosothai" unicode="&#xe0b;" horiz-adv-x="1005" 
d="M877 1010c0 -81.333 -39.0039 -132.006 -117.004 -152.006c72 -18.667 111 -61.667 117 -129v-377c0 -60 -8.5 -110.833 -25.5 -152.5s-38.5 -76.167 -64.5 -103.5s-54.5 -48.5 -85.5 -63.5s-60.667 -26.167 -89 -33.5s-53.166 -11.666 -74.499 -12.999s-35 -2 -41 -2
c-62.667 0 -115.834 8.33301 -159.501 25s-79.667 37.834 -108 63.501s-50.5 53.834 -66.5 84.501s-27.667 60 -35 88s-11.833 52.667 -13.5 74s-2.5 35.333 -2.5 42c0 35.333 5 66.833 15 94.5s22.667 53 38 76s32 43.833 50 62.5l51 53c16 16.667 29.667 32.834 41 48.501
s18 31.834 20 48.501c1.33301 4 2 7.83301 2 11.5v11.5c0 14.667 -1.66699 28.167 -5 40.5s-7.66602 23.5 -12.999 33.5l-79 -73l-185 202l107 103l84 -95l93 95l101 -108c12.667 -14 22.667 -30.5 30 -49.5s12.833 -38.167 16.5 -57.5s5.83398 -37.5 6.50098 -54.5
s1 -30.5 1 -40.5v-19c-2.66699 -19.333 -8 -38.333 -16 -57s-16.667 -35.667 -26 -51c-10.667 -17.333 -22.334 -34.333 -35.001 -51c-30.667 -34.667 -54.5 -65.5 -71.5 -92.5s-29.667 -50.333 -38 -70s-13.333 -35.334 -15 -47.001s-2.5 -19.5 -2.5 -23.5
c0 -36 4.83301 -66.5 14.5 -91.5s21.834 -45.5 36.501 -61.5s30.834 -28.333 48.501 -37s34.334 -15 50.001 -19s29.5 -6.33301 41.5 -7s20 -1 24 -1c32.667 0 61 4.83301 85 14.5s44 21.834 60 36.501s29 30.834 39 48.501s17.667 34.667 23 51s8.83301 30.5 10.5 42.5
s2.5 20 2.5 24v341c0 68 -47.333 102 -142 102h-53v123h53c47.333 0 82.833 10.5 106.5 31.5s35.5 51.5 35.5 91.5v32h160v-63v0z" />
    <glyph glyph-name="chochoethai" unicode="&#xac;" horiz-adv-x="1708" 
d="M1608 1073l-0.000976562 -667.001v-13c0 -12 -1 -30.333 -3 -55s-7 -52.167 -15 -82.5s-20.167 -61.5 -36.5 -93.5s-38.5 -61 -66.5 -87s-63.167 -47.5 -105.5 -64.5s-93.833 -25.5 -154.5 -25.5h-37c-45.333 3.33301 -86.333 11.333 -123 24
c-15.333 5.33301 -30.666 12 -45.999 20s-29 17.667 -41 29s-22 24.5 -30 39.5s-12.333 32.5 -13 52.5v-150h-160v665c0 42.667 -5.83301 78.5 -17.5 107.5s-26.5 53 -44.5 72s-37.833 33.5 -59.5 43.5s-42.167 17.5 -61.5 22.5s-36.166 7.83301 -50.499 8.5
s-23.5 1 -27.5 1c-32.667 0 -61.334 -3.66699 -86.001 -11s-46.167 -17 -64.5 -29s-33.666 -25.667 -45.999 -41s-22.5 -31 -30.5 -47c-18.667 -37.333 -29.334 -79.666 -32.001 -126.999v-330c2 -35.333 9.66699 -66.333 23 -93c6 -11.333 13.333 -22.5 22 -33.5
s19.334 -20.833 32.001 -29.5s27.667 -15.667 45 -21s37.333 -8 60 -8h117v-150h-215c-45.333 3.33301 -86 16.333 -122 39c-15.333 10 -30.333 22.5 -45 37.5s-27.667 33.5 -39 55.5s-20.5 47.833 -27.5 77.5s-10.5 64.167 -10.5 103.5v22v487
c21.333 40.667 45.166 75.334 71.499 104.001s53.333 52.5 81 71.5s55 34 82 45s52 19.333 75 25s43.167 9.16699 60.5 10.5s30.333 2 39 2h10c52 -1.33301 97.667 -8 137 -20s73.833 -27.167 103.5 -45.5s54.667 -39.166 75 -62.499s37.166 -47.333 50.499 -72
s23.666 -49 30.999 -73s12.833 -45.833 16.5 -65.5s5.83398 -36.334 6.50098 -50.001s1 -22.5 1 -26.5v-259c0 -2.66699 0.5 -11.334 1.5 -26.001s4 -32 9 -52s12.667 -41.333 23 -64s25 -43.5 44 -62.5s42.833 -34.833 71.5 -47.5s63.667 -19 105 -19
c4 0 13.167 0.5 27.5 1.5s31 4 50 9s39 12.833 60 23.5s40.333 26 58 46s32.334 45.5 44.001 76.5s17.5 69.167 17.5 114.5v667h160z" />
    <glyph glyph-name="chochoethai" unicode="&#xe0c;" horiz-adv-x="1708" 
d="M1608 1073l-0.000976562 -667.001v-13c0 -12 -1 -30.333 -3 -55s-7 -52.167 -15 -82.5s-20.167 -61.5 -36.5 -93.5s-38.5 -61 -66.5 -87s-63.167 -47.5 -105.5 -64.5s-93.833 -25.5 -154.5 -25.5h-37c-45.333 3.33301 -86.333 11.333 -123 24
c-15.333 5.33301 -30.666 12 -45.999 20s-29 17.667 -41 29s-22 24.5 -30 39.5s-12.333 32.5 -13 52.5v-150h-160v665c0 42.667 -5.83301 78.5 -17.5 107.5s-26.5 53 -44.5 72s-37.833 33.5 -59.5 43.5s-42.167 17.5 -61.5 22.5s-36.166 7.83301 -50.499 8.5
s-23.5 1 -27.5 1c-32.667 0 -61.334 -3.66699 -86.001 -11s-46.167 -17 -64.5 -29s-33.666 -25.667 -45.999 -41s-22.5 -31 -30.5 -47c-18.667 -37.333 -29.334 -79.666 -32.001 -126.999v-330c2 -35.333 9.66699 -66.333 23 -93c6 -11.333 13.333 -22.5 22 -33.5
s19.334 -20.833 32.001 -29.5s27.667 -15.667 45 -21s37.333 -8 60 -8h117v-150h-215c-45.333 3.33301 -86 16.333 -122 39c-15.333 10 -30.333 22.5 -45 37.5s-27.667 33.5 -39 55.5s-20.5 47.833 -27.5 77.5s-10.5 64.167 -10.5 103.5v22v487
c21.333 40.667 45.166 75.334 71.499 104.001s53.333 52.5 81 71.5s55 34 82 45s52 19.333 75 25s43.167 9.16699 60.5 10.5s30.333 2 39 2h10c52 -1.33301 97.667 -8 137 -20s73.833 -27.167 103.5 -45.5s54.667 -39.166 75 -62.499s37.166 -47.333 50.499 -72
s23.666 -49 30.999 -73s12.833 -45.833 16.5 -65.5s5.83398 -36.334 6.50098 -50.001s1 -22.5 1 -26.5v-259c0 -2.66699 0.5 -11.334 1.5 -26.001s4 -32 9 -52s12.667 -41.333 23 -64s25 -43.5 44 -62.5s42.833 -34.833 71.5 -47.5s63.667 -19 105 -19
c4 0 13.167 0.5 27.5 1.5s31 4 50 9s39 12.833 60 23.5s40.333 26 58 46s32.334 45.5 44.001 76.5s17.5 69.167 17.5 114.5v667h160z" />
    <glyph glyph-name="yoyingthai.002" unicode="&#xad;" horiz-adv-x="1712" 
d="M1611 -38c0 -51.333 -6.50098 -94.834 -19.501 -130.501s-29.333 -65.167 -49 -88.5s-41.167 -41.5 -64.5 -54.5s-45.666 -22.5 -66.999 -28.5s-39.833 -9.66699 -55.5 -11s-25.5 -2 -29.5 -2c-46 0 -85.5 6 -118.5 18s-60.5 25.333 -82.5 40
c-26 17.333 -47.667 36.666 -65 57.999l109 136l16.5 -17c7.66699 -8 17.667 -16 30 -24s27.666 -15.167 45.999 -21.5s39.833 -9.5 64.5 -9.5c30.667 0 54.5 6.83301 71.5 20.5s29.5 29.167 37.5 46.5c9.33301 20 15 42.667 17 68v188
c-2.66699 -18 -8.33398 -34.333 -17.001 -49s-19.167 -27.5 -31.5 -38.5s-26 -20.5 -41 -28.5s-30.167 -15 -45.5 -21c-36 -13.333 -75.667 -22.666 -119 -27.999h-36c-60.667 0 -112.167 8.33301 -154.5 25s-77.666 38.167 -105.999 64.5s-50.5 55.5 -66.5 87.5
s-28.167 63 -36.5 93s-13.5 57.333 -15.5 82s-3 43 -3 55v272c0 42.667 -5.83301 78.667 -17.5 108s-26.5 53.5 -44.5 72.5s-37.833 33.5 -59.5 43.5s-42.167 17.5 -61.5 22.5s-36.333 7.83301 -51 8.5s-24 1 -28 1c-32 0 -60.333 -3.66699 -85 -11s-46.167 -17 -64.5 -29
s-33.666 -25.667 -45.999 -41s-22.5 -31 -30.5 -47c-18.667 -37.333 -29.334 -80 -32.001 -128v-330c2 -35.333 9.66699 -66.333 23 -93c6 -11.333 13.333 -22.5 22 -33.5s19.334 -20.833 32.001 -29.5s27.667 -15.667 45 -21s37.666 -8 60.999 -8h116v-149h-215
c-45.333 3.33301 -86 16.333 -122 39c-15.333 10 -30.166 22.5 -44.499 37.5s-27.166 33.5 -38.499 55.5s-20.5 47.667 -27.5 77s-10.5 63.666 -10.5 102.999v22v487c22 40.667 46 75.334 72 104.001s52.833 52.667 80.5 72s55 34.5 82 45.5s52 19.333 75 25
s43.167 9.16699 60.5 10.5s30.333 2 39 2h8c69.333 -2 127.833 -13 175.5 -33s87.167 -44.5 118.5 -73.5s55.666 -60.5 72.999 -94.5s30 -66 38 -96s12.833 -56 14.5 -78s2.5 -35.667 2.5 -41v-259c0 -44.667 5.83301 -82.5 17.5 -113.5s26.5 -56.5 44.5 -76.5
s37.667 -35.5 59 -46.5s41.5 -18.833 60.5 -23.5s35.833 -7.5 50.5 -8.5s24 -1.5 28 -1.5c42 0 77.167 6.33301 105.5 19s51.833 28.5 70.5 47.5s33.167 39.667 43.5 62s17.833 43.5 22.5 63.5s7.5 37.333 8.5 52s1.5 23.334 1.5 26.001v667h160z" />
    <glyph glyph-name="yoyingthai.002" unicode="&#xe0d;" horiz-adv-x="1712" 
d="M1611 -38c0 -51.333 -6.50098 -94.834 -19.501 -130.501s-29.333 -65.167 -49 -88.5s-41.167 -41.5 -64.5 -54.5s-45.666 -22.5 -66.999 -28.5s-39.833 -9.66699 -55.5 -11s-25.5 -2 -29.5 -2c-46 0 -85.5 6 -118.5 18s-60.5 25.333 -82.5 40
c-26 17.333 -47.667 36.666 -65 57.999l109 136l16.5 -17c7.66699 -8 17.667 -16 30 -24s27.666 -15.167 45.999 -21.5s39.833 -9.5 64.5 -9.5c30.667 0 54.5 6.83301 71.5 20.5s29.5 29.167 37.5 46.5c9.33301 20 15 42.667 17 68v188
c-2.66699 -18 -8.33398 -34.333 -17.001 -49s-19.167 -27.5 -31.5 -38.5s-26 -20.5 -41 -28.5s-30.167 -15 -45.5 -21c-36 -13.333 -75.667 -22.666 -119 -27.999h-36c-60.667 0 -112.167 8.33301 -154.5 25s-77.666 38.167 -105.999 64.5s-50.5 55.5 -66.5 87.5
s-28.167 63 -36.5 93s-13.5 57.333 -15.5 82s-3 43 -3 55v272c0 42.667 -5.83301 78.667 -17.5 108s-26.5 53.5 -44.5 72.5s-37.833 33.5 -59.5 43.5s-42.167 17.5 -61.5 22.5s-36.333 7.83301 -51 8.5s-24 1 -28 1c-32 0 -60.333 -3.66699 -85 -11s-46.167 -17 -64.5 -29
s-33.666 -25.667 -45.999 -41s-22.5 -31 -30.5 -47c-18.667 -37.333 -29.334 -80 -32.001 -128v-330c2 -35.333 9.66699 -66.333 23 -93c6 -11.333 13.333 -22.5 22 -33.5s19.334 -20.833 32.001 -29.5s27.667 -15.667 45 -21s37.666 -8 60.999 -8h116v-149h-215
c-45.333 3.33301 -86 16.333 -122 39c-15.333 10 -30.166 22.5 -44.499 37.5s-27.166 33.5 -38.499 55.5s-20.5 47.667 -27.5 77s-10.5 63.666 -10.5 102.999v22v487c22 40.667 46 75.334 72 104.001s52.833 52.667 80.5 72s55 34.5 82 45.5s52 19.333 75 25
s43.167 9.16699 60.5 10.5s30.333 2 39 2h8c69.333 -2 127.833 -13 175.5 -33s87.167 -44.5 118.5 -73.5s55.666 -60.5 72.999 -94.5s30 -66 38 -96s12.833 -56 14.5 -78s2.5 -35.667 2.5 -41v-259c0 -44.667 5.83301 -82.5 17.5 -113.5s26.5 -56.5 44.5 -76.5
s37.667 -35.5 59 -46.5s41.5 -18.833 60.5 -23.5s35.833 -7.5 50.5 -8.5s24 -1.5 28 -1.5c42 0 77.167 6.33301 105.5 19s51.833 28.5 70.5 47.5s33.167 39.667 43.5 62s17.833 43.5 22.5 63.5s7.5 37.333 8.5 52s1.5 23.334 1.5 26.001v667h160z" />
    <glyph glyph-name="yoyingthai.002" unicode="&#xde;" horiz-adv-x="1712" 
d="M1611 -38c0 -51.333 -6.50098 -94.834 -19.501 -130.501s-29.333 -65.167 -49 -88.5s-41.167 -41.5 -64.5 -54.5s-45.666 -22.5 -66.999 -28.5s-39.833 -9.66699 -55.5 -11s-25.5 -2 -29.5 -2c-46 0 -85.5 6 -118.5 18s-60.5 25.333 -82.5 40
c-26 17.333 -47.667 36.666 -65 57.999l109 136l16.5 -17c7.66699 -8 17.667 -16 30 -24s27.666 -15.167 45.999 -21.5s39.833 -9.5 64.5 -9.5c30.667 0 54.5 6.83301 71.5 20.5s29.5 29.167 37.5 46.5c9.33301 20 15 42.667 17 68v188
c-2.66699 -18 -8.33398 -34.333 -17.001 -49s-19.167 -27.5 -31.5 -38.5s-26 -20.5 -41 -28.5s-30.167 -15 -45.5 -21c-36 -13.333 -75.667 -22.666 -119 -27.999h-36c-60.667 0 -112.167 8.33301 -154.5 25s-77.666 38.167 -105.999 64.5s-50.5 55.5 -66.5 87.5
s-28.167 63 -36.5 93s-13.5 57.333 -15.5 82s-3 43 -3 55v272c0 42.667 -5.83301 78.667 -17.5 108s-26.5 53.5 -44.5 72.5s-37.833 33.5 -59.5 43.5s-42.167 17.5 -61.5 22.5s-36.333 7.83301 -51 8.5s-24 1 -28 1c-32 0 -60.333 -3.66699 -85 -11s-46.167 -17 -64.5 -29
s-33.666 -25.667 -45.999 -41s-22.5 -31 -30.5 -47c-18.667 -37.333 -29.334 -80 -32.001 -128v-330c2 -35.333 9.66699 -66.333 23 -93c6 -11.333 13.333 -22.5 22 -33.5s19.334 -20.833 32.001 -29.5s27.667 -15.667 45 -21s37.666 -8 60.999 -8h116v-149h-215
c-45.333 3.33301 -86 16.333 -122 39c-15.333 10 -30.166 22.5 -44.499 37.5s-27.166 33.5 -38.499 55.5s-20.5 47.667 -27.5 77s-10.5 63.666 -10.5 102.999v22v487c22 40.667 46 75.334 72 104.001s52.833 52.667 80.5 72s55 34.5 82 45.5s52 19.333 75 25
s43.167 9.16699 60.5 10.5s30.333 2 39 2h8c69.333 -2 127.833 -13 175.5 -33s87.167 -44.5 118.5 -73.5s55.666 -60.5 72.999 -94.5s30 -66 38 -96s12.833 -56 14.5 -78s2.5 -35.667 2.5 -41v-259c0 -44.667 5.83301 -82.5 17.5 -113.5s26.5 -56.5 44.5 -76.5
s37.667 -35.5 59 -46.5s41.5 -18.833 60.5 -23.5s35.833 -7.5 50.5 -8.5s24 -1.5 28 -1.5c42 0 77.167 6.33301 105.5 19s51.833 28.5 70.5 47.5s33.167 39.667 43.5 62s17.833 43.5 22.5 63.5s7.5 37.333 8.5 52s1.5 23.334 1.5 26.001v667h160z" />
    <glyph glyph-name="dochadathai" unicode="&#xae;" horiz-adv-x="1100" 
d="M712 -285c2.66699 0 7.83496 3.66504 15.502 10.998s15.5 16.833 23.5 28.5s15.167 24.667 21.5 39s9.5 28.5 9.5 42.5v829c0 42.667 -5.83301 78.5 -17.5 107.5s-26.5 53 -44.5 72s-37.833 33.5 -59.5 43.5s-42.167 17.5 -61.5 22.5s-36.333 7.83301 -51 8.5
s-24 1 -28 1c-32 0 -60.333 -3.66699 -85 -11s-46.167 -17 -64.5 -29s-33.666 -25.667 -45.999 -41s-22.5 -31 -30.5 -47c-18.667 -37.333 -29.334 -79.666 -32.001 -126.999v-665h-259v150h99v672c21.333 40.667 45.166 75.334 71.499 104.001s53.333 52.5 81 71.5
s55 34 82 45s52 19.333 75 25s43.167 9.16699 60.5 10.5s30.333 2 39 2h9c69.333 -2 127.833 -13 175.5 -33s87.167 -44.5 118.5 -73.5s55.666 -60.333 72.999 -94s30 -65.5 38 -95.5s12.833 -56 14.5 -78s2.5 -35.667 2.5 -41v-829c-2 -49.333 -13 -94.666 -33 -135.999
c-8.66699 -17.333 -19.5 -34.833 -32.5 -52.5s-29.167 -33.834 -48.5 -48.501s-42 -27.167 -68 -37.5s-56.333 -17.5 -91 -21.5l-129 118l-127 -118h-410v150h341l196 186l12 -11l31 -28.5l41 -38l41 -38.5l32.5 -31z" />
    <glyph glyph-name="dochadathai" unicode="&#xe0e;" horiz-adv-x="1100" 
d="M712 -285c2.66699 0 7.83496 3.66504 15.502 10.998s15.5 16.833 23.5 28.5s15.167 24.667 21.5 39s9.5 28.5 9.5 42.5v829c0 42.667 -5.83301 78.5 -17.5 107.5s-26.5 53 -44.5 72s-37.833 33.5 -59.5 43.5s-42.167 17.5 -61.5 22.5s-36.333 7.83301 -51 8.5
s-24 1 -28 1c-32 0 -60.333 -3.66699 -85 -11s-46.167 -17 -64.5 -29s-33.666 -25.667 -45.999 -41s-22.5 -31 -30.5 -47c-18.667 -37.333 -29.334 -79.666 -32.001 -126.999v-665h-259v150h99v672c21.333 40.667 45.166 75.334 71.499 104.001s53.333 52.5 81 71.5
s55 34 82 45s52 19.333 75 25s43.167 9.16699 60.5 10.5s30.333 2 39 2h9c69.333 -2 127.833 -13 175.5 -33s87.167 -44.5 118.5 -73.5s55.666 -60.333 72.999 -94s30 -65.5 38 -95.5s12.833 -56 14.5 -78s2.5 -35.667 2.5 -41v-829c-2 -49.333 -13 -94.666 -33 -135.999
c-8.66699 -17.333 -19.5 -34.833 -32.5 -52.5s-29.167 -33.834 -48.5 -48.501s-42 -27.167 -68 -37.5s-56.333 -17.5 -91 -21.5l-129 118l-127 -118h-410v150h341l196 186l12 -11l31 -28.5l41 -38l41 -38.5l32.5 -31z" />
    <glyph glyph-name="topatakthai" unicode="&#xaf;" horiz-adv-x="1081" 
d="M944 -164c-2 -49.333 -12.999 -94.668 -32.999 -136.001c-8.66699 -17.333 -19.5 -34.833 -32.5 -52.5s-29.167 -33.834 -48.5 -48.501s-42 -27.167 -68 -37.5s-56.333 -17.5 -91 -21.5l-116 102l-110 -102l-129 118l-127 -118h-174v150h105l196 186l122 -114l114 114
l162 -161c12.667 12.667 24.334 25.667 35.001 39c8.66699 11.333 16.667 24.333 24 39s11 29 11 43v829c0 42.667 -5.83301 78.5 -17.5 107.5s-26.5 53 -44.5 72s-37.833 33.5 -59.5 43.5s-42.167 17.5 -61.5 22.5s-36.333 7.83301 -51 8.5s-24 1 -28 1
c-32 0 -60.333 -3.66699 -85 -11s-46.167 -17 -64.5 -29s-33.666 -25.667 -45.999 -41s-22.5 -31 -30.5 -47c-18.667 -37.333 -29.334 -79.666 -32.001 -126.999v-665h-259v150h99v672c21.333 40.667 45.166 75.334 71.499 104.001s53.333 52.5 81 71.5s55 34 82 45
s52 19.333 75 25s43.167 9.16699 60.5 10.5s30.333 2 39 2h9c69.333 -2 127.833 -13 175.5 -33s87.167 -44.5 118.5 -73.5s55.666 -60.333 72.999 -94s30 -65.5 38 -95.5s12.833 -56 14.5 -78s2.5 -35.667 2.5 -41v-829v0z" />
    <glyph glyph-name="topatakthai" unicode="&#xe0f;" horiz-adv-x="1081" 
d="M944 -164c-2 -49.333 -12.999 -94.668 -32.999 -136.001c-8.66699 -17.333 -19.5 -34.833 -32.5 -52.5s-29.167 -33.834 -48.5 -48.501s-42 -27.167 -68 -37.5s-56.333 -17.5 -91 -21.5l-116 102l-110 -102l-129 118l-127 -118h-174v150h105l196 186l122 -114l114 114
l162 -161c12.667 12.667 24.334 25.667 35.001 39c8.66699 11.333 16.667 24.333 24 39s11 29 11 43v829c0 42.667 -5.83301 78.5 -17.5 107.5s-26.5 53 -44.5 72s-37.833 33.5 -59.5 43.5s-42.167 17.5 -61.5 22.5s-36.333 7.83301 -51 8.5s-24 1 -28 1
c-32 0 -60.333 -3.66699 -85 -11s-46.167 -17 -64.5 -29s-33.666 -25.667 -45.999 -41s-22.5 -31 -30.5 -47c-18.667 -37.333 -29.334 -79.666 -32.001 -126.999v-665h-259v150h99v672c21.333 40.667 45.166 75.334 71.499 104.001s53.333 52.5 81 71.5s55 34 82 45
s52 19.333 75 25s43.167 9.16699 60.5 10.5s30.333 2 39 2h9c69.333 -2 127.833 -13 175.5 -33s87.167 -44.5 118.5 -73.5s55.666 -60.333 72.999 -94s30 -65.5 38 -95.5s12.833 -56 14.5 -78s2.5 -35.667 2.5 -41v-829v0z" />
    <glyph glyph-name="thothanthai" unicode="&#xb0;" horiz-adv-x="1089" 
d="M927 1088c0 -5.33301 -5.33398 -14.501 -16.001 -27.501s-23.667 -26.833 -39 -41.5s-31 -28.667 -47 -42s-29.333 -22.666 -40 -27.999c26.667 -31.333 48.667 -69.833 66 -115.5s26 -101.834 26 -168.501v-665h-161v297c-7.33301 21.333 -17.166 41 -29.499 59
s-28.166 33 -47.499 45c-18.667 11.333 -38.5 20.166 -59.5 26.499s-44.167 9.5 -69.5 9.5c-18.667 0 -36.167 -0.5 -52.5 -1.5s-31.166 -5.16699 -44.499 -12.5v165c28.667 8 61 12 97 12c75.333 0 144 -18.333 206 -55v109c-4.66699 49.333 -17 93.666 -37 132.999
c-8.66699 16.667 -19.334 32.834 -32.001 48.501s-28 29.834 -46 42.501s-39 22.834 -63 30.501s-51.333 11.5 -82 11.5c-48.667 -2.66699 -92 -13.667 -130 -33c-16 -8 -31.833 -18.5 -47.5 -31.5s-29.667 -28.833 -42 -47.5s-22.166 -40.667 -29.499 -66
s-11 -54.666 -11 -87.999h-160v11c0 10.667 1 28.167 3 52.5s7.5 52 16.5 83s22.333 63 40 96s42 63 73 90s69.833 49.333 116.5 67s103.667 26.5 171 26.5h9c22 0 44.333 -1.5 67 -4.5s47 -8.16699 73 -15.5c28 4 55 11.667 81 23c22 9.33301 44.667 23.333 68 42
s42.666 43.667 57.999 75l53 -52l20 -20l18.5 -18.5c5.66699 -5.66699 10.667 -10.334 15 -14.001s7.16602 -6.16699 8.49902 -7.5zM263.999 -232.001l195.999 186l123 -114l114 114l161 -161c12.667 12.667 24.334 25.667 35.001 39c8.66699 11.333 16.667 24.333 24 39
s11 29 11 43v86h160v-86c-2 -49.333 -13 -94.666 -33 -135.999c-8.66699 -17.333 -19.5 -34.833 -32.5 -52.5s-29.167 -33.834 -48.5 -48.501s-42 -27.167 -68 -37.5s-56.333 -17.5 -91 -21.5l-116 102l-110 -102l-129 118l-127 -118h-174v150h105z" />
    <glyph glyph-name="thothanthai" unicode="&#xe10;" horiz-adv-x="1089" 
d="M927 1088c0 -5.33301 -5.33398 -14.501 -16.001 -27.501s-23.667 -26.833 -39 -41.5s-31 -28.667 -47 -42s-29.333 -22.666 -40 -27.999c26.667 -31.333 48.667 -69.833 66 -115.5s26 -101.834 26 -168.501v-665h-161v297c-7.33301 21.333 -17.166 41 -29.499 59
s-28.166 33 -47.499 45c-18.667 11.333 -38.5 20.166 -59.5 26.499s-44.167 9.5 -69.5 9.5c-18.667 0 -36.167 -0.5 -52.5 -1.5s-31.166 -5.16699 -44.499 -12.5v165c28.667 8 61 12 97 12c75.333 0 144 -18.333 206 -55v109c-4.66699 49.333 -17 93.666 -37 132.999
c-8.66699 16.667 -19.334 32.834 -32.001 48.501s-28 29.834 -46 42.501s-39 22.834 -63 30.501s-51.333 11.5 -82 11.5c-48.667 -2.66699 -92 -13.667 -130 -33c-16 -8 -31.833 -18.5 -47.5 -31.5s-29.667 -28.833 -42 -47.5s-22.166 -40.667 -29.499 -66
s-11 -54.666 -11 -87.999h-160v11c0 10.667 1 28.167 3 52.5s7.5 52 16.5 83s22.333 63 40 96s42 63 73 90s69.833 49.333 116.5 67s103.667 26.5 171 26.5h9c22 0 44.333 -1.5 67 -4.5s47 -8.16699 73 -15.5c28 4 55 11.667 81 23c22 9.33301 44.667 23.333 68 42
s42.666 43.667 57.999 75l53 -52l20 -20l18.5 -18.5c5.66699 -5.66699 10.667 -10.334 15 -14.001s7.16602 -6.16699 8.49902 -7.5zM263.999 -232.001l195.999 186l123 -114l114 114l161 -161c12.667 12.667 24.334 25.667 35.001 39c8.66699 11.333 16.667 24.333 24 39
s11 29 11 43v86h160v-86c-2 -49.333 -13 -94.666 -33 -135.999c-8.66699 -17.333 -19.5 -34.833 -32.5 -52.5s-29.167 -33.834 -48.5 -48.501s-42 -27.167 -68 -37.5s-56.333 -17.5 -91 -21.5l-116 102l-110 -102l-129 118l-127 -118h-174v150h105z" />
    <glyph glyph-name="thonangmonthothai" unicode="&#xb1;" horiz-adv-x="1270" 
d="M787 1080c60.667 0 112.168 -8.16504 154.501 -24.498s77.5 -37.333 105.5 -63s50.167 -54.167 66.5 -85.5s28.5 -61.833 36.5 -91.5s13 -56.667 15 -81s3 -42.5 3 -54.5v-680h-160v667c0 42 -5.83301 77.5 -17.5 106.5s-26.334 52.833 -44.001 71.5
s-37.167 33.167 -58.5 43.5s-41.666 17.833 -60.999 22.5s-36.166 7.33398 -50.499 8.00098s-23.5 1 -27.5 1c-41.333 0 -76.333 -5.83301 -105 -17.5s-52.334 -26.5 -71.001 -44.5s-33.167 -37.5 -43.5 -58.5s-18 -40.833 -23 -59.5s-8 -34.834 -9 -48.501
s-1.5 -21.834 -1.5 -24.501v-667h-160v864l-99 -94l-185 202l108 101l84 -94l92 94h160v-150c0.666992 19.333 5 36.5 13 51.5s18 28 30 39s25.667 20.167 41 27.5s30.666 13.666 45.999 18.999c36.667 12 78 18.667 124 20h37v0z" />
    <glyph glyph-name="thonangmonthothai" unicode="&#xe11;" horiz-adv-x="1270" 
d="M787 1080c60.667 0 112.168 -8.16504 154.501 -24.498s77.5 -37.333 105.5 -63s50.167 -54.167 66.5 -85.5s28.5 -61.833 36.5 -91.5s13 -56.667 15 -81s3 -42.5 3 -54.5v-680h-160v667c0 42 -5.83301 77.5 -17.5 106.5s-26.334 52.833 -44.001 71.5
s-37.167 33.167 -58.5 43.5s-41.666 17.833 -60.999 22.5s-36.166 7.33398 -50.499 8.00098s-23.5 1 -27.5 1c-41.333 0 -76.333 -5.83301 -105 -17.5s-52.334 -26.5 -71.001 -44.5s-33.167 -37.5 -43.5 -58.5s-18 -40.833 -23 -59.5s-8 -34.834 -9 -48.501
s-1.5 -21.834 -1.5 -24.501v-667h-160v864l-99 -94l-185 202l108 101l84 -94l92 94h160v-150c0.666992 19.333 5 36.5 13 51.5s18 28 30 39s25.667 20.167 41 27.5s30.666 13.666 45.999 18.999c36.667 12 78 18.667 124 20h37v0z" />
    <glyph glyph-name="thophuthaothai" unicode="&#xb2;" horiz-adv-x="1704" 
d="M1612 1073l-0.00292969 -667.999v-13c0 -12 -1 -30.333 -3 -55s-7.16699 -52 -15.5 -82s-20.5 -61 -36.5 -93s-38.167 -61.167 -66.5 -87.5s-63.666 -47.833 -105.999 -64.5s-93.833 -25 -154.5 -25h-37c-45.333 3.33301 -86.333 11.333 -123 24
c-15.333 5.33301 -30.666 12 -45.999 20s-29 17.667 -41 29s-22 24.5 -30 39.5s-12.333 32.5 -13 52.5v-150h-160v718c0 43.333 -7.66699 81.333 -23 114c-15.333 30.667 -36.666 55.667 -63.999 75l-173 -112l-172 112c-14 -10 -26.333 -21 -37 -33s-20 -26 -28 -42
c-15.333 -32.667 -23 -70.667 -23 -114v-383c2 -35.333 9.66699 -66.333 23 -93c6 -11.333 13.333 -22.5 22 -33.5s19.167 -20.833 31.5 -29.5s27.166 -15.667 44.499 -21s37.333 -8 60 -8h118v-150h-215c-45.333 3.33301 -86 16.333 -122 39
c-15.333 10 -30.333 22.5 -45 37.5s-27.667 33.5 -39 55.5s-20.5 47.833 -27.5 77.5s-10.5 64.167 -10.5 103.5v465c8 72.667 32.667 135.667 74 189c21.333 26.667 45 49.334 71 68.001s55 34.334 87 47.001l188 -116l188 116c32 -12.667 61 -28.334 87 -47.001
s49.667 -41.334 71 -68.001s37.833 -55.5 49.5 -86.5s19.834 -65.167 24.501 -102.5v-373c0 -2.66699 0.5 -11.334 1.5 -26.001s4 -32 9 -52s12.667 -41.167 23 -63.5s25 -43 44 -62s42.833 -34.833 71.5 -47.5s63.667 -19 105 -19c4 0 13.167 0.5 27.5 1.5
s31.166 3.83301 50.499 8.5s39.5 12.5 60.5 23.5s40.333 26.5 58 46.5s32.334 45.333 44.001 76s17.5 68.667 17.5 114v668h160z" />
    <glyph glyph-name="thophuthaothai" unicode="&#xe12;" horiz-adv-x="1704" 
d="M1612 1073l-0.00292969 -667.999v-13c0 -12 -1 -30.333 -3 -55s-7.16699 -52 -15.5 -82s-20.5 -61 -36.5 -93s-38.167 -61.167 -66.5 -87.5s-63.666 -47.833 -105.999 -64.5s-93.833 -25 -154.5 -25h-37c-45.333 3.33301 -86.333 11.333 -123 24
c-15.333 5.33301 -30.666 12 -45.999 20s-29 17.667 -41 29s-22 24.5 -30 39.5s-12.333 32.5 -13 52.5v-150h-160v718c0 43.333 -7.66699 81.333 -23 114c-15.333 30.667 -36.666 55.667 -63.999 75l-173 -112l-172 112c-14 -10 -26.333 -21 -37 -33s-20 -26 -28 -42
c-15.333 -32.667 -23 -70.667 -23 -114v-383c2 -35.333 9.66699 -66.333 23 -93c6 -11.333 13.333 -22.5 22 -33.5s19.167 -20.833 31.5 -29.5s27.166 -15.667 44.499 -21s37.333 -8 60 -8h118v-150h-215c-45.333 3.33301 -86 16.333 -122 39
c-15.333 10 -30.333 22.5 -45 37.5s-27.667 33.5 -39 55.5s-20.5 47.833 -27.5 77.5s-10.5 64.167 -10.5 103.5v465c8 72.667 32.667 135.667 74 189c21.333 26.667 45 49.334 71 68.001s55 34.334 87 47.001l188 -116l188 116c32 -12.667 61 -28.334 87 -47.001
s49.667 -41.334 71 -68.001s37.833 -55.5 49.5 -86.5s19.834 -65.167 24.501 -102.5v-373c0 -2.66699 0.5 -11.334 1.5 -26.001s4 -32 9 -52s12.667 -41.167 23 -63.5s25 -43 44 -62s42.833 -34.833 71.5 -47.5s63.667 -19 105 -19c4 0 13.167 0.5 27.5 1.5
s31.166 3.83301 50.499 8.5s39.5 12.5 60.5 23.5s40.333 26.5 58 46.5s32.334 45.333 44.001 76s17.5 68.667 17.5 114v668h160z" />
    <glyph glyph-name="nonenthai" unicode="&#xb3;" horiz-adv-x="1720" 
d="M1610 1073l-0.00195312 -1072h-159v149c-1.33301 -20 -6 -37.5 -14 -52.5s-18 -28.167 -30 -39.5s-25.667 -21 -41 -29s-30.666 -14.667 -45.999 -20c-36.667 -12 -77.667 -19.667 -123 -23h-37c-60.667 0 -112.167 8.33301 -154.5 25s-77.666 38.167 -105.999 64.5
s-50.5 55.5 -66.5 87.5s-28.167 63 -36.5 93s-13.5 57.333 -15.5 82s-3 43 -3 55c0 8.66699 0.333008 13 1 13v259c0 42.667 -5.83301 78.5 -17.5 107.5s-26.667 53 -45 72s-38.166 33.5 -59.499 43.5s-41.833 17.5 -61.5 22.5s-36.667 7.83301 -51 8.5s-23.5 1 -27.5 1
c-32 0 -60.333 -3.66699 -85 -11s-46.167 -17 -64.5 -29s-33.666 -25.667 -45.999 -41s-22.5 -31 -30.5 -47c-18.667 -37.333 -29.334 -79.666 -32.001 -126.999v-330c2 -35.333 9.66699 -66.333 23 -93c6 -11.333 13.333 -22.5 22 -33.5s19.334 -20.833 32.001 -29.5
s27.667 -15.667 45 -21s37.333 -8 60 -8h117v-149h-215c-45.333 3.33301 -86 16.333 -122 39c-15.333 10 -30.333 22.5 -45 37.5s-27.667 33.5 -39 55.5s-20.5 47.667 -27.5 77s-10.5 63.666 -10.5 102.999v22v487c21.333 40.667 45.166 75.334 71.499 104.001
s53.333 52.5 81 71.5s55 34.167 82 45.5s52 19.833 75 25.5s43.167 9.16699 60.5 10.5s30.333 2 39 2h9c69.333 -2 127.833 -13 175.5 -33s87.167 -44.5 118.5 -73.5s55.666 -60.5 72.999 -94.5s30 -66 38 -96s12.833 -56 14.5 -78s2.5 -35.667 2.5 -41v-259
c0 -45.333 5.83301 -83.5 17.5 -114.5s26.334 -56.5 44.001 -76.5s37 -35.333 58 -46s41.167 -18.5 60.5 -23.5s36.166 -8 50.499 -9s23.5 -1.5 27.5 -1.5c41.333 0 76.333 6.33301 105 19s52.5 28.5 71.5 47.5s33.667 39.833 44 62.5s18 44 23 64s8 37.333 9 52
s1.5 23.334 1.5 26.001v667h159z" />
    <glyph glyph-name="nonenthai" unicode="&#xe13;" horiz-adv-x="1720" 
d="M1610 1073l-0.00195312 -1072h-159v149c-1.33301 -20 -6 -37.5 -14 -52.5s-18 -28.167 -30 -39.5s-25.667 -21 -41 -29s-30.666 -14.667 -45.999 -20c-36.667 -12 -77.667 -19.667 -123 -23h-37c-60.667 0 -112.167 8.33301 -154.5 25s-77.666 38.167 -105.999 64.5
s-50.5 55.5 -66.5 87.5s-28.167 63 -36.5 93s-13.5 57.333 -15.5 82s-3 43 -3 55c0 8.66699 0.333008 13 1 13v259c0 42.667 -5.83301 78.5 -17.5 107.5s-26.667 53 -45 72s-38.166 33.5 -59.499 43.5s-41.833 17.5 -61.5 22.5s-36.667 7.83301 -51 8.5s-23.5 1 -27.5 1
c-32 0 -60.333 -3.66699 -85 -11s-46.167 -17 -64.5 -29s-33.666 -25.667 -45.999 -41s-22.5 -31 -30.5 -47c-18.667 -37.333 -29.334 -79.666 -32.001 -126.999v-330c2 -35.333 9.66699 -66.333 23 -93c6 -11.333 13.333 -22.5 22 -33.5s19.334 -20.833 32.001 -29.5
s27.667 -15.667 45 -21s37.333 -8 60 -8h117v-149h-215c-45.333 3.33301 -86 16.333 -122 39c-15.333 10 -30.333 22.5 -45 37.5s-27.667 33.5 -39 55.5s-20.5 47.667 -27.5 77s-10.5 63.666 -10.5 102.999v22v487c21.333 40.667 45.166 75.334 71.499 104.001
s53.333 52.5 81 71.5s55 34.167 82 45.5s52 19.833 75 25.5s43.167 9.16699 60.5 10.5s30.333 2 39 2h9c69.333 -2 127.833 -13 175.5 -33s87.167 -44.5 118.5 -73.5s55.666 -60.5 72.999 -94.5s30 -66 38 -96s12.833 -56 14.5 -78s2.5 -35.667 2.5 -41v-259
c0 -45.333 5.83301 -83.5 17.5 -114.5s26.334 -56.5 44.001 -76.5s37 -35.333 58 -46s41.167 -18.5 60.5 -23.5s36.166 -8 50.499 -9s23.5 -1.5 27.5 -1.5c41.333 0 76.333 6.33301 105 19s52.5 28.5 71.5 47.5s33.667 39.833 44 62.5s18 44 23 64s8 37.333 9 52
s1.5 23.334 1.5 26.001v667h159z" />
    <glyph glyph-name="dodekthai" unicode="&#xb4;" horiz-adv-x="1051" 
d="M781 0l0.00488281 675c-3.33301 45.333 -15.333 86 -36 122c-8.66699 15.333 -19.667 30.333 -33 45s-29.666 27.834 -48.999 39.501s-41.833 21 -67.5 28s-55.5 10.5 -89.5 10.5s-63.833 -3.5 -89.5 -10.5s-48 -16.333 -67 -28s-35.167 -24.834 -48.5 -39.501
s-24.333 -29.667 -33 -45c-20.667 -36 -32.667 -76.667 -36 -122v-352c2.66699 -22.667 7.66699 -44.334 15 -65.001c6 -18 14.167 -36.333 24.5 -55s24.166 -33.667 41.499 -45c22 -15.333 43.667 -23 65 -23c19.333 0 36.666 4.33301 51.999 13s27.666 17.667 36.999 27
l104 -106c-16 -16 -34 -30 -54 -42c-17.333 -10.667 -38.166 -20.334 -62.499 -29.001s-51.5 -13 -81.5 -13c-9.33301 0 -19.166 0.5 -29.499 1.5s-20.833 2.83301 -31.5 5.5c-38.667 9.33301 -73 24.833 -103 46.5s-55.167 47.334 -75.5 77.001
s-35.666 62.334 -45.999 98.001s-15.5 72.167 -15.5 109.5v352c6 64 19 118.5 39 163.5s43.667 82.333 71 112s56.666 53.167 87.999 70.5s61.666 30.166 90.999 38.499s55.666 13.666 78.999 15.999s40.666 3.5 51.999 3.5h14h13c11.333 0 28.666 -1.16699 51.999 -3.5
s49.666 -7.66602 78.999 -15.999s59.833 -21.166 91.5 -38.499s61.167 -40.833 88.5 -70.5s51 -67 71 -112s33.333 -99.5 40 -163.5v-675h-160z" />
    <glyph glyph-name="dodekthai" unicode="&#xe14;" horiz-adv-x="1051" 
d="M781 0l0.00488281 675c-3.33301 45.333 -15.333 86 -36 122c-8.66699 15.333 -19.667 30.333 -33 45s-29.666 27.834 -48.999 39.501s-41.833 21 -67.5 28s-55.5 10.5 -89.5 10.5s-63.833 -3.5 -89.5 -10.5s-48 -16.333 -67 -28s-35.167 -24.834 -48.5 -39.501
s-24.333 -29.667 -33 -45c-20.667 -36 -32.667 -76.667 -36 -122v-352c2.66699 -22.667 7.66699 -44.334 15 -65.001c6 -18 14.167 -36.333 24.5 -55s24.166 -33.667 41.499 -45c22 -15.333 43.667 -23 65 -23c19.333 0 36.666 4.33301 51.999 13s27.666 17.667 36.999 27
l104 -106c-16 -16 -34 -30 -54 -42c-17.333 -10.667 -38.166 -20.334 -62.499 -29.001s-51.5 -13 -81.5 -13c-9.33301 0 -19.166 0.5 -29.499 1.5s-20.833 2.83301 -31.5 5.5c-38.667 9.33301 -73 24.833 -103 46.5s-55.167 47.334 -75.5 77.001
s-35.666 62.334 -45.999 98.001s-15.5 72.167 -15.5 109.5v352c6 64 19 118.5 39 163.5s43.667 82.333 71 112s56.666 53.167 87.999 70.5s61.666 30.166 90.999 38.499s55.666 13.666 78.999 15.999s40.666 3.5 51.999 3.5h14h13c11.333 0 28.666 -1.16699 51.999 -3.5
s49.666 -7.66602 78.999 -15.999s59.833 -21.166 91.5 -38.499s61.167 -40.833 88.5 -70.5s51 -67 71 -112s33.333 -99.5 40 -163.5v-675h-160z" />
    <glyph glyph-name="totaothai" unicode="&#xb5;" horiz-adv-x="1043" 
d="M867 967c20.667 -26 36.833 -54.668 48.5 -86.001s19.834 -65.666 24.501 -102.999v-778h-160v718c0 44 -7.66699 82 -23 114c-16 32 -37.333 57 -64 75l-173 -112l-172 112c-28 -18.667 -49.667 -43.667 -65 -75c-15.333 -32 -23 -70 -23 -114v-383
c2 -35.333 9.66699 -66.333 23 -93c6 -11.333 13.333 -22.5 22 -33.5s19.167 -20.833 31.5 -29.5s27.166 -15.667 44.499 -21s37.333 -8 60 -8h118v-150h-215c-45.333 3.33301 -86 16.333 -122 39c-15.333 10 -30.333 22.5 -45 37.5s-27.667 33.5 -39 55.5
s-20.5 47.833 -27.5 77.5s-10.5 64.167 -10.5 103.5v465c8 73.333 32.667 136.333 74 189s94 91 158 115l188 -116l188 116c63.333 -24 116.333 -62.333 159 -115z" />
    <glyph glyph-name="totaothai" unicode="&#xe15;" horiz-adv-x="1043" 
d="M867 967c20.667 -26 36.833 -54.668 48.5 -86.001s19.834 -65.666 24.501 -102.999v-778h-160v718c0 44 -7.66699 82 -23 114c-16 32 -37.333 57 -64 75l-173 -112l-172 112c-28 -18.667 -49.667 -43.667 -65 -75c-15.333 -32 -23 -70 -23 -114v-383
c2 -35.333 9.66699 -66.333 23 -93c6 -11.333 13.333 -22.5 22 -33.5s19.167 -20.833 31.5 -29.5s27.166 -15.667 44.499 -21s37.333 -8 60 -8h118v-150h-215c-45.333 3.33301 -86 16.333 -122 39c-15.333 10 -30.333 22.5 -45 37.5s-27.667 33.5 -39 55.5
s-20.5 47.833 -27.5 77.5s-10.5 64.167 -10.5 103.5v465c8 73.333 32.667 136.333 74 189s94 91 158 115l188 -116l188 116c63.333 -24 116.333 -62.333 159 -115z" />
    <glyph glyph-name="thothungthai" unicode="&#xb6;" horiz-adv-x="1039" 
d="M519 1080c52 -1.33301 97.668 -8.00195 137.001 -20.002s73.833 -27.167 103.5 -45.5s54.667 -39.166 75 -62.499s37.166 -47.333 50.499 -72s23.666 -49 30.999 -73s12.833 -45.833 16.5 -65.5s5.83398 -36.334 6.50098 -50.001s1 -22.5 1 -26.5v-665h-160v665
c0 42.667 -5.83301 78.5 -17.5 107.5s-26.5 53 -44.5 72s-37.833 33.5 -59.5 43.5s-42.167 17.5 -61.5 22.5s-36.166 7.83301 -50.499 8.5s-23.5 1 -27.5 1c-32.667 0 -61.334 -3.66699 -86.001 -11s-46.167 -17 -64.5 -29s-33.666 -25.667 -45.999 -41s-22.5 -31 -30.5 -47
c-18.667 -37.333 -29.334 -79.666 -32.001 -126.999v-515h99v-150h-259v822c22 40.667 46 75.334 72 104.001s52.833 52.5 80.5 71.5s55 34 82 45s52 19.333 75 25s43.167 9.16699 60.5 10.5s30.333 2 39 2h10v0z" />
    <glyph glyph-name="thothungthai" unicode="&#xe16;" horiz-adv-x="1039" 
d="M519 1080c52 -1.33301 97.668 -8.00195 137.001 -20.002s73.833 -27.167 103.5 -45.5s54.667 -39.166 75 -62.499s37.166 -47.333 50.499 -72s23.666 -49 30.999 -73s12.833 -45.833 16.5 -65.5s5.83398 -36.334 6.50098 -50.001s1 -22.5 1 -26.5v-665h-160v665
c0 42.667 -5.83301 78.5 -17.5 107.5s-26.5 53 -44.5 72s-37.833 33.5 -59.5 43.5s-42.167 17.5 -61.5 22.5s-36.166 7.83301 -50.499 8.5s-23.5 1 -27.5 1c-32.667 0 -61.334 -3.66699 -86.001 -11s-46.167 -17 -64.5 -29s-33.666 -25.667 -45.999 -41s-22.5 -31 -30.5 -47
c-18.667 -37.333 -29.334 -79.666 -32.001 -126.999v-515h99v-150h-259v822c22 40.667 46 75.334 72 104.001s52.833 52.5 80.5 71.5s55 34 82 45s52 19.333 75 25s43.167 9.16699 60.5 10.5s30.333 2 39 2h10v0z" />
    <glyph glyph-name="thothahanthai" unicode="&#xb7;" horiz-adv-x="1039" 
d="M772 0l0.000976562 667.002c0 42 -5.83301 77.5 -17.5 106.5s-26.334 52.833 -44.001 71.5s-37.167 33.167 -58.5 43.5s-41.666 17.833 -60.999 22.5s-36.166 7.33398 -50.499 8.00098s-23.5 1 -27.5 1c-41.333 0 -76.333 -5.83301 -105 -17.5
s-52.334 -26.5 -71.001 -44.5s-33.167 -37.5 -43.5 -58.5s-18 -40.833 -23 -59.5s-8 -34.834 -9 -48.501s-1.5 -21.834 -1.5 -24.501v-667h-160v1073h160v-150c0.666992 19.333 5 36.5 13 51.5s18 28 30 39s25.667 20.167 41 27.5s30.666 13.666 45.999 18.999
c36.667 12 78 18.667 124 20h37c60.667 0 112.167 -8.16699 154.5 -24.5s77.5 -37.333 105.5 -63s50.167 -54.167 66.5 -85.5s28.5 -61.833 36.5 -91.5s13 -56.667 15 -81s3 -42.5 3 -54.5v-13v-667h-160z" />
    <glyph glyph-name="thothahanthai" unicode="&#x2219;" horiz-adv-x="1039" 
d="M772 0l0.000976562 667.002c0 42 -5.83301 77.5 -17.5 106.5s-26.334 52.833 -44.001 71.5s-37.167 33.167 -58.5 43.5s-41.666 17.833 -60.999 22.5s-36.166 7.33398 -50.499 8.00098s-23.5 1 -27.5 1c-41.333 0 -76.333 -5.83301 -105 -17.5
s-52.334 -26.5 -71.001 -44.5s-33.167 -37.5 -43.5 -58.5s-18 -40.833 -23 -59.5s-8 -34.834 -9 -48.501s-1.5 -21.834 -1.5 -24.501v-667h-160v1073h160v-150c0.666992 19.333 5 36.5 13 51.5s18 28 30 39s25.667 20.167 41 27.5s30.666 13.666 45.999 18.999
c36.667 12 78 18.667 124 20h37c60.667 0 112.167 -8.16699 154.5 -24.5s77.5 -37.333 105.5 -63s50.167 -54.167 66.5 -85.5s28.5 -61.833 36.5 -91.5s13 -56.667 15 -81s3 -42.5 3 -54.5v-13v-667h-160z" />
    <glyph glyph-name="thothahanthai" unicode="&#xe17;" horiz-adv-x="1039" 
d="M772 0l0.000976562 667.002c0 42 -5.83301 77.5 -17.5 106.5s-26.334 52.833 -44.001 71.5s-37.167 33.167 -58.5 43.5s-41.666 17.833 -60.999 22.5s-36.166 7.33398 -50.499 8.00098s-23.5 1 -27.5 1c-41.333 0 -76.333 -5.83301 -105 -17.5
s-52.334 -26.5 -71.001 -44.5s-33.167 -37.5 -43.5 -58.5s-18 -40.833 -23 -59.5s-8 -34.834 -9 -48.501s-1.5 -21.834 -1.5 -24.501v-667h-160v1073h160v-150c0.666992 19.333 5 36.5 13 51.5s18 28 30 39s25.667 20.167 41 27.5s30.666 13.666 45.999 18.999
c36.667 12 78 18.667 124 20h37c60.667 0 112.167 -8.16699 154.5 -24.5s77.5 -37.333 105.5 -63s50.167 -54.167 66.5 -85.5s28.5 -61.833 36.5 -91.5s13 -56.667 15 -81s3 -42.5 3 -54.5v-13v-667h-160z" />
    <glyph glyph-name="thothongthai" unicode="&#xb8;" horiz-adv-x="877" 
d="M560 603c35.333 -6 69.333 -17.833 102 -35.5s61.5 -39.5 86.5 -65.5s45 -55.667 60 -89s22.5 -68.666 22.5 -105.999c0 -55.333 -10 -103.333 -30 -144s-47.167 -74.167 -81.5 -100.5s-74.666 -45.833 -120.999 -58.5s-95.5 -19 -147.5 -19
c-45.333 0 -86.666 3.5 -123.999 10.5s-71 15.833 -101 26.5s-56.167 22.334 -78.5 35.001s-41.166 24.667 -56.499 36v249h160v-163c28.667 -12.667 59.834 -23 93.501 -31s68.5 -12 104.5 -12c33.333 0 63.5 4.16699 90.5 12.5s50 20.166 69 35.499s33.5 33.333 43.5 54
s15 43.667 15 69c0 26 -4.33301 47.167 -13 63.5s-18.834 29.166 -30.501 38.499s-23.5 15.833 -35.5 19.5s-21.333 6.16699 -28 7.5c-2.66699 0.666992 -13.5 2.5 -32.5 5.5l-64.5 10.5l-72 12c-24 4 -42 7.33301 -54 10c-8 1.33301 -19.333 4.16602 -34 8.49902
s-30.834 10.666 -48.501 18.999s-35.667 19.333 -54 33s-35 31 -50 52s-27.167 46 -36.5 75s-14 62.833 -14 101.5c0 58 10.333 107.167 31 147.5s47.667 73.166 81 98.499s71 43.666 113 54.999s84.333 17 127 17c44 0 84.167 -5 120.5 -15s67.833 -20.667 94.5 -32
c31.333 -13.333 59.333 -28.666 84 -45.999l82 -56l-89 -134l-68 44c-16.667 10.667 -35.334 20.834 -56.001 30.501s-41.5 18.167 -62.5 25.5s-40.833 13 -59.5 17s-34 6 -46 6c-25.333 0 -49.333 -2.16699 -72 -6.5s-42.667 -12.333 -60 -24s-31.166 -27.667 -41.499 -48
s-15.5 -46.833 -15.5 -79.5s8.83301 -58.167 26.5 -76.5s40.667 -32.666 69 -42.999s60.166 -18.166 95.499 -23.499s70.666 -11 105.999 -17z" />
    <glyph glyph-name="thothongthai" unicode="&#xe18;" horiz-adv-x="877" 
d="M560 603c35.333 -6 69.333 -17.833 102 -35.5s61.5 -39.5 86.5 -65.5s45 -55.667 60 -89s22.5 -68.666 22.5 -105.999c0 -55.333 -10 -103.333 -30 -144s-47.167 -74.167 -81.5 -100.5s-74.666 -45.833 -120.999 -58.5s-95.5 -19 -147.5 -19
c-45.333 0 -86.666 3.5 -123.999 10.5s-71 15.833 -101 26.5s-56.167 22.334 -78.5 35.001s-41.166 24.667 -56.499 36v249h160v-163c28.667 -12.667 59.834 -23 93.501 -31s68.5 -12 104.5 -12c33.333 0 63.5 4.16699 90.5 12.5s50 20.166 69 35.499s33.5 33.333 43.5 54
s15 43.667 15 69c0 26 -4.33301 47.167 -13 63.5s-18.834 29.166 -30.501 38.499s-23.5 15.833 -35.5 19.5s-21.333 6.16699 -28 7.5c-2.66699 0.666992 -13.5 2.5 -32.5 5.5l-64.5 10.5l-72 12c-24 4 -42 7.33301 -54 10c-8 1.33301 -19.333 4.16602 -34 8.49902
s-30.834 10.666 -48.501 18.999s-35.667 19.333 -54 33s-35 31 -50 52s-27.167 46 -36.5 75s-14 62.833 -14 101.5c0 58 10.333 107.167 31 147.5s47.667 73.166 81 98.499s71 43.666 113 54.999s84.333 17 127 17c44 0 84.167 -5 120.5 -15s67.833 -20.667 94.5 -32
c31.333 -13.333 59.333 -28.666 84 -45.999l82 -56l-89 -134l-68 44c-16.667 10.667 -35.334 20.834 -56.001 30.501s-41.5 18.167 -62.5 25.5s-40.833 13 -59.5 17s-34 6 -46 6c-25.333 0 -49.333 -2.16699 -72 -6.5s-42.667 -12.333 -60 -24s-31.166 -27.667 -41.499 -48
s-15.5 -46.833 -15.5 -79.5s8.83301 -58.167 26.5 -76.5s40.667 -32.666 69 -42.999s60.166 -18.166 95.499 -23.499s70.666 -11 105.999 -17z" />
    <glyph glyph-name="nonuthai" unicode="&#xb9;" horiz-adv-x="1047" 
d="M260 1073l-0.000976562 -667.001c0 -45.333 5.83301 -83.5 17.5 -114.5s26.334 -56.5 44.001 -76.5s37.167 -35.333 58.5 -46s41.666 -18.5 60.999 -23.5s36.166 -8 50.499 -9s23.5 -1.5 27.5 -1.5c41.333 0 76.333 6.33301 105 19s52.334 28.5 71.001 47.5
s33.167 39.833 43.5 62.5s18 44 23 64s8 37.333 9 52s1.5 23.334 1.5 26.001v667h160v-1073h-160v150c-1.33301 -20 -6 -37.5 -14 -52.5s-18 -28.167 -30 -39.5s-25.5 -21 -40.5 -29s-30.167 -14.667 -45.5 -20c-36.667 -12.667 -77.667 -20.667 -123 -24h-37
c-60.667 0 -112.167 8.5 -154.5 25.5s-77.666 38.5 -105.999 64.5s-50.5 55 -66.5 87s-28.167 63.167 -36.5 93.5s-13.5 57.833 -15.5 82.5s-3 43 -3 55v13v667h160z" />
    <glyph glyph-name="nonuthai" unicode="&#xe19;" horiz-adv-x="1047" 
d="M260 1073l-0.000976562 -667.001c0 -45.333 5.83301 -83.5 17.5 -114.5s26.334 -56.5 44.001 -76.5s37.167 -35.333 58.5 -46s41.666 -18.5 60.999 -23.5s36.166 -8 50.499 -9s23.5 -1.5 27.5 -1.5c41.333 0 76.333 6.33301 105 19s52.334 28.5 71.001 47.5
s33.167 39.833 43.5 62.5s18 44 23 64s8 37.333 9 52s1.5 23.334 1.5 26.001v667h160v-1073h-160v150c-1.33301 -20 -6 -37.5 -14 -52.5s-18 -28.167 -30 -39.5s-25.5 -21 -40.5 -29s-30.167 -14.667 -45.5 -20c-36.667 -12.667 -77.667 -20.667 -123 -24h-37
c-60.667 0 -112.167 8.5 -154.5 25.5s-77.666 38.5 -105.999 64.5s-50.5 55 -66.5 87s-28.167 63.167 -36.5 93.5s-13.5 57.833 -15.5 82.5s-3 43 -3 55v13v667h160z" />
    <glyph glyph-name="bobaimaithai" unicode="&#xba;" horiz-adv-x="1043" 
d="M932 1074l-0.00195312 -704c-6.66699 -72.667 -26 -137 -58 -193c-13.333 -24 -30.166 -47.5 -50.499 -70.5s-45.166 -43.5 -74.499 -61.5s-63.5 -32.5 -102.5 -43.5s-83.833 -16.5 -134.5 -16.5c-51.333 0 -96.5 5.5 -135.5 16.5s-73.167 25.5 -102.5 43.5
s-54.166 38.5 -74.499 61.5s-37.166 46.5 -50.499 70.5c-32 56 -51 120.333 -57 193v704h160v-704c0 -29.333 3.66699 -55.333 11 -78s17.166 -42.167 29.499 -58.5s26.333 -30.166 42 -41.499s31.5 -20.666 47.5 -27.999c38 -17.333 81.333 -27 130 -29
c48.667 2 92 11.667 130 29c16 7.33301 31.833 16.666 47.5 27.999s29.667 25.166 42 41.499s22.166 35.833 29.499 58.5s11 48.667 11 78v704h160z" />
    <glyph glyph-name="bobaimaithai" unicode="&#xe1a;" horiz-adv-x="1043" 
d="M932 1074l-0.00195312 -704c-6.66699 -72.667 -26 -137 -58 -193c-13.333 -24 -30.166 -47.5 -50.499 -70.5s-45.166 -43.5 -74.499 -61.5s-63.5 -32.5 -102.5 -43.5s-83.833 -16.5 -134.5 -16.5c-51.333 0 -96.5 5.5 -135.5 16.5s-73.167 25.5 -102.5 43.5
s-54.166 38.5 -74.499 61.5s-37.166 46.5 -50.499 70.5c-32 56 -51 120.333 -57 193v704h160v-704c0 -29.333 3.66699 -55.333 11 -78s17.166 -42.167 29.499 -58.5s26.333 -30.166 42 -41.499s31.5 -20.666 47.5 -27.999c38 -17.333 81.333 -27 130 -29
c48.667 2 92 11.667 130 29c16 7.33301 31.833 16.666 47.5 27.999s29.667 25.166 42 41.499s22.166 35.833 29.499 58.5s11 48.667 11 78v704h160z" />
    <glyph glyph-name="poplathai" unicode="&#xbb;" horiz-adv-x="1036" 
d="M932 1466l-0.00195312 -1104c-6.66699 -72.667 -26 -137 -58 -193c-13.333 -24 -30.166 -47.5 -50.499 -70.5s-45.166 -43.5 -74.499 -61.5s-63.5 -32.5 -102.5 -43.5s-83.833 -16.5 -134.5 -16.5c-51.333 0 -96.5 5.5 -135.5 16.5s-73.167 25.5 -102.5 43.5
s-54.166 38.5 -74.499 61.5s-37.166 46.5 -50.499 70.5c-32 56 -51 120.333 -57 193v704h160v-704c0 -28.667 3.66699 -53.834 11 -75.501s17.166 -40.5 29.499 -56.5s26.333 -29.5 42 -40.5s31.5 -19.833 47.5 -26.5c38 -16.667 81.333 -26 130 -28
c48.667 2 92 11.333 130 28c16 6.66699 31.833 15.5 47.5 26.5s29.667 24.5 42 40.5s22.166 34.833 29.499 56.5s11 46.834 11 75.501v1104h160z" />
    <glyph glyph-name="poplathai" unicode="&#xe1b;" horiz-adv-x="1036" 
d="M932 1466l-0.00195312 -1104c-6.66699 -72.667 -26 -137 -58 -193c-13.333 -24 -30.166 -47.5 -50.499 -70.5s-45.166 -43.5 -74.499 -61.5s-63.5 -32.5 -102.5 -43.5s-83.833 -16.5 -134.5 -16.5c-51.333 0 -96.5 5.5 -135.5 16.5s-73.167 25.5 -102.5 43.5
s-54.166 38.5 -74.499 61.5s-37.166 46.5 -50.499 70.5c-32 56 -51 120.333 -57 193v704h160v-704c0 -28.667 3.66699 -53.834 11 -75.501s17.166 -40.5 29.499 -56.5s26.333 -29.5 42 -40.5s31.5 -19.833 47.5 -26.5c38 -16.667 81.333 -26 130 -28
c48.667 2 92 11.333 130 28c16 6.66699 31.833 15.5 47.5 26.5s29.667 24.5 42 40.5s22.166 34.833 29.499 56.5s11 46.834 11 75.501v1104h160z" />
    <glyph glyph-name="phophungthai" unicode="&#xbc;" horiz-adv-x="1174" 
d="M1091 1073l0.000976562 -812c-5.33301 -51.333 -19.666 -97.333 -42.999 -138c-10 -17.333 -22.5 -34.166 -37.5 -50.499s-33 -31 -54 -44s-45.5 -23.5 -73.5 -31.5s-60 -12 -96 -12c-26.667 0 -51.5 3.5 -74.5 10.5s-43 17.333 -60 31s-30.5 30.834 -40.5 51.501
s-15.333 44.667 -16 72c-0.666992 -27.333 -6 -51.333 -16 -72s-23.667 -37.834 -41 -51.501s-37.5 -24 -60.5 -31s-47.833 -10.5 -74.5 -10.5c-36 0 -68 4 -96 12s-52.5 18.5 -73.5 31.5s-38.833 27.667 -53.5 44s-27 33.166 -37 50.499c-23.333 40.667 -38 86.667 -44 138
v812h259v-150h-99v-601c0 -46.667 5.66699 -82.667 17 -108s24.666 -43.833 39.999 -55.5s30.666 -18.5 45.999 -20.5s26.666 -3 33.999 -3h7c28 0 50 7.33301 66 22s28.167 31.667 36.5 51s13.5 38.666 15.5 57.999s3 34 3 44v12v751h142v-751v-12
c0 -10 1.33301 -24.667 4 -44s8.33398 -38.666 17.001 -57.999s21.167 -36.333 37.5 -51s38.5 -22 66.5 -22h8c7.33301 0 18.333 1 33 3s29.167 8.83301 43.5 20.5s27 30.167 38 55.5s16.5 61.333 16.5 108v751h160z" />
    <glyph glyph-name="phophungthai" unicode="&#xe1c;" horiz-adv-x="1174" 
d="M1091 1073l0.000976562 -812c-5.33301 -51.333 -19.666 -97.333 -42.999 -138c-10 -17.333 -22.5 -34.166 -37.5 -50.499s-33 -31 -54 -44s-45.5 -23.5 -73.5 -31.5s-60 -12 -96 -12c-26.667 0 -51.5 3.5 -74.5 10.5s-43 17.333 -60 31s-30.5 30.834 -40.5 51.501
s-15.333 44.667 -16 72c-0.666992 -27.333 -6 -51.333 -16 -72s-23.667 -37.834 -41 -51.501s-37.5 -24 -60.5 -31s-47.833 -10.5 -74.5 -10.5c-36 0 -68 4 -96 12s-52.5 18.5 -73.5 31.5s-38.833 27.667 -53.5 44s-27 33.166 -37 50.499c-23.333 40.667 -38 86.667 -44 138
v812h259v-150h-99v-601c0 -46.667 5.66699 -82.667 17 -108s24.666 -43.833 39.999 -55.5s30.666 -18.5 45.999 -20.5s26.666 -3 33.999 -3h7c28 0 50 7.33301 66 22s28.167 31.667 36.5 51s13.5 38.666 15.5 57.999s3 34 3 44v12v751h142v-751v-12
c0 -10 1.33301 -24.667 4 -44s8.33398 -38.666 17.001 -57.999s21.167 -36.333 37.5 -51s38.5 -22 66.5 -22h8c7.33301 0 18.333 1 33 3s29.167 8.83301 43.5 20.5s27 30.167 38 55.5s16.5 61.333 16.5 108v751h160z" />
    <glyph glyph-name="fofathai" unicode="&#xbd;" horiz-adv-x="1166" 
d="M1087 1460l0.00292969 -1199c-5.33301 -51.333 -19.666 -97.333 -42.999 -138c-10 -17.333 -22.5 -34.166 -37.5 -50.499s-33 -31 -54 -44s-45.5 -23.5 -73.5 -31.5s-60 -12 -96 -12c-26.667 0 -51.5 3.5 -74.5 10.5s-43 17.333 -60 31s-30.5 30.834 -40.5 51.501
s-15.333 44.667 -16 72c-0.666992 -27.333 -6 -51.333 -16 -72s-23.667 -37.834 -41 -51.501s-37.5 -24 -60.5 -31s-47.833 -10.5 -74.5 -10.5c-36 0 -68 4 -96 12s-52.5 18.5 -73.5 31.5s-38.833 27.667 -53.5 44s-27 33.166 -37 50.499c-23.333 40.667 -38 86.667 -44 138
v812h259v-150h-99v-601c0 -46.667 5.66699 -82.667 17 -108s24.666 -43.833 39.999 -55.5s30.666 -18.5 45.999 -20.5s26.666 -3 33.999 -3h7c28 0 50 7.33301 66 22s28.167 31.667 36.5 51s13.5 38.666 15.5 57.999s3 34 3 44v12v751h142v-751v-12c0 -10 1 -24.667 3 -44
s7 -38.666 15 -57.999s20 -36.333 36 -51s38 -22 66 -22h8c7.33301 0 18.666 1 33.999 3s30.5 8.83301 45.5 20.5s28.167 30.167 39.5 55.5s17 61.333 17 108v1138h160z" />
    <glyph glyph-name="fofathai" unicode="&#xe1d;" horiz-adv-x="1166" 
d="M1087 1460l0.00292969 -1199c-5.33301 -51.333 -19.666 -97.333 -42.999 -138c-10 -17.333 -22.5 -34.166 -37.5 -50.499s-33 -31 -54 -44s-45.5 -23.5 -73.5 -31.5s-60 -12 -96 -12c-26.667 0 -51.5 3.5 -74.5 10.5s-43 17.333 -60 31s-30.5 30.834 -40.5 51.501
s-15.333 44.667 -16 72c-0.666992 -27.333 -6 -51.333 -16 -72s-23.667 -37.834 -41 -51.501s-37.5 -24 -60.5 -31s-47.833 -10.5 -74.5 -10.5c-36 0 -68 4 -96 12s-52.5 18.5 -73.5 31.5s-38.833 27.667 -53.5 44s-27 33.166 -37 50.499c-23.333 40.667 -38 86.667 -44 138
v812h259v-150h-99v-601c0 -46.667 5.66699 -82.667 17 -108s24.666 -43.833 39.999 -55.5s30.666 -18.5 45.999 -20.5s26.666 -3 33.999 -3h7c28 0 50 7.33301 66 22s28.167 31.667 36.5 51s13.5 38.666 15.5 57.999s3 34 3 44v12v751h142v-751v-12c0 -10 1 -24.667 3 -44
s7 -38.666 15 -57.999s20 -36.333 36 -51s38 -22 66 -22h8c7.33301 0 18.666 1 33.999 3s30.5 8.83301 45.5 20.5s28.167 30.167 39.5 55.5s17 61.333 17 108v1138h160z" />
    <glyph glyph-name="phophanthai" unicode="&#xbe;" horiz-adv-x="1178" 
d="M1092 1073l0.00195312 -812c-5.33301 -51.333 -19.666 -97.333 -42.999 -138c-10 -17.333 -22.5 -34.166 -37.5 -50.499s-33 -31 -54 -44s-45.5 -23.5 -73.5 -31.5s-60 -12 -96 -12c-26.667 0 -51.5 3.5 -74.5 10.5s-43 17.5 -60 31.5s-30.5 31.333 -40.5 52
s-15.333 44.667 -16 72c-0.666992 -27.333 -6 -51.333 -16 -72s-23.667 -38 -41 -52s-37.5 -24.5 -60.5 -31.5s-47.833 -10.5 -74.5 -10.5c-36 0 -68 4 -96 12s-52.5 18.5 -73.5 31.5s-38.833 27.667 -53.5 44s-27 33.166 -37 50.499c-23.333 40.667 -38 86.667 -44 138v812
h160v-750c0 -47.333 5.66699 -83.666 17 -108.999s24.666 -43.833 39.999 -55.5s30.666 -18.5 45.999 -20.5s26.666 -3 33.999 -3h7c28 0 50 7.33301 66 22s28.167 31.667 36.5 51s13.5 38.666 15.5 57.999s3 34 3 44v13v750h142v-750v-13c0 -10 1.33301 -24.667 4 -44
s8.16699 -38.666 16.5 -57.999s20.666 -36.333 36.999 -51s38.5 -22 66.5 -22h8c7.33301 0 18.333 1 33 3s29.334 8.83301 44.001 20.5s27.5 30.167 38.5 55.5s16.5 61.666 16.5 108.999v750h160z" />
    <glyph glyph-name="phophanthai" unicode="&#xe1e;" horiz-adv-x="1178" 
d="M1092 1073l0.00195312 -812c-5.33301 -51.333 -19.666 -97.333 -42.999 -138c-10 -17.333 -22.5 -34.166 -37.5 -50.499s-33 -31 -54 -44s-45.5 -23.5 -73.5 -31.5s-60 -12 -96 -12c-26.667 0 -51.5 3.5 -74.5 10.5s-43 17.5 -60 31.5s-30.5 31.333 -40.5 52
s-15.333 44.667 -16 72c-0.666992 -27.333 -6 -51.333 -16 -72s-23.667 -38 -41 -52s-37.5 -24.5 -60.5 -31.5s-47.833 -10.5 -74.5 -10.5c-36 0 -68 4 -96 12s-52.5 18.5 -73.5 31.5s-38.833 27.667 -53.5 44s-27 33.166 -37 50.499c-23.333 40.667 -38 86.667 -44 138v812
h160v-750c0 -47.333 5.66699 -83.666 17 -108.999s24.666 -43.833 39.999 -55.5s30.666 -18.5 45.999 -20.5s26.666 -3 33.999 -3h7c28 0 50 7.33301 66 22s28.167 31.667 36.5 51s13.5 38.666 15.5 57.999s3 34 3 44v13v750h142v-750v-13c0 -10 1.33301 -24.667 4 -44
s8.16699 -38.666 16.5 -57.999s20.666 -36.333 36.999 -51s38.5 -22 66.5 -22h8c7.33301 0 18.333 1 33 3s29.334 8.83301 44.001 20.5s27.5 30.167 38.5 55.5s16.5 61.666 16.5 108.999v750h160z" />
    <glyph glyph-name="fofanthai" unicode="&#xbf;" horiz-adv-x="1174" 
d="M1093 1460l0.000976562 -1199c-5.33301 -51.333 -19.666 -97.333 -42.999 -138c-10 -17.333 -22.5 -34.166 -37.5 -50.499s-33 -31 -54 -44s-45.5 -23.5 -73.5 -31.5s-60 -12 -96 -12c-26.667 0 -51.5 3.5 -74.5 10.5s-43 17.5 -60 31.5s-30.5 31.333 -40.5 52
s-15.333 44.667 -16 72c-0.666992 -27.333 -6 -51.333 -16 -72s-23.667 -38 -41 -52s-37.5 -24.5 -60.5 -31.5s-47.833 -10.5 -74.5 -10.5c-36 0 -68 4 -96 12s-52.5 18.5 -73.5 31.5s-38.833 27.667 -53.5 44s-27 33.166 -37 50.499c-23.333 40.667 -38 86.667 -44 138v812
h160v-750c0 -47.333 5.83301 -83.666 17.5 -108.999s25.167 -43.833 40.5 -55.5s30.666 -18.5 45.999 -20.5s26.666 -3 33.999 -3h7c28 0 50 7.33301 66 22s28 31.667 36 51s13 38.666 15 57.999s3 34 3 44v13v750h142v-750v-13c0 -10 1.16699 -24.667 3.5 -44
s7.83301 -38.666 16.5 -57.999s21 -36.333 37 -51s38 -22 66 -22h8c7.33301 0 18.5 1 33.5 3s29.833 8.83301 44.5 20.5s27.5 30.167 38.5 55.5s16.5 61.666 16.5 108.999v1137h160z" />
    <glyph glyph-name="fofanthai" unicode="&#xe1f;" horiz-adv-x="1174" 
d="M1093 1460l0.000976562 -1199c-5.33301 -51.333 -19.666 -97.333 -42.999 -138c-10 -17.333 -22.5 -34.166 -37.5 -50.499s-33 -31 -54 -44s-45.5 -23.5 -73.5 -31.5s-60 -12 -96 -12c-26.667 0 -51.5 3.5 -74.5 10.5s-43 17.5 -60 31.5s-30.5 31.333 -40.5 52
s-15.333 44.667 -16 72c-0.666992 -27.333 -6 -51.333 -16 -72s-23.667 -38 -41 -52s-37.5 -24.5 -60.5 -31.5s-47.833 -10.5 -74.5 -10.5c-36 0 -68 4 -96 12s-52.5 18.5 -73.5 31.5s-38.833 27.667 -53.5 44s-27 33.166 -37 50.499c-23.333 40.667 -38 86.667 -44 138v812
h160v-750c0 -47.333 5.83301 -83.666 17.5 -108.999s25.167 -43.833 40.5 -55.5s30.666 -18.5 45.999 -20.5s26.666 -3 33.999 -3h7c28 0 50 7.33301 66 22s28 31.667 36 51s13 38.666 15 57.999s3 34 3 44v13v750h142v-750v-13c0 -10 1.16699 -24.667 3.5 -44
s7.83301 -38.666 16.5 -57.999s21 -36.333 37 -51s38 -22 66 -22h8c7.33301 0 18.5 1 33.5 3s29.833 8.83301 44.5 20.5s27.5 30.167 38.5 55.5s16.5 61.666 16.5 108.999v1137h160z" />
    <glyph glyph-name="phosamphaothai" unicode="&#xc0;" horiz-adv-x="1101" 
d="M580 1080c69.333 -2 127.833 -13.002 175.5 -33.002s87 -44.5 118 -73.5s55.167 -60.333 72.5 -94s30 -65.5 38 -95.5s12.833 -56 14.5 -78s2.5 -35.667 2.5 -41v-665h-160v665c0 42.667 -5.83301 78.5 -17.5 107.5s-26.5 53 -44.5 72s-37.667 33.5 -59 43.5
s-41.666 17.5 -60.999 22.5s-36.166 7.83301 -50.499 8.5s-23.5 1 -27.5 1c-32.667 0 -61.334 -3.66699 -86.001 -11s-46.167 -17 -64.5 -29s-33.833 -25.667 -46.5 -41s-23 -31 -31 -47c-19.333 -37.333 -30 -79.666 -32 -126.999v-665h-259v150h99v672
c21.333 40.667 45.166 75.334 71.499 104.001s53.333 52.5 81 71.5s55 34 82 45s52 19.333 75 25s43.167 9.16699 60.5 10.5s30.333 2 39 2h10v0z" />
    <glyph glyph-name="phosamphaothai" unicode="&#xe20;" horiz-adv-x="1101" 
d="M580 1080c69.333 -2 127.833 -13.002 175.5 -33.002s87 -44.5 118 -73.5s55.167 -60.333 72.5 -94s30 -65.5 38 -95.5s12.833 -56 14.5 -78s2.5 -35.667 2.5 -41v-665h-160v665c0 42.667 -5.83301 78.5 -17.5 107.5s-26.5 53 -44.5 72s-37.667 33.5 -59 43.5
s-41.666 17.5 -60.999 22.5s-36.166 7.83301 -50.499 8.5s-23.5 1 -27.5 1c-32.667 0 -61.334 -3.66699 -86.001 -11s-46.167 -17 -64.5 -29s-33.833 -25.667 -46.5 -41s-23 -31 -31 -47c-19.333 -37.333 -30 -79.666 -32 -126.999v-665h-259v150h99v672
c21.333 40.667 45.166 75.334 71.499 104.001s53.333 52.5 81 71.5s55 34 82 45s52 19.333 75 25s43.167 9.16699 60.5 10.5s30.333 2 39 2h10v0z" />
    <glyph glyph-name="momathai" unicode="&#xc1;" horiz-adv-x="1031" 
d="M932 1073l-0.00195312 -666.999v-13c0 -12 -1 -30.333 -3 -55s-7.16699 -52.167 -15.5 -82.5s-20.5 -61.5 -36.5 -93.5s-38.167 -61 -66.5 -87s-63.666 -47.5 -105.999 -64.5s-93.833 -25.5 -154.5 -25.5h-37c-45.333 3.33301 -86.333 11.333 -123 24
c-15.333 5.33301 -30.666 12 -45.999 20s-29 17.667 -41 29s-22 24.5 -30 39.5s-12.333 32.5 -13 52.5v-150h-160v1073h160v-667c0 -2.66699 0.5 -11.334 1.5 -26.001s4 -32 9 -52s12.667 -41.333 23 -64s24.833 -43.5 43.5 -62.5s42.334 -34.833 71.001 -47.5
s63.667 -19 105 -19c4 0 13.167 0.5 27.5 1.5s31.166 4 50.499 9s39.666 12.833 60.999 23.5s40.833 26 58.5 46s32.334 45.5 44.001 76.5s17.5 69.167 17.5 114.5v667h160z" />
    <glyph glyph-name="momathai" unicode="&#xe21;" horiz-adv-x="1031" 
d="M932 1073l-0.00195312 -666.999v-13c0 -12 -1 -30.333 -3 -55s-7.16699 -52.167 -15.5 -82.5s-20.5 -61.5 -36.5 -93.5s-38.167 -61 -66.5 -87s-63.666 -47.5 -105.999 -64.5s-93.833 -25.5 -154.5 -25.5h-37c-45.333 3.33301 -86.333 11.333 -123 24
c-15.333 5.33301 -30.666 12 -45.999 20s-29 17.667 -41 29s-22 24.5 -30 39.5s-12.333 32.5 -13 52.5v-150h-160v1073h160v-667c0 -2.66699 0.5 -11.334 1.5 -26.001s4 -32 9 -52s12.667 -41.333 23 -64s24.833 -43.5 43.5 -62.5s42.334 -34.833 71.001 -47.5
s63.667 -19 105 -19c4 0 13.167 0.5 27.5 1.5s31.166 4 50.499 9s39.666 12.833 60.999 23.5s40.833 26 58.5 46s32.334 45.5 44.001 76.5s17.5 69.167 17.5 114.5v667h160z" />
    <glyph glyph-name="yoyakthai" unicode="&#xc2;" horiz-adv-x="1031" 
d="M913 1073v-772.001c0 -45.333 -6.66699 -84.333 -20 -117s-30.333 -60.167 -51 -82.5s-43.667 -40.166 -69 -53.499s-49.666 -23.5 -72.999 -30.5s-44.333 -11.667 -63 -14s-32 -3.5 -40 -3.5h-200c-52.667 0 -97.667 5.5 -135 16.5s-68.666 25.333 -93.999 43
s-45.5 37.334 -60.5 59.001s-26.333 43.167 -34 64.5s-12.667 41.333 -15 60s-3.5 33.667 -3.5 45c0 42.667 7.66699 78.334 23 107.001s32.833 52 52.5 70s38.167 31.333 55.5 40s28 13.667 32 15c-21.333 4 -40.166 10.5 -56.499 19.5s-30.5 19.667 -42.5 32
s-22.167 25.5 -30.5 39.5s-15.5 28 -21.5 42c-13.333 32.667 -21.333 69 -24 109c0 38.667 3.66699 72.834 11 102.501s17.166 55.5 29.499 77.5s26.333 40.5 42 55.5s31.834 27.5 48.501 37.5c38.667 22.667 82.667 35.334 132 38.001h214v-150h-128
c-24 0 -45 -2.33301 -63 -7s-33.5 -10.834 -46.5 -18.501s-24 -16.334 -33 -26.001s-16.5 -19.5 -22.5 -29.5c-13.333 -23.333 -21 -50 -23 -80c0 -26.667 4.33301 -49.167 13 -67.5s19.667 -33.5 33 -45.5s27.833 -21.333 43.5 -28s30.5 -11.5 44.5 -14.5
s26 -4.83301 36 -5.5s16 -1 18 -1h128v-150h-128c-28 0 -51.833 -3.16699 -71.5 -9.5s-35.834 -14.166 -48.501 -23.499s-22.5 -19.666 -29.5 -30.999s-12.167 -22.333 -15.5 -33s-5.33301 -19.834 -6 -27.501s-1 -12.834 -1 -15.501c0 -26.667 3.66699 -49.167 11 -67.5
s16.666 -33.333 27.999 -45s24 -20.834 38 -27.501s27.333 -11.5 40 -14.5s24.167 -4.66699 34.5 -5s17.5 -0.5 21.5 -0.5h4h193c38 0 67.667 7.66699 89 23s37.666 32.666 48.999 51.999c12.667 22 21 47.333 25 76v772h160z" />
    <glyph glyph-name="yoyakthai" unicode="&#xe22;" horiz-adv-x="1031" 
d="M913 1073v-772.001c0 -45.333 -6.66699 -84.333 -20 -117s-30.333 -60.167 -51 -82.5s-43.667 -40.166 -69 -53.499s-49.666 -23.5 -72.999 -30.5s-44.333 -11.667 -63 -14s-32 -3.5 -40 -3.5h-200c-52.667 0 -97.667 5.5 -135 16.5s-68.666 25.333 -93.999 43
s-45.5 37.334 -60.5 59.001s-26.333 43.167 -34 64.5s-12.667 41.333 -15 60s-3.5 33.667 -3.5 45c0 42.667 7.66699 78.334 23 107.001s32.833 52 52.5 70s38.167 31.333 55.5 40s28 13.667 32 15c-21.333 4 -40.166 10.5 -56.499 19.5s-30.5 19.667 -42.5 32
s-22.167 25.5 -30.5 39.5s-15.5 28 -21.5 42c-13.333 32.667 -21.333 69 -24 109c0 38.667 3.66699 72.834 11 102.501s17.166 55.5 29.499 77.5s26.333 40.5 42 55.5s31.834 27.5 48.501 37.5c38.667 22.667 82.667 35.334 132 38.001h214v-150h-128
c-24 0 -45 -2.33301 -63 -7s-33.5 -10.834 -46.5 -18.501s-24 -16.334 -33 -26.001s-16.5 -19.5 -22.5 -29.5c-13.333 -23.333 -21 -50 -23 -80c0 -26.667 4.33301 -49.167 13 -67.5s19.667 -33.5 33 -45.5s27.833 -21.333 43.5 -28s30.5 -11.5 44.5 -14.5
s26 -4.83301 36 -5.5s16 -1 18 -1h128v-150h-128c-28 0 -51.833 -3.16699 -71.5 -9.5s-35.834 -14.166 -48.501 -23.499s-22.5 -19.666 -29.5 -30.999s-12.167 -22.333 -15.5 -33s-5.33301 -19.834 -6 -27.501s-1 -12.834 -1 -15.501c0 -26.667 3.66699 -49.167 11 -67.5
s16.666 -33.333 27.999 -45s24 -20.834 38 -27.501s27.333 -11.5 40 -14.5s24.167 -4.66699 34.5 -5s17.5 -0.5 21.5 -0.5h4h193c38 0 67.667 7.66699 89 23s37.666 32.666 48.999 51.999c12.667 22 21 47.333 25 76v772h160z" />
    <glyph glyph-name="roruathai" unicode="&#xc3;" horiz-adv-x="850" 
d="M705 797l-67.9971 44.002c-16.667 10.667 -35.334 20.834 -56.001 30.501s-41.5 18.167 -62.5 25.5s-40.833 13 -59.5 17s-34 6 -46 6c-25.333 0 -49.333 -2.16699 -72 -6.5s-42.667 -12.333 -60 -24s-31.166 -27.667 -41.499 -48s-15.5 -46.833 -15.5 -79.5
s8.83301 -58.167 26.5 -76.5s40.667 -32.666 69 -42.999s60.166 -18.166 95.499 -23.499s70.666 -11 105.999 -17s69.333 -17.833 102 -35.5s61.5 -39.5 86.5 -65.5s45 -55.667 60 -89s22.5 -68.666 22.5 -105.999c0 -55.333 -10 -103.333 -30 -144
s-47.167 -74.167 -81.5 -100.5s-74.666 -45.833 -120.999 -58.5s-95.5 -19 -147.5 -19c-73.333 0 -135.833 8.16699 -187.5 24.5s-94.5 34.5 -128.5 54.5c-39.333 22.667 -72 49 -98 79l106 104c12.667 -12.667 29.667 -25.667 51 -39s45.5 -25.333 72.5 -36
s56 -19.334 87 -26.001s62.833 -10 95.5 -10c33.333 0 63.5 4.16699 90.5 12.5s50 20.166 69 35.499s33.5 33.333 43.5 54s15 43.667 15 69c0 26 -4.33301 47.167 -13 63.5s-18.834 29.166 -30.501 38.499s-23.5 15.833 -35.5 19.5s-21.333 6.16699 -28 7.5
c-2.66699 0.666992 -13.5 2.5 -32.5 5.5l-64.5 10.5l-72 12c-24 4 -42 7.33301 -54 10c-8 1.33301 -19.333 4.16602 -34 8.49902s-30.834 10.666 -48.501 18.999s-35.667 19.333 -54 33s-35 31 -50 52s-27.167 46 -36.5 75s-14 62.833 -14 101.5
c0 58 10.333 107.167 31 147.5s47.667 73.166 81 98.499s71 43.666 113 54.999s84.333 17 127 17c44 0 84.167 -5 120.5 -15s67.833 -20.667 94.5 -32c31.333 -13.333 59.333 -28.666 84 -45.999l82 -56z" />
    <glyph glyph-name="roruathai" unicode="&#xe23;" horiz-adv-x="850" 
d="M705 797l-67.9971 44.002c-16.667 10.667 -35.334 20.834 -56.001 30.501s-41.5 18.167 -62.5 25.5s-40.833 13 -59.5 17s-34 6 -46 6c-25.333 0 -49.333 -2.16699 -72 -6.5s-42.667 -12.333 -60 -24s-31.166 -27.667 -41.499 -48s-15.5 -46.833 -15.5 -79.5
s8.83301 -58.167 26.5 -76.5s40.667 -32.666 69 -42.999s60.166 -18.166 95.499 -23.499s70.666 -11 105.999 -17s69.333 -17.833 102 -35.5s61.5 -39.5 86.5 -65.5s45 -55.667 60 -89s22.5 -68.666 22.5 -105.999c0 -55.333 -10 -103.333 -30 -144
s-47.167 -74.167 -81.5 -100.5s-74.666 -45.833 -120.999 -58.5s-95.5 -19 -147.5 -19c-73.333 0 -135.833 8.16699 -187.5 24.5s-94.5 34.5 -128.5 54.5c-39.333 22.667 -72 49 -98 79l106 104c12.667 -12.667 29.667 -25.667 51 -39s45.5 -25.333 72.5 -36
s56 -19.334 87 -26.001s62.833 -10 95.5 -10c33.333 0 63.5 4.16699 90.5 12.5s50 20.166 69 35.499s33.5 33.333 43.5 54s15 43.667 15 69c0 26 -4.33301 47.167 -13 63.5s-18.834 29.166 -30.501 38.499s-23.5 15.833 -35.5 19.5s-21.333 6.16699 -28 7.5
c-2.66699 0.666992 -13.5 2.5 -32.5 5.5l-64.5 10.5l-72 12c-24 4 -42 7.33301 -54 10c-8 1.33301 -19.333 4.16602 -34 8.49902s-30.834 10.666 -48.501 18.999s-35.667 19.333 -54 33s-35 31 -50 52s-27.167 46 -36.5 75s-14 62.833 -14 101.5
c0 58 10.333 107.167 31 147.5s47.667 73.166 81 98.499s71 43.666 113 54.999s84.333 17 127 17c44 0 84.167 -5 120.5 -15s67.833 -20.667 94.5 -32c31.333 -13.333 59.333 -28.666 84 -45.999l82 -56z" />
    <glyph glyph-name="ruthai" unicode="&#xc4;" horiz-adv-x="1047" 
d="M519 1080c52 -1.33301 97.668 -8.00195 137.001 -20.002s73.833 -27.167 103.5 -45.5s54.667 -39.166 75 -62.499s37.166 -47.333 50.499 -72s23.666 -49 30.999 -73s12.833 -45.833 16.5 -65.5s5.83398 -36.334 6.50098 -50.001s1 -22.5 1 -26.5v-1135h-160v1135
c0 42.667 -5.83301 78.5 -17.5 107.5s-26.5 53 -44.5 72s-37.833 33.5 -59.5 43.5s-42.167 17.5 -61.5 22.5s-36.166 7.83301 -50.499 8.5s-23.5 1 -27.5 1c-32.667 0 -61.334 -3.66699 -86.001 -11s-46.167 -17 -64.5 -29s-33.666 -25.667 -45.999 -41s-22.5 -31 -30.5 -47
c-18.667 -37.333 -29.334 -79.666 -32.001 -126.999v-515h99v-150h-259v822c22 40.667 46 75.334 72 104.001s52.833 52.5 80.5 71.5s55 34 82 45s52 19.333 75 25s43.167 9.16699 60.5 10.5s30.333 2 39 2h10v0z" />
    <glyph glyph-name="ruthai" unicode="&#xe24;" horiz-adv-x="1047" 
d="M519 1080c52 -1.33301 97.668 -8.00195 137.001 -20.002s73.833 -27.167 103.5 -45.5s54.667 -39.166 75 -62.499s37.166 -47.333 50.499 -72s23.666 -49 30.999 -73s12.833 -45.833 16.5 -65.5s5.83398 -36.334 6.50098 -50.001s1 -22.5 1 -26.5v-1135h-160v1135
c0 42.667 -5.83301 78.5 -17.5 107.5s-26.5 53 -44.5 72s-37.833 33.5 -59.5 43.5s-42.167 17.5 -61.5 22.5s-36.166 7.83301 -50.499 8.5s-23.5 1 -27.5 1c-32.667 0 -61.334 -3.66699 -86.001 -11s-46.167 -17 -64.5 -29s-33.666 -25.667 -45.999 -41s-22.5 -31 -30.5 -47
c-18.667 -37.333 -29.334 -79.666 -32.001 -126.999v-515h99v-150h-259v822c22 40.667 46 75.334 72 104.001s52.833 52.5 80.5 71.5s55 34 82 45s52 19.333 75 25s43.167 9.16699 60.5 10.5s30.333 2 39 2h10v0z" />
    <glyph glyph-name="lolingthai" unicode="&#xc5;" horiz-adv-x="966" 
d="M473 1080c66.667 0 123.501 -8.83594 170.501 -26.5029s86 -40.167 117 -67.5s55.333 -57.333 73 -90s31 -64.5 40 -95.5s14.5 -58.833 16.5 -83.5s3 -42.334 3 -53.001v-10v-654h-160v316c0 30.667 -7 56.5 -21 77.5s-31.5 38.333 -52.5 52s-43.667 24.334 -68 32.001
s-47 13.334 -68 17.001s-38.5 5.83398 -52.5 6.50098l-21 1c-2 0 -8.5 -0.333008 -19.5 -1s-24.667 -2.83398 -41 -6.50098s-33.833 -9 -52.5 -16s-36.5 -17.167 -53.5 -30.5s-32.333 -30.166 -46 -50.499s-23.167 -45.166 -28.5 -74.499c-2 -9.33301 -3 -18 -3 -26
c0 -22.667 5.66699 -42 17 -58s25.666 -29.333 42.999 -40s36.833 -19.334 58.5 -26.001s43 -11.667 64 -15s40.167 -5.5 57.5 -6.5s31 -1.5 41 -1.5h14v-150h-180c-37.333 0 -72.5 8 -105.5 24s-61.833 37.833 -86.5 65.5s-44 59.667 -58 96s-21 74.5 -21 114.5
c0 39.333 8.83301 79.333 26.5 120s47.167 80 88.5 118c24.667 22.667 50 41.834 76 57.501s52 28 78 37s51.667 15.5 77 19.5s50 6 74 6c36.667 0 71.167 -3.5 103.5 -10.5s60.166 -14.5 83.499 -22.5c27.333 -10 52.666 -21 75.999 -33v62
c0 33.333 -3.66699 62.666 -11 87.999s-17.166 47.333 -29.499 66s-26.333 34.5 -42 47.5s-31.5 23.5 -47.5 31.5c-38 19.333 -81.333 30.333 -130 33c-43.333 0 -80 -7.66699 -110 -23s-54.667 -34.166 -74 -56.499s-34.166 -45.666 -44.499 -69.999
s-17.833 -45.5 -22.5 -63.5h-168c4 59.333 15.5 109.666 34.5 150.999s42 75.833 69 103.5s56.167 49.5 87.5 65.5s61.5 27.833 90.5 35.5s55 12.5 78 14.5s39.5 3 49.5 3h10v0z" />
    <glyph glyph-name="lolingthai" unicode="&#xe25;" horiz-adv-x="966" 
d="M473 1080c66.667 0 123.501 -8.83594 170.501 -26.5029s86 -40.167 117 -67.5s55.333 -57.333 73 -90s31 -64.5 40 -95.5s14.5 -58.833 16.5 -83.5s3 -42.334 3 -53.001v-10v-654h-160v316c0 30.667 -7 56.5 -21 77.5s-31.5 38.333 -52.5 52s-43.667 24.334 -68 32.001
s-47 13.334 -68 17.001s-38.5 5.83398 -52.5 6.50098l-21 1c-2 0 -8.5 -0.333008 -19.5 -1s-24.667 -2.83398 -41 -6.50098s-33.833 -9 -52.5 -16s-36.5 -17.167 -53.5 -30.5s-32.333 -30.166 -46 -50.499s-23.167 -45.166 -28.5 -74.499c-2 -9.33301 -3 -18 -3 -26
c0 -22.667 5.66699 -42 17 -58s25.666 -29.333 42.999 -40s36.833 -19.334 58.5 -26.001s43 -11.667 64 -15s40.167 -5.5 57.5 -6.5s31 -1.5 41 -1.5h14v-150h-180c-37.333 0 -72.5 8 -105.5 24s-61.833 37.833 -86.5 65.5s-44 59.667 -58 96s-21 74.5 -21 114.5
c0 39.333 8.83301 79.333 26.5 120s47.167 80 88.5 118c24.667 22.667 50 41.834 76 57.501s52 28 78 37s51.667 15.5 77 19.5s50 6 74 6c36.667 0 71.167 -3.5 103.5 -10.5s60.166 -14.5 83.499 -22.5c27.333 -10 52.666 -21 75.999 -33v62
c0 33.333 -3.66699 62.666 -11 87.999s-17.166 47.333 -29.499 66s-26.333 34.5 -42 47.5s-31.5 23.5 -47.5 31.5c-38 19.333 -81.333 30.333 -130 33c-43.333 0 -80 -7.66699 -110 -23s-54.667 -34.166 -74 -56.499s-34.166 -45.666 -44.499 -69.999
s-17.833 -45.5 -22.5 -63.5h-168c4 59.333 15.5 109.666 34.5 150.999s42 75.833 69 103.5s56.167 49.5 87.5 65.5s61.5 27.833 90.5 35.5s55 12.5 78 14.5s39.5 3 49.5 3h10v0z" />
    <glyph glyph-name="luthai" unicode="&#xc6;" horiz-adv-x="1128" 
d="M553 1080c69.333 -2 127.834 -13.002 175.501 -33.002s87 -44.5 118 -73.5s55.167 -60.333 72.5 -94s30 -65.5 38 -95.5s12.833 -56 14.5 -78s2.5 -35.667 2.5 -41v-1135h-160v1135c0 42.667 -5.83301 78.5 -17.5 107.5s-26.5 53 -44.5 72s-37.833 33.5 -59.5 43.5
s-42.167 17.5 -61.5 22.5s-36.166 7.83301 -50.499 8.5s-23.5 1 -27.5 1c-32.667 0 -61.334 -3.66699 -86.001 -11s-46.167 -17 -64.5 -29s-33.666 -25.667 -45.999 -41s-22.5 -31 -30.5 -47c-18.667 -37.333 -29.334 -79.666 -32.001 -126.999v-665h-259v150h99v672
c21.333 40.667 45.166 75.334 71.499 104.001s53.333 52.5 81 71.5s55 34 82 45s52 19.333 75 25s43.167 9.16699 60.5 10.5s30.333 2 39 2h10v0z" />
    <glyph glyph-name="luthai" unicode="&#xe26;" horiz-adv-x="1128" 
d="M553 1080c69.333 -2 127.834 -13.002 175.501 -33.002s87 -44.5 118 -73.5s55.167 -60.333 72.5 -94s30 -65.5 38 -95.5s12.833 -56 14.5 -78s2.5 -35.667 2.5 -41v-1135h-160v1135c0 42.667 -5.83301 78.5 -17.5 107.5s-26.5 53 -44.5 72s-37.833 33.5 -59.5 43.5
s-42.167 17.5 -61.5 22.5s-36.166 7.83301 -50.499 8.5s-23.5 1 -27.5 1c-32.667 0 -61.334 -3.66699 -86.001 -11s-46.167 -17 -64.5 -29s-33.666 -25.667 -45.999 -41s-22.5 -31 -30.5 -47c-18.667 -37.333 -29.334 -79.666 -32.001 -126.999v-665h-259v150h99v672
c21.333 40.667 45.166 75.334 71.499 104.001s53.333 52.5 81 71.5s55 34 82 45s52 19.333 75 25s43.167 9.16699 60.5 10.5s30.333 2 39 2h10v0z" />
    <glyph glyph-name="wowaenthai" unicode="&#xc7;" horiz-adv-x="866" 
d="M427 1080c8 0 22.3359 -1 43.0029 -3s44 -7 70 -15s53.167 -20 81.5 -36s54.166 -37.833 77.499 -65.5s42.666 -62.334 57.999 -104.001s23 -91.834 23 -150.501v-356c-3.33301 -68.667 -18.333 -129.667 -45 -183c-11.333 -22.667 -25.666 -45 -42.999 -67
s-38.666 -41.5 -63.999 -58.5s-55.166 -30.667 -89.499 -41s-73.833 -15.5 -118.5 -15.5c-46 0 -86.333 5.5 -121 16.5s-64.834 25.333 -90.501 43s-47.167 37.834 -64.5 60.501s-31.333 45.667 -42 69c6 4 15 9.5 27 16.5l38 22.5l38.5 22.5
c12.333 7 21.833 12.167 28.5 15.5c11.333 -29.333 27.333 -51.833 48 -67.5s41.334 -27.167 62.001 -34.5c24 -8.66699 49.333 -13.334 76 -14.001c37.333 4.66699 70.666 15.667 99.999 33c12.667 7.33301 25 16.333 37 27s22.667 23.334 32 38.001s16.833 31.667 22.5 51
s8.5 41.666 8.5 66.999v355c-3.33301 39.333 -12.333 75 -27 107c-6.66699 13.333 -14.834 26.333 -24.501 39s-21.334 24 -35.001 34s-29.834 18.167 -48.501 24.5s-40.334 9.5 -65.001 9.5c-34 0 -63.5 -3.16699 -88.5 -9.5s-46.5 -16.166 -64.5 -29.499
s-33.667 -30.666 -47 -51.999s-25.666 -47 -36.999 -77h-162c5.33301 48.667 16.833 93.167 34.5 133.5s42.667 74.833 75 103.5s72.333 51 120 67s104.167 24 169.5 24h3h4z" />
    <glyph glyph-name="wowaenthai" unicode="&#xe27;" horiz-adv-x="866" 
d="M427 1080c8 0 22.3359 -1 43.0029 -3s44 -7 70 -15s53.167 -20 81.5 -36s54.166 -37.833 77.499 -65.5s42.666 -62.334 57.999 -104.001s23 -91.834 23 -150.501v-356c-3.33301 -68.667 -18.333 -129.667 -45 -183c-11.333 -22.667 -25.666 -45 -42.999 -67
s-38.666 -41.5 -63.999 -58.5s-55.166 -30.667 -89.499 -41s-73.833 -15.5 -118.5 -15.5c-46 0 -86.333 5.5 -121 16.5s-64.834 25.333 -90.501 43s-47.167 37.834 -64.5 60.501s-31.333 45.667 -42 69c6 4 15 9.5 27 16.5l38 22.5l38.5 22.5
c12.333 7 21.833 12.167 28.5 15.5c11.333 -29.333 27.333 -51.833 48 -67.5s41.334 -27.167 62.001 -34.5c24 -8.66699 49.333 -13.334 76 -14.001c37.333 4.66699 70.666 15.667 99.999 33c12.667 7.33301 25 16.333 37 27s22.667 23.334 32 38.001s16.833 31.667 22.5 51
s8.5 41.666 8.5 66.999v355c-3.33301 39.333 -12.333 75 -27 107c-6.66699 13.333 -14.834 26.333 -24.501 39s-21.334 24 -35.001 34s-29.834 18.167 -48.501 24.5s-40.334 9.5 -65.001 9.5c-34 0 -63.5 -3.16699 -88.5 -9.5s-46.5 -16.166 -64.5 -29.499
s-33.667 -30.666 -47 -51.999s-25.666 -47 -36.999 -77h-162c5.33301 48.667 16.833 93.167 34.5 133.5s42.667 74.833 75 103.5s72.333 51 120 67s104.167 24 169.5 24h3h4z" />
    <glyph glyph-name="sosalathai" unicode="&#xc8;" horiz-adv-x="1058" 
d="M992 1088c0 -5.33301 -5.99707 -14.998 -17.9971 -28.998s-26.167 -28.833 -42.5 -44.5s-32.833 -30.167 -49.5 -43.5s-29.667 -21.666 -39 -24.999c22 -26.667 39.333 -54.667 52 -84s22 -57 28 -83s9.83301 -49.333 11.5 -70s2.5 -35.667 2.5 -45v-10v-654h-160v654
c0 33.333 -3.66699 62.666 -11 87.999s-17.166 47.333 -29.499 66s-26.333 34.5 -42 47.5s-31.5 23.5 -47.5 31.5c-38 19.333 -81.333 30.333 -130 33c-31.333 0 -58.833 -3.83301 -82.5 -11.5s-44.5 -17.834 -62.5 -30.501s-33.333 -26.834 -46 -42.501
s-23.334 -31.834 -32.001 -48.501c-20 -39.333 -32.333 -83.666 -37 -132.999v-108c30.667 17.333 63.167 30.666 97.5 39.999s70.5 14 108.5 14c34 0 66.333 -3.66699 97 -11v-166c-13.333 6.66699 -28.166 10.5 -44.499 11.5s-33.833 1.5 -52.5 1.5
c-49.333 0 -92.333 -12 -129 -36c-18.667 -12 -34.167 -26.833 -46.5 -44.5s-22.5 -37.5 -30.5 -59.5v-296h-160v665c0 66 8.66699 122.167 26 168.5s39.5 84.833 66.5 115.5s56.667 54.834 89 72.501s63.666 30.834 93.999 39.501s57.666 14 81.999 16s41.833 3 52.5 3h10
c30 0 57.5 -1.66699 82.5 -5s48.5 -8.33301 70.5 -15c1.33301 0 10.166 1.5 26.499 4.5s35.333 9.5 57 19.5s44 24.167 67 42.5s41.833 42.833 56.5 73.5l53 -52l20 -20l18.5 -18.5c5.66699 -5.66699 10.667 -10.334 15 -14.001s7.16602 -6.16699 8.49902 -7.5z" />
    <glyph glyph-name="sosalathai" unicode="&#xe28;" horiz-adv-x="1058" 
d="M992 1088c0 -5.33301 -5.99707 -14.998 -17.9971 -28.998s-26.167 -28.833 -42.5 -44.5s-32.833 -30.167 -49.5 -43.5s-29.667 -21.666 -39 -24.999c22 -26.667 39.333 -54.667 52 -84s22 -57 28 -83s9.83301 -49.333 11.5 -70s2.5 -35.667 2.5 -45v-10v-654h-160v654
c0 33.333 -3.66699 62.666 -11 87.999s-17.166 47.333 -29.499 66s-26.333 34.5 -42 47.5s-31.5 23.5 -47.5 31.5c-38 19.333 -81.333 30.333 -130 33c-31.333 0 -58.833 -3.83301 -82.5 -11.5s-44.5 -17.834 -62.5 -30.501s-33.333 -26.834 -46 -42.501
s-23.334 -31.834 -32.001 -48.501c-20 -39.333 -32.333 -83.666 -37 -132.999v-108c30.667 17.333 63.167 30.666 97.5 39.999s70.5 14 108.5 14c34 0 66.333 -3.66699 97 -11v-166c-13.333 6.66699 -28.166 10.5 -44.499 11.5s-33.833 1.5 -52.5 1.5
c-49.333 0 -92.333 -12 -129 -36c-18.667 -12 -34.167 -26.833 -46.5 -44.5s-22.5 -37.5 -30.5 -59.5v-296h-160v665c0 66 8.66699 122.167 26 168.5s39.5 84.833 66.5 115.5s56.667 54.834 89 72.501s63.666 30.834 93.999 39.501s57.666 14 81.999 16s41.833 3 52.5 3h10
c30 0 57.5 -1.66699 82.5 -5s48.5 -8.33301 70.5 -15c1.33301 0 10.166 1.5 26.499 4.5s35.333 9.5 57 19.5s44 24.167 67 42.5s41.833 42.833 56.5 73.5l53 -52l20 -20l18.5 -18.5c5.66699 -5.66699 10.667 -10.334 15 -14.001s7.16602 -6.16699 8.49902 -7.5z" />
    <glyph glyph-name="sorusithai" unicode="&#xc9;" horiz-adv-x="1093" 
d="M1020 545h-100.004v-175c-6.66699 -72.667 -26 -137 -58 -193c-13.333 -24 -30.166 -47.5 -50.499 -70.5s-45.166 -43.5 -74.499 -61.5s-63.5 -32.5 -102.5 -43.5s-83.833 -16.5 -134.5 -16.5c-51.333 0 -96.5 5.5 -135.5 16.5s-73.167 25.5 -102.5 43.5
s-54.166 38.5 -74.499 61.5s-37.166 46.5 -50.499 70.5c-32 56 -51 120.333 -57 193v719h160v-719c0 -29.333 3.66699 -55.333 11 -78s17.166 -42.167 29.499 -58.5s26.333 -30.166 42 -41.499s31.5 -20.666 47.5 -27.999c38 -17.333 81.333 -27 130 -29
c48.667 2 92 11.667 130 29c16 7.33301 31.833 16.666 47.5 27.999s29.667 25.166 42 41.499s22.166 35.833 29.499 58.5s11 48.667 11 78v175h-188c-17.333 0 -30.666 3.5 -39.999 10.5s-16.333 15.167 -21 24.5c-5.33301 10.667 -8.66602 22.667 -9.99902 36v159h150v-80
h109v394h160v-394h100v-150z" />
    <glyph glyph-name="sorusithai" unicode="&#xe29;" horiz-adv-x="1093" 
d="M1020 545h-100.004v-175c-6.66699 -72.667 -26 -137 -58 -193c-13.333 -24 -30.166 -47.5 -50.499 -70.5s-45.166 -43.5 -74.499 -61.5s-63.5 -32.5 -102.5 -43.5s-83.833 -16.5 -134.5 -16.5c-51.333 0 -96.5 5.5 -135.5 16.5s-73.167 25.5 -102.5 43.5
s-54.166 38.5 -74.499 61.5s-37.166 46.5 -50.499 70.5c-32 56 -51 120.333 -57 193v719h160v-719c0 -29.333 3.66699 -55.333 11 -78s17.166 -42.167 29.499 -58.5s26.333 -30.166 42 -41.499s31.5 -20.666 47.5 -27.999c38 -17.333 81.333 -27 130 -29
c48.667 2 92 11.667 130 29c16 7.33301 31.833 16.666 47.5 27.999s29.667 25.166 42 41.499s22.166 35.833 29.499 58.5s11 48.667 11 78v175h-188c-17.333 0 -30.666 3.5 -39.999 10.5s-16.333 15.167 -21 24.5c-5.33301 10.667 -8.66602 22.667 -9.99902 36v159h150v-80
h109v394h160v-394h100v-150z" />
    <glyph glyph-name="sosuathai" unicode="&#xca;" horiz-adv-x="997" 
d="M962 1089c0 -3.33301 -2.66406 -9.00391 -7.99707 -17.0039s-12.5 -17 -21.5 -27s-19.167 -20.333 -30.5 -31s-22.5 -20.667 -33.5 -30s-21.333 -17.5 -31 -24.5s-17.5 -11.5 -23.5 -13.5c21.333 -26.667 38.166 -54.667 50.499 -84s21.5 -57 27.5 -83
s9.83301 -49.333 11.5 -70s2.5 -35.667 2.5 -45v-10v-654h-159v316c0 30.667 -7 56.5 -21 77.5s-31.5 38.333 -52.5 52s-43.667 24.334 -68 32.001s-47 13.334 -68 17.001s-38.667 5.83398 -53 6.50098l-21.5 1c-2 0 -8.5 -0.333008 -19.5 -1s-24.5 -2.83398 -40.5 -6.50098
s-33.333 -9 -52 -16s-36.667 -17.167 -54 -30.5s-32.833 -30.166 -46.5 -50.499s-23.167 -45.166 -28.5 -74.499c-1.33301 -4.66699 -2 -9.16699 -2 -13.5v-12.5c0 -22.667 5.66699 -42 17 -58s25.666 -29.333 42.999 -40s36.833 -19.334 58.5 -26.001
s42.834 -11.667 63.501 -15s39.834 -5.5 57.501 -6.5s31.167 -1.5 40.5 -1.5h15v-150h-181c-37.333 0 -72.5 8 -105.5 24s-61.667 37.833 -86 65.5s-43.666 59.667 -57.999 96s-21.5 74.5 -21.5 114.5c0 39.333 9 79.333 27 120s47.667 80 89 118
c24.667 22.667 50 41.834 76 57.501s52 28 78 37s51.667 15.5 77 19.5s50 6 74 6c36.667 0 71.167 -3.5 103.5 -10.5s60.166 -14.5 83.499 -22.5c27.333 -10 52.666 -21 75.999 -33v62c0 33.333 -3.66699 62.666 -11 87.999s-17.166 47.333 -29.499 66
s-26.333 34.5 -42 47.5s-31.5 23.5 -47.5 31.5c-38 19.333 -81.333 30.333 -130 33c-43.333 0 -80 -7.66699 -110 -23s-54.667 -34.166 -74 -56.499s-34.333 -45.666 -45 -69.999s-18.334 -45.5 -23.001 -63.5h-168c4 59.333 15.5 109.666 34.5 150.999s42 75.833 69 103.5
s56.167 49.5 87.5 65.5s61.5 27.833 90.5 35.5s55 12.5 78 14.5s39.5 3 49.5 3h11c50 0 101 -7 153 -21c28 4 55 12 81 24c22 10 44.667 24.167 68 42.5s42.666 43.5 57.999 75.5l53 -53l20 -20l18.5 -18l15 -14c4.33301 -4 7.16602 -6.33301 8.49902 -7z" />
    <glyph glyph-name="sosuathai" unicode="&#xe2a;" horiz-adv-x="997" 
d="M962 1089c0 -3.33301 -2.66406 -9.00391 -7.99707 -17.0039s-12.5 -17 -21.5 -27s-19.167 -20.333 -30.5 -31s-22.5 -20.667 -33.5 -30s-21.333 -17.5 -31 -24.5s-17.5 -11.5 -23.5 -13.5c21.333 -26.667 38.166 -54.667 50.499 -84s21.5 -57 27.5 -83
s9.83301 -49.333 11.5 -70s2.5 -35.667 2.5 -45v-10v-654h-159v316c0 30.667 -7 56.5 -21 77.5s-31.5 38.333 -52.5 52s-43.667 24.334 -68 32.001s-47 13.334 -68 17.001s-38.667 5.83398 -53 6.50098l-21.5 1c-2 0 -8.5 -0.333008 -19.5 -1s-24.5 -2.83398 -40.5 -6.50098
s-33.333 -9 -52 -16s-36.667 -17.167 -54 -30.5s-32.833 -30.166 -46.5 -50.499s-23.167 -45.166 -28.5 -74.499c-1.33301 -4.66699 -2 -9.16699 -2 -13.5v-12.5c0 -22.667 5.66699 -42 17 -58s25.666 -29.333 42.999 -40s36.833 -19.334 58.5 -26.001
s42.834 -11.667 63.501 -15s39.834 -5.5 57.501 -6.5s31.167 -1.5 40.5 -1.5h15v-150h-181c-37.333 0 -72.5 8 -105.5 24s-61.667 37.833 -86 65.5s-43.666 59.667 -57.999 96s-21.5 74.5 -21.5 114.5c0 39.333 9 79.333 27 120s47.667 80 89 118
c24.667 22.667 50 41.834 76 57.501s52 28 78 37s51.667 15.5 77 19.5s50 6 74 6c36.667 0 71.167 -3.5 103.5 -10.5s60.166 -14.5 83.499 -22.5c27.333 -10 52.666 -21 75.999 -33v62c0 33.333 -3.66699 62.666 -11 87.999s-17.166 47.333 -29.499 66
s-26.333 34.5 -42 47.5s-31.5 23.5 -47.5 31.5c-38 19.333 -81.333 30.333 -130 33c-43.333 0 -80 -7.66699 -110 -23s-54.667 -34.166 -74 -56.499s-34.333 -45.666 -45 -69.999s-18.334 -45.5 -23.001 -63.5h-168c4 59.333 15.5 109.666 34.5 150.999s42 75.833 69 103.5
s56.167 49.5 87.5 65.5s61.5 27.833 90.5 35.5s55 12.5 78 14.5s39.5 3 49.5 3h11c50 0 101 -7 153 -21c28 4 55 12 81 24c22 10 44.667 24.167 68 42.5s42.666 43.5 57.999 75.5l53 -53l20 -20l18.5 -18l15 -14c4.33301 -4 7.16602 -6.33301 8.49902 -7z" />
    <glyph glyph-name="hohipthai" unicode="&#xcb;" horiz-adv-x="1026" 
d="M104 1075l159.999 0.000976562v-275h358c18.667 2.66699 36.334 9.33398 53.001 20.001c14 9.33301 28 22.666 42 39.999s24.667 41.666 32 72.999v142h160v-157c0 -9.33301 -2 -22 -6 -38s-10 -33.167 -18 -51.5s-17.833 -37 -29.5 -56s-25.167 -35.833 -40.5 -50.5
c20.667 -18.667 39.334 -41 56.001 -67c14 -22 26.833 -49 38.5 -81s17.5 -68.333 17.5 -109v-465h-160v465l-2 14c-1.33301 9.33301 -3.83301 20.833 -7.5 34.5s-8.83398 28.5 -15.501 44.5s-15.334 31 -26.001 45s-23.667 25.5 -39 34.5s-33.666 13.5 -54.999 13.5h-358
v-651h-160v1075z" />
    <glyph glyph-name="hohipthai" unicode="&#xe2b;" horiz-adv-x="1026" 
d="M104 1075l159.999 0.000976562v-275h358c18.667 2.66699 36.334 9.33398 53.001 20.001c14 9.33301 28 22.666 42 39.999s24.667 41.666 32 72.999v142h160v-157c0 -9.33301 -2 -22 -6 -38s-10 -33.167 -18 -51.5s-17.833 -37 -29.5 -56s-25.167 -35.833 -40.5 -50.5
c20.667 -18.667 39.334 -41 56.001 -67c14 -22 26.833 -49 38.5 -81s17.5 -68.333 17.5 -109v-465h-160v465l-2 14c-1.33301 9.33301 -3.83301 20.833 -7.5 34.5s-8.83398 28.5 -15.501 44.5s-15.334 31 -26.001 45s-23.667 25.5 -39 34.5s-33.666 13.5 -54.999 13.5h-358
v-651h-160v1075z" />
    <glyph glyph-name="lochulathai" unicode="&#xcc;" horiz-adv-x="1174" 
d="M1091 1398c0 -40 -9.99512 -72.833 -29.9951 -98.5s-49 -43.167 -87 -52.5c36 -9.33301 63.667 -25 83 -47s30.666 -49.333 33.999 -82v-858c-6 -51.333 -20.667 -97.333 -44 -138c-10 -17.333 -22.5 -34.166 -37.5 -50.499s-33 -31 -54 -44s-45.333 -23.333 -73 -31
s-59.5 -11.5 -95.5 -11.5c-26.667 0 -51.5 3.5 -74.5 10.5s-43 17.5 -60 31.5s-30.5 31.333 -40.5 52s-15.333 44.667 -16 72c-1.33301 -27.333 -7 -51.333 -17 -72s-23.5 -38 -40.5 -52s-37 -24.5 -60 -31.5s-47.833 -10.5 -74.5 -10.5c-36 0 -68 3.83301 -96 11.5
s-52.5 18 -73.5 31s-39 27.667 -54 44s-27.5 33.166 -37.5 50.499c-23.333 40.667 -38 86.667 -44 138v813h161v-750c0 -47.333 5.66699 -83.666 17 -108.999s24.5 -43.833 39.5 -55.5s30.167 -18.5 45.5 -20.5s26.666 -3 33.999 -3h8c28 0 50 7.33301 66 22
s28.167 31.667 36.5 51s13.5 38.666 15.5 57.999s3 34 3 44v13v750h142v-750v-13c0 -10 1 -24.667 3 -44s7 -38.666 15 -57.999s20 -36.333 36 -51s38 -22 66 -22h7c7.33301 0 18.666 1 33.999 3s30.666 8.83301 45.999 20.5s28.666 30.167 39.999 55.5
s17 61.666 17 108.999v758c0 68 -47.333 102 -142 102h-53v124h53c46.667 0 82 10.5 106 31.5s36 51.5 36 91.5v30h160v-62v0z" />
    <glyph glyph-name="lochulathai" unicode="&#xe2c;" horiz-adv-x="1174" 
d="M1091 1398c0 -40 -9.99512 -72.833 -29.9951 -98.5s-49 -43.167 -87 -52.5c36 -9.33301 63.667 -25 83 -47s30.666 -49.333 33.999 -82v-858c-6 -51.333 -20.667 -97.333 -44 -138c-10 -17.333 -22.5 -34.166 -37.5 -50.499s-33 -31 -54 -44s-45.333 -23.333 -73 -31
s-59.5 -11.5 -95.5 -11.5c-26.667 0 -51.5 3.5 -74.5 10.5s-43 17.5 -60 31.5s-30.5 31.333 -40.5 52s-15.333 44.667 -16 72c-1.33301 -27.333 -7 -51.333 -17 -72s-23.5 -38 -40.5 -52s-37 -24.5 -60 -31.5s-47.833 -10.5 -74.5 -10.5c-36 0 -68 3.83301 -96 11.5
s-52.5 18 -73.5 31s-39 27.667 -54 44s-27.5 33.166 -37.5 50.499c-23.333 40.667 -38 86.667 -44 138v813h161v-750c0 -47.333 5.66699 -83.666 17 -108.999s24.5 -43.833 39.5 -55.5s30.167 -18.5 45.5 -20.5s26.666 -3 33.999 -3h8c28 0 50 7.33301 66 22
s28.167 31.667 36.5 51s13.5 38.666 15.5 57.999s3 34 3 44v13v750h142v-750v-13c0 -10 1 -24.667 3 -44s7 -38.666 15 -57.999s20 -36.333 36 -51s38 -22 66 -22h7c7.33301 0 18.666 1 33.999 3s30.666 8.83301 45.999 20.5s28.666 30.167 39.999 55.5
s17 61.666 17 108.999v758c0 68 -47.333 102 -142 102h-53v124h53c46.667 0 82 10.5 106 31.5s36 51.5 36 91.5v30h160v-62v0z" />
    <glyph glyph-name="oangthai" unicode="&#xcd;" horiz-adv-x="981" 
d="M926 370c-6 -72.667 -25.001 -137.002 -57.001 -193.002c-13.333 -24 -30.333 -47.5 -51 -70.5s-45.667 -43.5 -75 -61.5s-63.5 -32.5 -102.5 -43.5s-83.833 -16.5 -134.5 -16.5c-51.333 0 -96.5 5.5 -135.5 16.5s-73.167 25.5 -102.5 43.5s-54.166 38.5 -74.499 61.5
s-37.166 46.5 -50.499 70.5c-32 56 -51 120.333 -57 193v217h300v-150h-140v-67c0 -29.333 3.66699 -55.333 11 -78s17.166 -42.167 29.499 -58.5s26.333 -30.166 42 -41.499s31.5 -20.666 47.5 -27.999c38 -17.333 81.333 -27 130 -29c48.667 2 92 11.667 130 29
c16 7.33301 31.833 16.666 47.5 27.999s29.667 25.166 42 41.499s22.166 35.833 29.499 58.5s11 48.667 11 78v325c0 28 -3.66699 52.667 -11 74s-17.166 40 -29.499 56s-26.333 29.333 -42 40s-31.5 19.667 -47.5 27c-38 16.667 -81.333 26 -130 28h-13
c-11.333 0 -28 -1.83301 -50 -5.5s-45.167 -11.167 -69.5 -22.5s-47.5 -27.5 -69.5 -48.5s-38.333 -49.167 -49 -84.5h-160c4 18 10 38.5 18 61.5s19 46.5 33 70.5s31.167 47.333 51.5 70s45 42.834 74 60.501s62.833 31.834 101.5 42.501s83 16 133 16
c50.667 0 95.5 -5.5 134.5 -16.5s73.167 -25.667 102.5 -44s54.333 -39 75 -62s37.667 -46.5 51 -70.5c32 -56 51 -120 57 -192v-325z" />
    <glyph glyph-name="oangthai" unicode="&#xe2d;" horiz-adv-x="981" 
d="M926 370c-6 -72.667 -25.001 -137.002 -57.001 -193.002c-13.333 -24 -30.333 -47.5 -51 -70.5s-45.667 -43.5 -75 -61.5s-63.5 -32.5 -102.5 -43.5s-83.833 -16.5 -134.5 -16.5c-51.333 0 -96.5 5.5 -135.5 16.5s-73.167 25.5 -102.5 43.5s-54.166 38.5 -74.499 61.5
s-37.166 46.5 -50.499 70.5c-32 56 -51 120.333 -57 193v217h300v-150h-140v-67c0 -29.333 3.66699 -55.333 11 -78s17.166 -42.167 29.499 -58.5s26.333 -30.166 42 -41.499s31.5 -20.666 47.5 -27.999c38 -17.333 81.333 -27 130 -29c48.667 2 92 11.667 130 29
c16 7.33301 31.833 16.666 47.5 27.999s29.667 25.166 42 41.499s22.166 35.833 29.499 58.5s11 48.667 11 78v325c0 28 -3.66699 52.667 -11 74s-17.166 40 -29.499 56s-26.333 29.333 -42 40s-31.5 19.667 -47.5 27c-38 16.667 -81.333 26 -130 28h-13
c-11.333 0 -28 -1.83301 -50 -5.5s-45.167 -11.167 -69.5 -22.5s-47.5 -27.5 -69.5 -48.5s-38.333 -49.167 -49 -84.5h-160c4 18 10 38.5 18 61.5s19 46.5 33 70.5s31.167 47.333 51.5 70s45 42.834 74 60.501s62.833 31.834 101.5 42.501s83 16 133 16
c50.667 0 95.5 -5.5 134.5 -16.5s73.167 -25.667 102.5 -44s54.333 -39 75 -62s37.667 -46.5 51 -70.5c32 -56 51 -120 57 -192v-325z" />
    <glyph glyph-name="honokhukthai" unicode="&#xce;" horiz-adv-x="1020" 
d="M995 1088c0 -5.33301 -5.83203 -15.168 -17.499 -29.501s-25.667 -29.5 -42 -45.5s-32.833 -30.667 -49.5 -44s-29.667 -22 -39 -26c22.667 -28 40.5 -56.667 53.5 -86s22.5 -56 28.5 -80c7.33301 -28 11.666 -55.333 12.999 -82v-325c-6 -72.667 -25 -137 -57 -193
c-13.333 -24 -30.333 -47.5 -51 -70.5s-45.667 -43.5 -75 -61.5s-63.5 -32.5 -102.5 -43.5s-83.833 -16.5 -134.5 -16.5c-51.333 0 -96.5 5.5 -135.5 16.5s-73.167 25.5 -102.5 43.5s-54.166 38.5 -74.499 61.5s-37.166 46.5 -50.499 70.5c-32 56 -51 120.333 -57 193v217
h300v-150h-140v-67c0 -29.333 3.66699 -55.333 11 -78s17.166 -42.167 29.499 -58.5s26.333 -30.166 42 -41.499s31.5 -20.666 47.5 -27.999c38 -17.333 81.333 -27 130 -29c48.667 2 92 11.667 130 29c16 7.33301 31.833 16.666 47.5 27.999s29.667 25.166 42 41.499
s22.166 35.833 29.499 58.5s11 48.667 11 78v325c0 28 -3.66699 52.667 -11 74s-17.166 40 -29.499 56s-26.333 29.333 -42 40s-31.5 19.667 -47.5 27c-38 16.667 -81.333 26 -130 28h-13c-11.333 0 -28 -1.83301 -50 -5.5s-45.167 -11.167 -69.5 -22.5
s-47.5 -27.5 -69.5 -48.5s-38.333 -49.167 -49 -84.5h-160c4 18 10 38.5 18 61.5s19 46.5 33 70.5s31.167 47.333 51.5 70s45 42.834 74 60.501s62.833 31.834 101.5 42.501s83 16 133 16c29.333 0 56.5 -1.83301 81.5 -5.5s48.167 -8.83398 69.5 -15.501
c27.333 4 54 12 80 24c22 10 44.667 24 68 42s42.666 43 57.999 75l54 -52l39.5 -38z" />
    <glyph glyph-name="honokhukthai" unicode="&#xe2e;" horiz-adv-x="1020" 
d="M995 1088c0 -5.33301 -5.83203 -15.168 -17.499 -29.501s-25.667 -29.5 -42 -45.5s-32.833 -30.667 -49.5 -44s-29.667 -22 -39 -26c22.667 -28 40.5 -56.667 53.5 -86s22.5 -56 28.5 -80c7.33301 -28 11.666 -55.333 12.999 -82v-325c-6 -72.667 -25 -137 -57 -193
c-13.333 -24 -30.333 -47.5 -51 -70.5s-45.667 -43.5 -75 -61.5s-63.5 -32.5 -102.5 -43.5s-83.833 -16.5 -134.5 -16.5c-51.333 0 -96.5 5.5 -135.5 16.5s-73.167 25.5 -102.5 43.5s-54.166 38.5 -74.499 61.5s-37.166 46.5 -50.499 70.5c-32 56 -51 120.333 -57 193v217
h300v-150h-140v-67c0 -29.333 3.66699 -55.333 11 -78s17.166 -42.167 29.499 -58.5s26.333 -30.166 42 -41.499s31.5 -20.666 47.5 -27.999c38 -17.333 81.333 -27 130 -29c48.667 2 92 11.667 130 29c16 7.33301 31.833 16.666 47.5 27.999s29.667 25.166 42 41.499
s22.166 35.833 29.499 58.5s11 48.667 11 78v325c0 28 -3.66699 52.667 -11 74s-17.166 40 -29.499 56s-26.333 29.333 -42 40s-31.5 19.667 -47.5 27c-38 16.667 -81.333 26 -130 28h-13c-11.333 0 -28 -1.83301 -50 -5.5s-45.167 -11.167 -69.5 -22.5
s-47.5 -27.5 -69.5 -48.5s-38.333 -49.167 -49 -84.5h-160c4 18 10 38.5 18 61.5s19 46.5 33 70.5s31.167 47.333 51.5 70s45 42.834 74 60.501s62.833 31.834 101.5 42.501s83 16 133 16c29.333 0 56.5 -1.83301 81.5 -5.5s48.167 -8.83398 69.5 -15.501
c27.333 4 54 12 80 24c22 10 44.667 24 68 42s42.666 43 57.999 75l54 -52l39.5 -38z" />
    <glyph glyph-name="paiyannoithai" unicode="&#xcf;" horiz-adv-x="754" 
d="M653 1073l0.000976562 -1073h-160v773c-15.333 -7.33301 -30.333 -13 -45 -17s-28 -7 -40 -9s-22.333 -3.16699 -31 -3.5s-14.334 -0.5 -17.001 -0.5h-9c-7.33301 0 -19.333 0.833008 -36 2.5s-35.5 6 -56.5 13s-42.5 17.5 -64.5 31.5s-42.167 33.333 -60.5 58
s-33.333 55.167 -45 91.5s-17.5 80.833 -17.5 133.5h156c-0.666992 -1.33301 -1 -3.33301 -1 -6v-15c0 -11.333 1.33301 -25.666 4 -42.999s8.33398 -34.333 17.001 -51s21.5 -31 38.5 -43s40.167 -18.333 69.5 -19h9c27.333 0.666992 49.333 6.33398 66 17.001
s29.667 23.5 39 38.5s15.666 30.833 18.999 47.5s5 31.334 5 44.001c0 6.66699 -0.166992 12 -0.5 16s-0.5 7 -0.5 9v5h161z" />
    <glyph glyph-name="paiyannoithai" unicode="&#xe2f;" horiz-adv-x="754" 
d="M653 1073l0.000976562 -1073h-160v773c-15.333 -7.33301 -30.333 -13 -45 -17s-28 -7 -40 -9s-22.333 -3.16699 -31 -3.5s-14.334 -0.5 -17.001 -0.5h-9c-7.33301 0 -19.333 0.833008 -36 2.5s-35.5 6 -56.5 13s-42.5 17.5 -64.5 31.5s-42.167 33.333 -60.5 58
s-33.333 55.167 -45 91.5s-17.5 80.833 -17.5 133.5h156c-0.666992 -1.33301 -1 -3.33301 -1 -6v-15c0 -11.333 1.33301 -25.666 4 -42.999s8.33398 -34.333 17.001 -51s21.5 -31 38.5 -43s40.167 -18.333 69.5 -19h9c27.333 0.666992 49.333 6.33398 66 17.001
s29.667 23.5 39 38.5s15.666 30.833 18.999 47.5s5 31.334 5 44.001c0 6.66699 -0.166992 12 -0.5 16s-0.5 7 -0.5 9v5h161z" />
    <glyph glyph-name="saraathai" unicode="&#xd0;" horiz-adv-x="546" 
d="M206 978l-0.00195312 -80h281v-150h-360c-17.333 0 -30.666 3.5 -39.999 10.5s-16.333 15.167 -21 24.5c-5.33301 10.667 -8.66602 22.667 -9.99902 36v159h150zM205.998 327l-0.00195312 -80h281v-150h-360c-17.333 0 -30.666 3.5 -39.999 10.5s-16.333 15.167 -21 24.5
c-5.33301 10.667 -8.66602 22.667 -9.99902 36v159h150z" />
    <glyph glyph-name="saraathai" unicode="&#xe30;" horiz-adv-x="546" 
d="M206 978l-0.00195312 -80h281v-150h-360c-17.333 0 -30.666 3.5 -39.999 10.5s-16.333 15.167 -21 24.5c-5.33301 10.667 -8.66602 22.667 -9.99902 36v159h150zM205.998 327l-0.00195312 -80h281v-150h-360c-17.333 0 -30.666 3.5 -39.999 10.5s-16.333 15.167 -21 24.5
c-5.33301 10.667 -8.66602 22.667 -9.99902 36v159h150z" />
    <glyph glyph-name="maihanakatthai" unicode="&#xd1;" 
d="M-425 1431l-0.00195312 -80h402v-150h-481c-17.333 0 -30.666 3.5 -39.999 10.5s-16.333 15.167 -21 24.5c-5.33301 10.667 -8.66602 22.667 -9.99902 36v159h150z" />
    <glyph glyph-name="maihanakatthai" unicode="&#xe31;" 
d="M-425 1431l-0.00195312 -80h402v-150h-481c-17.333 0 -30.666 3.5 -39.999 10.5s-16.333 15.167 -21 24.5c-5.33301 10.667 -8.66602 22.667 -9.99902 36v159h150z" />
    <glyph glyph-name="saraaathai" unicode="&#xd2;" horiz-adv-x="658" 
d="M255 1080c4 0 13.834 -0.49707 29.501 -1.49707s34.167 -4.33301 55.5 -10s43.666 -14.834 66.999 -27.501s44.833 -30.667 64.5 -54s36 -53 49 -89s19.5 -80.333 19.5 -133v-765h-160v765c-1.33301 28.667 -6.66602 54.334 -15.999 77.001c-4 10 -9 19.667 -15 29
s-13.333 17.666 -22 24.999s-18.834 13.166 -30.501 17.499s-25.167 6.5 -40.5 6.5c-26.667 0 -49.167 -3.16699 -67.5 -9.5s-33.5 -13.5 -45.5 -21.5s-21.5 -15.833 -28.5 -23.5s-12.167 -13.167 -15.5 -16.5l-110 115c17.333 21.333 39 40.666 65 57.999
c22 14.667 49.5 28 82.5 40s72.5 18 118.5 18z" />
    </font>
</defs>
</svg>
